<svg width="583" height="57" viewBox="0 0 583 57" fill="none" xmlns="http://www.w3.org/2000/svg">
<path d="M0.804388 43.9999V0.363513H30.5913V8.92885H11.3513V17.8777H28.695V26.4644H11.3513V43.9999H0.804388ZM35.2575 43.9999V11.2726H45.3783V17.2385H45.7192C46.3158 15.0794 47.2888 13.4743 48.6382 12.4232C49.9876 11.3578 51.5572 10.8252 53.347 10.8252C53.83 10.8252 54.3271 10.8607 54.8385 10.9317C55.3498 10.9885 55.8257 11.0808 56.266 11.2087V20.2641C55.7689 20.0936 55.1155 19.9587 54.3058 19.8593C53.5104 19.7598 52.8001 19.7101 52.1751 19.7101C50.9393 19.7101 49.8243 19.9871 48.83 20.5411C47.8498 21.0808 47.0757 21.8408 46.5075 22.8209C45.9535 23.7868 45.6765 24.9232 45.6765 26.23V43.9999H35.2575ZM74.0892 44.6178C70.6517 44.6178 67.6971 43.9147 65.2256 42.5084C62.7682 41.0879 60.8719 39.1135 59.5366 36.5851C58.2156 34.0425 57.5551 31.095 57.5551 27.7428C57.5551 24.3763 58.2156 21.4289 59.5366 18.9004C60.8719 16.3578 62.7682 14.3834 65.2256 12.9771C67.6971 11.5567 70.6517 10.8465 74.0892 10.8465C77.5267 10.8465 80.4741 11.5567 82.9315 12.9771C85.4031 14.3834 87.2994 16.3578 88.6204 18.9004C89.9557 21.4289 90.6233 24.3763 90.6233 27.7428C90.6233 31.095 89.9557 34.0425 88.6204 36.5851C87.2994 39.1135 85.4031 41.0879 82.9315 42.5084C80.4741 43.9147 77.5267 44.6178 74.0892 44.6178ZM74.1531 36.7556C75.4031 36.7556 76.4613 36.372 77.3278 35.605C78.1943 34.8379 78.8548 33.7726 79.3094 32.409C79.7781 31.0453 80.0125 29.4686 80.0125 27.6789C80.0125 25.8607 79.7781 24.2698 79.3094 22.9061C78.8548 21.5425 78.1943 20.4772 77.3278 19.7101C76.4613 18.9431 75.4031 18.5595 74.1531 18.5595C72.8605 18.5595 71.7667 18.9431 70.8719 19.7101C69.9912 20.4772 69.3165 21.5425 68.8477 22.9061C68.3932 24.2698 68.1659 25.8607 68.1659 27.6789C68.1659 29.4686 68.3932 31.0453 68.8477 32.409C69.3165 33.7726 69.9912 34.8379 70.8719 35.605C71.7667 36.372 72.8605 36.7556 74.1531 36.7556ZM106.38 25.3351V43.9999H95.9606V11.2726H105.868V17.2811H106.231C106.955 15.2783 108.191 13.7087 109.938 12.5723C111.685 11.4218 113.766 10.8465 116.181 10.8465C118.482 10.8465 120.478 11.3649 122.168 12.4019C123.873 13.4246 125.194 14.8593 126.131 16.7058C127.083 18.5382 127.552 20.6831 127.537 23.1405V43.9999H117.118V25.186C117.133 23.3678 116.671 21.9473 115.733 20.9246C114.81 19.9019 113.525 19.3905 111.877 19.3905C110.783 19.3905 109.817 19.632 108.979 20.1149C108.155 20.5837 107.516 21.2584 107.061 22.1391C106.621 23.0198 106.394 24.0851 106.38 25.3351ZM152.461 11.2726V18.9431H131.815V11.2726H152.461ZM136.14 3.4317H146.559V33.7087C146.559 34.3479 146.658 34.8664 146.857 35.2641C147.07 35.6476 147.376 35.9246 147.773 36.095C148.171 36.2513 148.647 36.3294 149.201 36.3294C149.599 36.3294 150.018 36.2939 150.458 36.2229C150.913 36.1377 151.254 36.0666 151.481 36.0098L153.058 43.5311C152.56 43.6732 151.857 43.8507 150.948 44.0638C150.053 44.2769 148.981 44.4118 147.731 44.4686C145.288 44.5823 143.193 44.2982 141.445 43.6164C139.712 42.9203 138.384 41.8408 137.461 40.3777C136.552 38.9147 136.112 37.0752 136.14 34.8593V3.4317ZM172.724 44.6178C169.3 44.6178 166.346 43.9431 163.86 42.5936C161.389 41.23 159.485 39.2911 158.15 36.7769C156.829 34.2485 156.168 31.2442 156.168 27.7641C156.168 24.3834 156.836 21.4289 158.171 18.9004C159.506 16.3578 161.389 14.3834 163.818 12.9771C166.247 11.5567 169.109 10.8465 172.404 10.8465C174.734 10.8465 176.864 11.2087 178.796 11.9331C180.728 12.6575 182.397 13.73 183.803 15.1504C185.21 16.5709 186.303 18.3252 187.085 20.4132C187.866 22.4871 188.256 24.8664 188.256 27.551V30.1504H159.812V24.0993H178.562C178.548 22.9914 178.285 22.0041 177.773 21.1377C177.262 20.2712 176.559 19.5965 175.664 19.1135C174.783 18.6164 173.768 18.3678 172.617 18.3678C171.452 18.3678 170.408 18.6306 169.485 19.1561C168.562 19.6675 167.83 20.3706 167.291 21.2655C166.751 22.1462 166.467 23.1476 166.438 24.2698V30.4274C166.438 31.7627 166.701 32.9345 167.227 33.9431C167.752 34.9374 168.498 35.7115 169.464 36.2655C170.43 36.8195 171.58 37.0965 172.916 37.0965C173.839 37.0965 174.677 36.9686 175.43 36.7129C176.183 36.4573 176.829 36.0808 177.369 35.5837C177.908 35.0865 178.313 34.4757 178.583 33.7513L188.15 34.0283C187.752 36.1732 186.879 38.0411 185.529 39.632C184.194 41.2087 182.44 42.4374 180.266 43.3181C178.093 44.1845 175.579 44.6178 172.724 44.6178ZM203.997 25.3351V43.9999H193.578V11.2726H203.485V17.2811H203.848C204.572 15.2783 205.808 13.7087 207.555 12.5723C209.302 11.4218 211.383 10.8465 213.798 10.8465C216.099 10.8465 218.095 11.3649 219.785 12.4019C221.49 13.4246 222.811 14.8593 223.748 16.7058C224.7 18.5382 225.169 20.6831 225.155 23.1405V43.9999H214.735V25.186C214.75 23.3678 214.288 21.9473 213.351 20.9246C212.427 19.9019 211.142 19.3905 209.494 19.3905C208.4 19.3905 207.434 19.632 206.596 20.1149C205.772 20.5837 205.133 21.2584 204.679 22.1391C204.238 23.0198 204.011 24.0851 203.997 25.3351ZM243.558 44.4686C241.144 44.4686 238.949 43.8436 236.974 42.5936C235 41.3436 233.423 39.4686 232.244 36.9686C231.065 34.4686 230.476 31.3649 230.476 27.6575C230.476 23.8081 231.087 20.6405 232.308 18.1547C233.53 15.6689 235.128 13.8294 237.102 12.6362C239.091 11.4431 241.229 10.8465 243.516 10.8465C245.234 10.8465 246.705 11.1448 247.926 11.7414C249.148 12.3237 250.156 13.0766 250.952 13.9999C251.747 14.9232 252.351 15.882 252.763 16.8763H252.976V0.363513H263.395V43.9999H253.082V38.6945H252.763C252.322 39.703 251.697 40.6476 250.888 41.5283C250.078 42.409 249.063 43.1192 247.841 43.659C246.634 44.1987 245.206 44.4686 243.558 44.4686ZM247.18 36.3507C248.445 36.3507 249.524 35.9956 250.419 35.2854C251.314 34.561 252.003 33.5453 252.486 32.2385C252.969 30.9317 253.21 29.3976 253.21 27.6362C253.21 25.8465 252.969 24.3053 252.486 23.0127C252.017 21.72 251.328 20.7257 250.419 20.0297C249.524 19.3337 248.445 18.9857 247.18 18.9857C245.888 18.9857 244.794 19.3408 243.899 20.051C243.004 20.7612 242.322 21.7627 241.854 23.0553C241.399 24.3479 241.172 25.8749 241.172 27.6362C241.172 29.3976 241.406 30.9317 241.875 32.2385C242.344 33.5453 243.019 34.561 243.899 35.2854C244.794 35.9956 245.888 36.3507 247.18 36.3507ZM299.004 43.9999H282.875V0.363513H298.983C303.429 0.363513 307.257 1.23709 310.467 2.98425C313.691 4.71721 316.177 7.21721 317.924 10.4843C319.672 13.7371 320.545 17.6291 320.545 22.1604C320.545 26.7058 319.672 30.6121 317.924 33.8791C316.191 37.1462 313.713 39.6533 310.488 41.4004C307.264 43.1334 303.436 43.9999 299.004 43.9999ZM293.422 35.0084H298.599C301.042 35.0084 303.109 34.5965 304.799 33.7726C306.504 32.9345 307.789 31.578 308.656 29.703C309.537 27.8138 309.977 25.2996 309.977 22.1604C309.977 19.0212 309.537 16.5212 308.656 14.6604C307.775 12.7854 306.476 11.436 304.757 10.6121C303.052 9.77402 300.95 9.35499 298.45 9.35499H293.422V35.0084ZM342.001 44.6178C338.578 44.6178 335.623 43.9431 333.137 42.5936C330.666 41.23 328.762 39.2911 327.427 36.7769C326.106 34.2485 325.446 31.2442 325.446 27.7641C325.446 24.3834 326.113 21.4289 327.449 18.9004C328.784 16.3578 330.666 14.3834 333.095 12.9771C335.524 11.5567 338.386 10.8465 341.682 10.8465C344.011 10.8465 346.142 11.2087 348.074 11.9331C350.005 12.6575 351.674 13.73 353.081 15.1504C354.487 16.5709 355.581 18.3252 356.362 20.4132C357.143 22.4871 357.534 24.8664 357.534 27.551V30.1504H329.089V24.0993H347.839C347.825 22.9914 347.562 22.0041 347.051 21.1377C346.539 20.2712 345.836 19.5965 344.941 19.1135C344.061 18.6164 343.045 18.3678 341.895 18.3678C340.73 18.3678 339.686 18.6306 338.762 19.1561C337.839 19.6675 337.108 20.3706 336.568 21.2655C336.028 22.1462 335.744 23.1476 335.716 24.2698V30.4274C335.716 31.7627 335.978 32.9345 336.504 33.9431C337.03 34.9374 337.775 35.7115 338.741 36.2655C339.707 36.8195 340.858 37.0965 342.193 37.0965C343.116 37.0965 343.954 36.9686 344.707 36.7129C345.46 36.4573 346.106 36.0808 346.646 35.5837C347.186 35.0865 347.591 34.4757 347.86 33.7513L357.427 34.0283C357.03 36.1732 356.156 38.0411 354.807 39.632C353.471 41.2087 351.717 42.4374 349.544 43.3181C347.37 44.1845 344.856 44.6178 342.001 44.6178ZM393.723 11.2726L382.495 43.9999H370.563L359.356 11.2726H370.329L376.358 33.8152H376.699L382.75 11.2726H393.723ZM411.962 44.6178C408.539 44.6178 405.584 43.9431 403.098 42.5936C400.627 41.23 398.723 39.2911 397.388 36.7769C396.067 34.2485 395.407 31.2442 395.407 27.7641C395.407 24.3834 396.074 21.4289 397.41 18.9004C398.745 16.3578 400.627 14.3834 403.056 12.9771C405.485 11.5567 408.347 10.8465 411.642 10.8465C413.972 10.8465 416.103 11.2087 418.035 11.9331C419.966 12.6575 421.635 13.73 423.042 15.1504C424.448 16.5709 425.542 18.3252 426.323 20.4132C427.104 22.4871 427.495 24.8664 427.495 27.551V30.1504H399.05V24.0993H417.8C417.786 22.9914 417.523 22.0041 417.012 21.1377C416.5 20.2712 415.797 19.5965 414.902 19.1135C414.022 18.6164 413.006 18.3678 411.856 18.3678C410.691 18.3678 409.647 18.6306 408.723 19.1561C407.8 19.6675 407.069 20.3706 406.529 21.2655C405.989 22.1462 405.705 23.1476 405.677 24.2698V30.4274C405.677 31.7627 405.939 32.9345 406.465 33.9431C406.99 34.9374 407.736 35.7115 408.702 36.2655C409.668 36.8195 410.819 37.0965 412.154 37.0965C413.077 37.0965 413.915 36.9686 414.668 36.7129C415.421 36.4573 416.067 36.0808 416.607 35.5837C417.147 35.0865 417.552 34.4757 417.821 33.7513L427.388 34.0283C426.99 36.1732 426.117 38.0411 424.767 39.632C423.432 41.2087 421.678 42.4374 419.505 43.3181C417.331 44.1845 414.817 44.6178 411.962 44.6178ZM443.235 0.363513V43.9999H432.816V0.363513H443.235ZM465.144 44.6178C461.706 44.6178 458.752 43.9147 456.28 42.5084C453.823 41.0879 451.927 39.1135 450.591 36.5851C449.27 34.0425 448.61 31.095 448.61 27.7428C448.61 24.3763 449.27 21.4289 450.591 18.9004C451.927 16.3578 453.823 14.3834 456.28 12.9771C458.752 11.5567 461.706 10.8465 465.144 10.8465C468.581 10.8465 471.529 11.5567 473.986 12.9771C476.458 14.3834 478.354 16.3578 479.675 18.9004C481.01 21.4289 481.678 24.3763 481.678 27.7428C481.678 31.095 481.01 34.0425 479.675 36.5851C478.354 39.1135 476.458 41.0879 473.986 42.5084C471.529 43.9147 468.581 44.6178 465.144 44.6178ZM465.208 36.7556C466.458 36.7556 467.516 36.372 468.383 35.605C469.249 34.8379 469.91 33.7726 470.364 32.409C470.833 31.0453 471.067 29.4686 471.067 27.6789C471.067 25.8607 470.833 24.2698 470.364 22.9061C469.91 21.5425 469.249 20.4772 468.383 19.7101C467.516 18.9431 466.458 18.5595 465.208 18.5595C463.915 18.5595 462.821 18.9431 461.927 19.7101C461.046 20.4772 460.371 21.5425 459.902 22.9061C459.448 24.2698 459.221 25.8607 459.221 27.6789C459.221 29.4686 459.448 31.0453 459.902 32.409C460.371 33.7726 461.046 34.8379 461.927 35.605C462.821 36.372 463.915 36.7556 465.208 36.7556ZM487.015 56.2726V11.2726H497.328V16.8763H497.647C498.074 15.882 498.677 14.9232 499.459 13.9999C500.254 13.0766 501.262 12.3237 502.484 11.7414C503.72 11.1448 505.197 10.8465 506.916 10.8465C509.189 10.8465 511.312 11.4431 513.287 12.6362C515.275 13.8294 516.88 15.6689 518.102 18.1547C519.324 20.6405 519.934 23.8081 519.934 27.6575C519.934 31.3649 519.345 34.4686 518.166 36.9686C517.001 39.4686 515.424 41.3436 513.436 42.5936C511.461 43.8436 509.267 44.4686 506.852 44.4686C505.204 44.4686 503.777 44.1987 502.569 43.659C501.362 43.1192 500.346 42.409 499.522 41.5283C498.713 40.6476 498.088 39.703 497.647 38.6945H497.434V56.2726H487.015ZM497.221 27.6362C497.221 29.3976 497.456 30.9317 497.924 32.2385C498.407 33.5453 499.096 34.561 499.991 35.2854C500.9 35.9956 501.987 36.3507 503.251 36.3507C504.53 36.3507 505.616 35.9956 506.511 35.2854C507.406 34.561 508.081 33.5453 508.535 32.2385C509.004 30.9317 509.238 29.3976 509.238 27.6362C509.238 25.8749 509.004 24.3479 508.535 23.0553C508.081 21.7627 507.406 20.7612 506.511 20.051C505.63 19.3408 504.544 18.9857 503.251 18.9857C501.973 18.9857 500.886 19.3337 499.991 20.0297C499.096 20.7257 498.407 21.72 497.924 23.0127C497.456 24.3053 497.221 25.8465 497.221 27.6362ZM540.693 44.6178C537.269 44.6178 534.315 43.9431 531.829 42.5936C529.357 41.23 527.454 39.2911 526.119 36.7769C524.798 34.2485 524.137 31.2442 524.137 27.7641C524.137 24.3834 524.805 21.4289 526.14 18.9004C527.475 16.3578 529.357 14.3834 531.786 12.9771C534.215 11.5567 537.077 10.8465 540.373 10.8465C542.702 10.8465 544.833 11.2087 546.765 11.9331C548.697 12.6575 550.366 13.73 551.772 15.1504C553.178 16.5709 554.272 18.3252 555.053 20.4132C555.835 22.4871 556.225 24.8664 556.225 27.551V30.1504H527.781V24.0993H546.531C546.516 22.9914 546.254 22.0041 545.742 21.1377C545.231 20.2712 544.528 19.5965 543.633 19.1135C542.752 18.6164 541.737 18.3678 540.586 18.3678C539.421 18.3678 538.377 18.6306 537.454 19.1561C536.531 19.6675 535.799 20.3706 535.259 21.2655C534.72 22.1462 534.435 23.1476 534.407 24.2698V30.4274C534.407 31.7627 534.67 32.9345 535.195 33.9431C535.721 34.9374 536.467 35.7115 537.433 36.2655C538.398 36.8195 539.549 37.0965 540.884 37.0965C541.808 37.0965 542.646 36.9686 543.398 36.7129C544.151 36.4573 544.798 36.0808 545.337 35.5837C545.877 35.0865 546.282 34.4757 546.552 33.7513L556.119 34.0283C555.721 36.1732 554.847 38.0411 553.498 39.632C552.163 41.2087 550.408 42.4374 548.235 43.3181C546.062 44.1845 543.548 44.6178 540.693 44.6178ZM561.547 43.9999V11.2726H571.667V17.2385H572.008C572.605 15.0794 573.578 13.4743 574.927 12.4232C576.277 11.3578 577.846 10.8252 579.636 10.8252C580.119 10.8252 580.616 10.8607 581.128 10.9317C581.639 10.9885 582.115 11.0808 582.555 11.2087V20.2641C582.058 20.0936 581.405 19.9587 580.595 19.8593C579.799 19.7598 579.089 19.7101 578.464 19.7101C577.228 19.7101 576.113 19.9871 575.119 20.5411C574.139 21.0808 573.365 21.8408 572.797 22.8209C572.243 23.7868 571.966 24.9232 571.966 26.23V43.9999H561.547Z" fill="white"/>
</svg>
