<svg width="847" height="164" viewBox="0 0 847 164" fill="none" xmlns="http://www.w3.org/2000/svg">
<path class="s" d="M68.669 64.892C68.3849 61.767 67.1207 59.3381 64.8764 57.6051C62.6605 55.8438 59.4929 54.9631 55.3736 54.9631C52.6463 54.9631 50.3736 55.3182 48.5554 56.0284C46.7372 56.7386 45.3736 57.7188 44.4645 58.9688C43.5554 60.1903 43.0866 61.5966 43.0582 63.1875C43.0014 64.4943 43.2571 65.6449 43.8253 66.6392C44.4219 67.6335 45.2741 68.5142 46.3821 69.2812C47.5185 70.0199 48.8821 70.6733 50.473 71.2415C52.0639 71.8097 53.8537 72.3068 55.8423 72.733L63.3423 74.4375C67.6605 75.375 71.4673 76.625 74.7628 78.1875C78.0867 79.75 80.8707 81.6108 83.1151 83.7699C85.3878 85.929 87.1065 88.4148 88.2713 91.2273C89.4361 94.0398 90.0327 97.1932 90.0611 100.688C90.0327 106.199 88.6406 110.929 85.8849 114.878C83.1293 118.827 79.1662 121.852 73.9957 123.955C68.8537 126.057 62.6463 127.108 55.3736 127.108C48.0724 127.108 41.7088 126.014 36.2827 123.827C30.8565 121.639 26.6378 118.315 23.6264 113.855C20.6151 109.395 19.0668 103.756 18.9815 96.9375H39.1804C39.3509 99.75 40.1037 102.094 41.4389 103.969C42.7741 105.844 44.6065 107.264 46.9361 108.23C49.294 109.196 52.0213 109.679 55.1179 109.679C57.9588 109.679 60.3736 109.295 62.3622 108.528C64.3793 107.761 65.9276 106.696 67.0071 105.332C68.0866 103.969 68.6406 102.406 68.669 100.645C68.6406 98.9972 68.1293 97.5909 67.1349 96.4261C66.1406 95.233 64.6065 94.2102 62.5327 93.358C60.4872 92.4773 57.8736 91.6676 54.6918 90.929L45.5724 88.7983C38.0156 87.0653 32.0639 84.267 27.7173 80.4034C23.3707 76.5114 21.2116 71.2557 21.2401 64.6364C21.2116 59.2386 22.6605 54.5085 25.5866 50.446C28.5128 46.3835 32.5611 43.2159 37.7315 40.9432C42.902 38.6705 48.7969 37.5341 55.4162 37.5341C62.1776 37.5341 68.044 38.6847 73.0156 40.9858C78.0156 43.2585 81.8935 46.4545 84.6492 50.5739C87.4048 54.6932 88.8111 59.4659 88.8679 64.892H68.669Z" fill="white"/>
<path class="a" d="M784.632 126.938C779.803 126.938 775.414 125.688 771.465 123.188C767.516 120.688 764.363 116.938 762.005 111.938C759.647 106.938 758.468 100.73 758.468 93.3153C758.468 85.6165 759.689 79.2812 762.132 74.3097C764.576 69.3381 767.772 65.6591 771.721 63.2727C775.698 60.8864 779.973 59.6932 784.547 59.6932C787.985 59.6932 790.925 60.2898 793.368 61.483C795.811 62.6477 797.828 64.1534 799.419 66C801.01 67.8466 802.218 69.7642 803.042 71.7528H803.468V38.7273H824.306V126H803.681V115.389H803.042C802.161 117.406 800.911 119.295 799.292 121.057C797.672 122.818 795.641 124.239 793.198 125.318C790.783 126.398 787.928 126.938 784.632 126.938ZM791.877 110.702C794.405 110.702 796.564 109.991 798.354 108.571C800.144 107.122 801.522 105.091 802.488 102.477C803.453 99.8636 803.936 96.7955 803.936 93.2727C803.936 89.6932 803.453 86.6108 802.488 84.0256C801.55 81.4403 800.172 79.4517 798.354 78.0597C796.564 76.6676 794.405 75.9716 791.877 75.9716C789.292 75.9716 787.104 76.6818 785.314 78.1023C783.525 79.5227 782.161 81.5256 781.223 84.1108C780.314 86.696 779.86 89.75 779.86 93.2727C779.86 96.7955 780.328 99.8636 781.266 102.477C782.203 105.091 783.553 107.122 785.314 108.571C787.104 109.991 789.292 110.702 791.877 110.702Z" fill="white"/>
<path class="m" d="M716.511 127.236C709.636 127.236 703.727 125.83 698.783 123.017C693.869 120.176 690.076 116.227 687.406 111.17C684.763 106.085 683.442 100.19 683.442 93.4858C683.442 86.7528 684.763 80.858 687.406 75.8011C690.076 70.7159 693.869 66.767 698.783 63.9545C703.727 61.1136 709.636 59.6932 716.511 59.6932C723.386 59.6932 729.281 61.1136 734.195 63.9545C739.138 66.767 742.931 70.7159 745.573 75.8011C748.244 80.858 749.579 86.7528 749.579 93.4858C749.579 100.19 748.244 106.085 745.573 111.17C742.931 116.227 739.138 120.176 734.195 123.017C729.281 125.83 723.386 127.236 716.511 127.236ZM716.638 111.511C719.138 111.511 721.255 110.744 722.988 109.21C724.721 107.676 726.042 105.545 726.951 102.818C727.888 100.091 728.357 96.9375 728.357 93.358C728.357 89.7216 727.888 86.5398 726.951 83.8125C726.042 81.0852 724.721 78.9545 722.988 77.4205C721.255 75.8864 719.138 75.1193 716.638 75.1193C714.053 75.1193 711.866 75.8864 710.076 77.4205C708.315 78.9545 706.965 81.0852 706.028 83.8125C705.119 86.5398 704.664 89.7216 704.664 93.358C704.664 96.9375 705.119 100.091 706.028 102.818C706.965 105.545 708.315 107.676 710.076 109.21C711.866 110.744 714.053 111.511 716.638 111.511Z" fill="white"/>
<path class="u" d="M642.511 127.236C635.636 127.236 629.727 125.83 624.783 123.017C619.869 120.176 616.076 116.227 613.406 111.17C610.763 106.085 609.442 100.19 609.442 93.4858C609.442 86.7528 610.763 80.858 613.406 75.8011C616.076 70.7159 619.869 66.767 624.783 63.9545C629.727 61.1136 635.636 59.6932 642.511 59.6932C649.386 59.6932 655.281 61.1136 660.195 63.9545C665.138 66.767 668.931 70.7159 671.573 75.8011C674.244 80.858 675.579 86.7528 675.579 93.4858C675.579 100.19 674.244 106.085 671.573 111.17C668.931 116.227 665.138 120.176 660.195 123.017C655.281 125.83 649.386 127.236 642.511 127.236ZM642.638 111.511C645.138 111.511 647.255 110.744 648.988 109.21C650.721 107.676 652.042 105.545 652.951 102.818C653.888 100.091 654.357 96.9375 654.357 93.358C654.357 89.7216 653.888 86.5398 652.951 83.8125C652.042 81.0852 650.721 78.9545 648.988 77.4205C647.255 75.8864 645.138 75.1193 642.638 75.1193C640.053 75.1193 637.866 75.8864 636.076 77.4205C634.315 78.9545 632.965 81.0852 632.028 83.8125C631.119 86.5398 630.664 89.7216 630.664 93.358C630.664 96.9375 631.119 100.091 632.028 102.818C632.965 105.545 634.315 107.676 636.076 109.21C637.866 110.744 640.053 111.511 642.638 111.511Z" fill="white"/>
<path class="e" d="M514.161 126L488.763 38.7273H512.073L525.241 95.9148H525.965L541.008 38.7273H560.013L575.056 96.0426H575.781L588.991 38.7273H612.258L586.903 126H566.576L550.852 73.0739H550.17L534.445 126H514.161Z" fill="white"/>
<path class="l" d="M171.558 126V60.5455H191.374V72.5625H192.098C193.462 68.5852 195.763 65.446 199.001 63.1449C202.24 60.8438 206.104 59.6932 210.592 59.6932C215.138 59.6932 219.03 60.858 222.268 63.1875C225.507 65.517 227.567 68.642 228.447 72.5625H229.129C230.351 68.6705 232.737 65.5597 236.288 63.2301C239.839 60.8722 244.03 59.6932 248.859 59.6932C255.053 59.6932 260.081 61.6818 263.945 65.6591C267.808 69.608 269.74 75.0341 269.74 81.9375V126H248.902V86.7102C248.902 83.4432 248.064 80.9574 246.388 79.2528C244.712 77.5199 242.538 76.6534 239.868 76.6534C236.999 76.6534 234.74 77.5909 233.092 79.4659C231.473 81.3125 230.663 83.7983 230.663 86.9233V126H210.635V86.4972C210.635 83.4574 209.811 81.0568 208.163 79.2955C206.516 77.5341 204.342 76.6534 201.643 76.6534C199.825 76.6534 198.22 77.0937 196.828 77.9744C195.436 78.8267 194.342 80.0483 193.547 81.6392C192.78 83.2301 192.396 85.1051 192.396 87.2642V126H171.558Z" fill="white"/>
<path class="w" d="M452.892 38.7273V126H432.054V38.7273H452.892Z" fill="white"/>
<path class="o" d="M386.549 127.236C379.703 127.236 373.794 125.886 368.822 123.188C363.879 120.46 360.072 116.582 357.402 111.554C354.76 106.497 353.439 100.489 353.439 93.5284C353.439 86.767 354.774 80.858 357.444 75.8011C360.115 70.7159 363.879 66.767 368.737 63.9545C373.595 61.1136 379.319 59.6932 385.91 59.6932C390.569 59.6932 394.831 60.4176 398.694 61.8665C402.558 63.3153 405.896 65.4602 408.708 68.3011C411.521 71.142 413.708 74.6506 415.271 78.8267C416.833 82.9744 417.615 87.733 417.615 93.1023V98.3011H360.725V86.1989H398.225C398.197 83.983 397.672 82.0085 396.649 80.2756C395.626 78.5426 394.22 77.1932 392.43 76.2273C390.669 75.233 388.637 74.7358 386.336 74.7358C384.007 74.7358 381.919 75.2614 380.072 76.3125C378.225 77.3352 376.762 78.7415 375.683 80.5312C374.603 82.2926 374.035 84.2955 373.978 86.5398V98.8551C373.978 101.526 374.504 103.869 375.555 105.886C376.606 107.875 378.098 109.423 380.029 110.531C381.961 111.639 384.262 112.193 386.933 112.193C388.779 112.193 390.456 111.937 391.961 111.426C393.467 110.915 394.76 110.162 395.839 109.168C396.919 108.173 397.728 106.952 398.268 105.503L417.402 106.057C416.606 110.347 414.859 114.082 412.16 117.264C409.49 120.418 405.981 122.875 401.635 124.636C397.288 126.369 392.26 127.236 386.549 127.236Z" fill="white"/>
<path class="o1" d="M324.191 97.7472V60.5455H344.986V126H325.128V113.812H324.446C322.998 117.818 320.526 121 317.032 123.358C313.566 125.687 309.375 126.852 304.461 126.852C300 126.852 296.08 125.83 292.699 123.784C289.319 121.739 286.691 118.884 284.816 115.219C282.941 111.526 281.989 107.207 281.961 102.264V60.5455H302.799V98.1733C302.827 101.724 303.765 104.523 305.611 106.568C307.458 108.614 309.972 109.636 313.154 109.636C315.228 109.636 317.088 109.182 318.736 108.273C320.412 107.335 321.733 105.986 322.699 104.224C323.694 102.435 324.191 100.276 324.191 97.7472Z" fill="white"/>
<path class="d" d="M120.401 127.108C116.224 127.108 112.517 126.412 109.278 125.02C106.068 123.599 103.526 121.469 101.651 118.628C99.804 115.759 98.8807 112.165 98.8807 107.847C98.8807 104.21 99.5199 101.142 100.798 98.642C102.077 96.142 103.838 94.1108 106.082 92.5483C108.327 90.9858 110.912 89.8068 113.838 89.0114C116.764 88.1875 119.889 87.6335 123.213 87.3494C126.935 87.0085 129.932 86.6534 132.205 86.2841C134.477 85.8864 136.125 85.3324 137.148 84.6222C138.199 83.8835 138.724 82.8466 138.724 81.5114V81.2983C138.724 79.1108 137.972 77.4205 136.466 76.2273C134.96 75.0341 132.929 74.4375 130.372 74.4375C127.616 74.4375 125.401 75.0341 123.724 76.2273C122.048 77.4205 120.983 79.0682 120.528 81.1705L101.31 80.4886C101.878 76.5114 103.341 72.9602 105.699 69.8352C108.085 66.6818 111.352 64.2102 115.5 62.4205C119.676 60.6023 124.69 59.6932 130.543 59.6932C134.719 59.6932 138.568 60.1903 142.091 61.1847C145.614 62.1506 148.682 63.571 151.295 65.446C153.909 67.2926 155.926 69.5653 157.347 72.2642C158.795 74.9631 159.52 78.0455 159.52 81.5114V126H139.918V116.881H139.406C138.241 119.097 136.75 120.972 134.932 122.506C133.142 124.04 131.026 125.19 128.582 125.957C126.168 126.724 123.44 127.108 120.401 127.108ZM126.835 113.472C129.08 113.472 131.097 113.017 132.886 112.108C134.705 111.199 136.153 109.949 137.233 108.358C138.313 106.739 138.852 104.864 138.852 102.733V96.5114C138.256 96.8239 137.531 97.108 136.679 97.3636C135.855 97.6193 134.946 97.8608 133.952 98.0881C132.957 98.3153 131.935 98.5142 130.884 98.6847C129.832 98.8551 128.824 99.0114 127.858 99.1534C125.898 99.4659 124.222 99.9489 122.83 100.602C121.466 101.256 120.415 102.108 119.676 103.159C118.966 104.182 118.611 105.403 118.611 106.824C118.611 108.983 119.378 110.631 120.912 111.767C122.474 112.903 124.449 113.472 126.835 113.472Z" fill="white"/>
</svg>
