<svg id="eJ8RtYXU9ni1" xmlns="http://www.w3.org/2000/svg" xmlns:xlink="http://www.w3.org/1999/xlink" viewBox="0 0 847 164" shape-rendering="geometricPrecision" text-rendering="geometricPrecision"><path id="eJ8RtYXU9ni2" d="M784.632,126.938c-4.829,0-9.218-1.25-13.167-3.75s-7.102-6.25-9.46-11.25-3.537-11.208-3.537-18.6227c0-7.6988,1.221-14.0341,3.664-19.0056c2.444-4.9716,5.64-8.6506,9.589-11.037c3.977-2.3863,8.252-3.5795,12.826-3.5795c3.438,0,6.378.5966,8.821,1.7898c2.443,1.1647,4.46,2.6704,6.051,4.517s2.799,3.7642,3.623,5.7528h.426v-33.0255h20.838v87.2727h-20.625v-10.611h-.639c-.881,2.017-2.131,3.906-3.75,5.668-1.62,1.761-3.651,3.182-6.094,4.261-2.415,1.08-5.27,1.62-8.566,1.62Zm7.245-16.236c2.528,0,4.687-.711,6.477-2.131c1.79-1.449,3.168-3.48,4.134-6.094.965-2.6134,1.448-5.6815,1.448-9.2043c0-3.5795-.483-6.6619-1.448-9.2471-.938-2.5853-2.316-4.5739-4.134-5.9659-1.79-1.3921-3.949-2.0881-6.477-2.0881-2.585,0-4.773.7102-6.563,2.1307-1.789,1.4204-3.153,3.4233-4.091,6.0085-.909,2.5852-1.363,5.6392-1.363,9.1619c0,3.5228.468,6.5909,1.406,9.2043.937,2.614,2.287,4.645,4.048,6.094c1.79,1.42,3.978,2.131,6.563,2.131Z" fill="#e4dff5"/><path id="eJ8RtYXU9ni3" d="M716.511,127.236c-6.875,0-12.784-1.406-17.728-4.219-4.914-2.841-8.707-6.79-11.377-11.847-2.643-5.085-3.964-10.98-3.964-17.6842c0-6.733,1.321-12.6278,3.964-17.6847c2.67-5.0852,6.463-9.0341,11.377-11.8466c4.944-2.8409,10.853-4.2613,17.728-4.2613s12.77,1.4204,17.684,4.2613c4.943,2.8125,8.736,6.7614,11.378,11.8466c2.671,5.0569,4.006,10.9517,4.006,17.6847c0,6.7042-1.335,12.5992-4.006,17.6842-2.642,5.057-6.435,9.006-11.378,11.847-4.914,2.813-10.809,4.219-17.684,4.219Zm.127-15.725c2.5,0,4.617-.767,6.35-2.301s3.054-3.665,3.963-6.392c.937-2.727,1.406-5.8805,1.406-9.46c0-3.6364-.469-6.8182-1.406-9.5455-.909-2.7273-2.23-4.858-3.963-6.392-1.733-1.5341-3.85-2.3012-6.35-2.3012-2.585,0-4.772.7671-6.562,2.3012-1.761,1.534-3.111,3.6647-4.048,6.392-.909,2.7273-1.364,5.9091-1.364,9.5455c0,3.5795.455,6.733,1.364,9.46.937,2.727,2.287,4.858,4.048,6.392c1.79,1.534,3.977,2.301,6.562,2.301Z" transform="matrix(1.05 0 0 1.05-35.825525-4.67323)" fill="#d5cfea"/><path id="eJ8RtYXU9ni4" d="M642.511,127.236c-6.875,0-12.784-1.406-17.728-4.219-4.914-2.841-8.707-6.79-11.377-11.847-2.643-5.085-3.964-10.98-3.964-17.6842c0-6.733,1.321-12.6278,3.964-17.6847c2.67-5.0852,6.463-9.0341,11.377-11.8466c4.944-2.8409,10.853-4.2613,17.728-4.2613s12.77,1.4204,17.684,4.2613c4.943,2.8125,8.736,6.7614,11.378,11.8466c2.671,5.0569,4.006,10.9517,4.006,17.6847c0,6.7042-1.335,12.5992-4.006,17.6842-2.642,5.057-6.435,9.006-11.378,11.847-4.914,2.813-10.809,4.219-17.684,4.219Zm.127-15.725c2.5,0,4.617-.767,6.35-2.301s3.054-3.665,3.963-6.392c.937-2.727,1.406-5.8805,1.406-9.46c0-3.6364-.469-6.8182-1.406-9.5455-.909-2.7273-2.23-4.858-3.963-6.392-1.733-1.5341-3.85-2.3012-6.35-2.3012-2.585,0-4.772.7671-6.562,2.3012-1.761,1.534-3.111,3.6647-4.048,6.392-.909,2.7273-1.364,5.9091-1.364,9.5455c0,3.5795.455,6.733,1.364,9.46.937,2.727,2.287,4.858,4.048,6.392c1.79,1.534,3.977,2.301,6.562,2.301Z" transform="matrix(1.05 0 0 1.05-32.125525-4.67323)" fill="#e4dff5"/><path id="eJ8RtYXU9ni5" d="M514.161,126L488.763,38.7273h23.31l13.168,57.1875h.724l15.043-57.1875h19.005l15.043,57.3153h.725l13.21-57.3153h23.267L586.903,126h-20.327L550.852,73.0739h-.682L534.445,126h-20.284Z" fill="#e4dff5"/><path id="eJ8RtYXU9ni6" d="M452.892,38.7273v87.2727h-20.838v-87.2727h20.838Z" transform="matrix(1.08 0 0 1.08-35.397839-6.589092)" fill="#e4dff5"/><path id="eJ8RtYXU9ni7" d="M386.549,127.236c-6.846,0-12.755-1.35-17.727-4.048-4.943-2.728-8.75-6.606-11.42-11.634-2.642-5.057-3.963-11.065-3.963-18.0256c0-6.7614,1.335-12.6704,4.005-17.7273c2.671-5.0852,6.435-9.0341,11.293-11.8466c4.858-2.8409,10.582-4.2613,17.173-4.2613c4.659,0,8.921.7244,12.784,2.1733c3.864,1.4488,7.202,3.5937,10.014,6.4346c2.813,2.8409,5,6.3495,6.563,10.5256c1.562,4.1477,2.344,8.9063,2.344,14.2756v5.1988h-56.89v-12.1022h37.5c-.028-2.2159-.553-4.1904-1.576-5.9233-1.023-1.733-2.429-3.0824-4.219-4.0483-1.761-.9943-3.793-1.4915-6.094-1.4915-2.329,0-4.417.5256-6.264,1.5767-1.847,1.0227-3.31,2.429-4.389,4.2187-1.08,1.7614-1.648,3.7643-1.705,6.0086v12.3153c0,2.6709.526,5.0139,1.577,7.0309c1.051,1.989,2.543,3.537,4.474,4.645c1.932,1.108,4.233,1.662,6.904,1.662c1.846,0,3.523-.256,5.028-.767c1.506-.511,2.799-1.264,3.878-2.258c1.08-.995,1.889-2.216,2.429-3.665l19.134.554c-.796,4.29-2.543,8.025-5.242,11.207-2.67,3.154-6.179,5.611-10.525,7.372-4.347,1.733-9.375,2.6-15.086,2.6Z" transform="matrix(1.05 0 0 1.05-19.27635-4.67323)" fill="#d5cfea"/><path id="eJ8RtYXU9ni8" d="M324.191,97.7472v-37.2017h20.795v65.4545h-19.858v-12.188h-.682c-1.448,4.006-3.92,7.188-7.414,9.546-3.466,2.329-7.657,3.494-12.571,3.494-4.461,0-8.381-1.022-11.762-3.068-3.38-2.045-6.008-4.9-7.883-8.565-1.875-3.693-2.827-8.012-2.855-12.955v-41.7185h20.838v37.6278c.028,3.5507.966,6.3497,2.812,8.3947c1.847,2.046,4.361,3.068,7.543,3.068c2.074,0,3.934-.454,5.582-1.363c1.676-.938,2.997-2.287,3.963-4.049.995-1.789,1.492-3.948,1.492-6.4768Z" transform="matrix(1.07 0 0 1.07-21.943145-6.558913)" fill="#e4dff5"/><path id="eJ8RtYXU9ni9" d="M171.558,126v-65.4545h19.816v12.017h.724c1.364-3.9773,3.665-7.1165,6.903-9.4176c3.239-2.3011,7.103-3.4517,11.591-3.4517c4.546,0,8.438,1.1648,11.676,3.4943c3.239,2.3295,5.299,5.4545,6.179,9.375h.682c1.222-3.892,3.608-7.0028,7.159-9.3324c3.551-2.3579,7.742-3.5369,12.571-3.5369c6.194,0,11.222,1.9886,15.086,5.9659c3.863,3.9489,5.795,9.375,5.795,16.2784v44.0625h-20.838v-39.2898c0-3.267-.838-5.7528-2.514-7.4574-1.676-1.7329-3.85-2.5994-6.52-2.5994-2.869,0-5.128.9375-6.776,2.8125-1.619,1.8466-2.429,4.3324-2.429,7.4574v39.0767h-20.028v-39.5028c0-3.0398-.824-5.4404-2.472-7.2017-1.647-1.7614-3.821-2.6421-6.52-2.6421-1.818,0-3.423.4403-4.815,1.321-1.392.8523-2.486,2.0739-3.281,3.6648-.767,1.5909-1.151,3.4659-1.151,5.625v38.7358h-20.838Z" transform="matrix(1.1 0 0 1.1-22.064899-9.28466)" fill="#d5cfea"/><path id="eJ8RtYXU9ni10" d="M120.401,127.108c-4.177,0-7.884-.696-11.123-2.088-3.21-1.421-5.752-3.551-7.627-6.392-1.847-2.869-2.7703-6.463-2.7703-10.781c0-3.637.6392-6.705,1.9173-9.205c1.279-2.5,3.04-4.5312,5.284-6.0937c2.245-1.5625,4.83-2.7415,7.756-3.5369c2.926-.8239,6.051-1.3779,9.375-1.662c3.722-.3409,6.719-.696,8.992-1.0653c2.272-.3977,3.92-.9517,4.943-1.6619c1.051-.7387,1.576-1.7756,1.576-3.1108v-.2131c0-2.1875-.752-3.8778-2.258-5.071s-3.537-1.7898-6.094-1.7898c-2.756,0-4.971.5966-6.648,1.7898-1.676,1.1932-2.741,2.8409-3.196,4.9432l-19.218-.6819c.568-3.9772,2.031-7.5284,4.389-10.6534c2.386-3.1534,5.653-5.625,9.801-7.4147c4.176-1.8182,9.19-2.7273,15.043-2.7273c4.176,0,8.025.4971,11.548,1.4915c3.523.9659,6.591,2.3863,9.204,4.2613c2.614,1.8466,4.631,4.1193,6.052,6.8182c1.448,2.6989,2.173,5.7813,2.173,9.2472v44.4886h-19.602v-9.119h-.512c-1.165,2.216-2.656,4.091-4.474,5.625-1.79,1.534-3.906,2.684-6.35,3.451-2.414.767-5.142,1.151-8.181,1.151Zm6.434-13.636c2.245,0,4.262-.455,6.051-1.364c1.819-.909,3.267-2.159,4.347-3.75c1.08-1.619,1.619-3.494,1.619-5.625v-6.2216c-.596.3125-1.321.5966-2.173.8522-.824.2557-1.733.4972-2.727.7245-.995.2272-2.017.4261-3.068.5966-1.052.1704-2.06.3267-3.026.4687-1.96.3125-3.636.7955-5.028,1.4486-1.364.654-2.415,1.506-3.154,2.557-.71,1.023-1.065,2.244-1.065,3.665c0,2.159.767,3.807,2.301,4.943c1.562,1.136,3.537,1.705,5.923,1.705Z" fill="#e4dff5"/><path id="eJ8RtYXU9ni11" d="M68.669,64.892c-.2841-3.125-1.5483-5.5539-3.7926-7.2869-2.2159-1.7613-5.3835-2.642-9.5028-2.642-2.7273,0-5,.3551-6.8182,1.0653s-3.1818,1.6904-4.0909,2.9404c-.9091,1.2215-1.3779,2.6278-1.4063,4.2187-.0568,1.3068.1989,2.4574.7671,3.4517.5966.9943,1.4488,1.875,2.5568,2.642c1.1364.7387,2.5,1.3921,4.0909,1.9603s3.3807,1.0653,5.3693,1.4915l7.5,1.7045c4.3182.9375,8.125,2.1875,11.4205,3.75c3.3239,1.5625,6.1079,3.4233,8.3523,5.5824c2.2727,2.1591,3.9914,4.6449,5.1562,7.4574s1.7614,5.9659,1.7898,9.4607c-.0284,5.511-1.4205,10.241-4.1762,14.19-2.7556,3.949-6.7187,6.974-11.8892,9.077-5.142,2.102-11.3494,3.153-18.6221,3.153-7.3012,0-13.6648-1.094-19.0909-3.281-5.4262-2.188-9.6449-5.512-12.6563-9.972s-4.5596-10.099-4.6449-16.9175h20.1989c.1705,2.8125.9233,5.1565,2.2585,7.0315s3.1676,3.295,5.4972,4.261c2.3579.966,5.0852,1.449,8.1818,1.449c2.8409,0,5.2557-.384,7.2443-1.151c2.0171-.767,3.5654-1.832,4.6449-3.196c1.0795-1.363,1.6335-2.926,1.6619-4.687-.0284-1.6478-.5397-3.0541-1.5341-4.2189-.9943-1.1931-2.5284-2.2159-4.6022-3.0681-2.0455-.8807-4.6591-1.6904-7.8409-2.429l-9.1194-2.1307c-7.5568-1.733-13.5085-4.5313-17.8551-8.3949-4.3466-3.892-6.5057-9.1477-6.4772-15.767-.0285-5.3978,1.4204-10.1279,4.3465-14.1904s6.9745-7.2301,12.1449-9.5028c5.1705-2.2727,11.0654-3.4091,17.6847-3.4091c6.7614,0,12.6278,1.1506,17.5994,3.4517c5,2.2727,8.8779,5.4687,11.6336,9.5881c2.7556,4.1193,4.1619,8.892,4.2187,14.3181h-20.1989Z" fill="#e4dff5"/>
<script><![CDATA[
!function(t,n){"object"==typeof exports&&"undefined"!=typeof module?module.exports=n():"function"==typeof __SVGATOR_DEFINE__&&__SVGATOR_DEFINE__.amd?__SVGATOR_DEFINE__(n):((t="undefined"!=typeof globalThis?globalThis:t||self).__SVGATOR_PLAYER__=t.__SVGATOR_PLAYER__||{},t.__SVGATOR_PLAYER__["5c7f360c"]=n())}(this,(function(){"use strict";function t(t,n){var e=Object.keys(t);if(Object.getOwnPropertySymbols){var r=Object.getOwnPropertySymbols(t);n&&(r=r.filter((function(n){return Object.getOwnPropertyDescriptor(t,n).enumerable}))),e.push.apply(e,r)}return e}function n(n){for(var e=1;e<arguments.length;e++){var r=null!=arguments[e]?arguments[e]:{};e%2?t(Object(r),!0).forEach((function(t){o(n,t,r[t])})):Object.getOwnPropertyDescriptors?Object.defineProperties(n,Object.getOwnPropertyDescriptors(r)):t(Object(r)).forEach((function(t){Object.defineProperty(n,t,Object.getOwnPropertyDescriptor(r,t))}))}return n}function e(t){return(e="function"==typeof Symbol&&"symbol"==typeof Symbol.iterator?function(t){return typeof t}:function(t){return t&&"function"==typeof Symbol&&t.constructor===Symbol&&t!==Symbol.prototype?"symbol":typeof t})(t)}function r(t,n){if(!(t instanceof n))throw new TypeError("Cannot call a class as a function")}function i(t,n){for(var e=0;e<n.length;e++){var r=n[e];r.enumerable=r.enumerable||!1,r.configurable=!0,"value"in r&&(r.writable=!0),Object.defineProperty(t,r.key,r)}}function u(t,n,e){return n&&i(t.prototype,n),e&&i(t,e),t}function o(t,n,e){return n in t?Object.defineProperty(t,n,{value:e,enumerable:!0,configurable:!0,writable:!0}):t[n]=e,t}function a(t){return(a=Object.setPrototypeOf?Object.getPrototypeOf:function(t){return t.__proto__||Object.getPrototypeOf(t)})(t)}function l(t,n){return(l=Object.setPrototypeOf||function(t,n){return t.__proto__=n,t})(t,n)}function s(){if("undefined"==typeof Reflect||!Reflect.construct)return!1;if(Reflect.construct.sham)return!1;if("function"==typeof Proxy)return!0;try{return Boolean.prototype.valueOf.call(Reflect.construct(Boolean,[],(function(){}))),!0}catch(t){return!1}}function f(t,n,e){return(f=s()?Reflect.construct:function(t,n,e){var r=[null];r.push.apply(r,n);var i=new(Function.bind.apply(t,r));return e&&l(i,e.prototype),i}).apply(null,arguments)}function c(t,n){if(n&&("object"==typeof n||"function"==typeof n))return n;if(void 0!==n)throw new TypeError("Derived constructors may only return object or undefined");return function(t){if(void 0===t)throw new ReferenceError("this hasn't been initialised - super() hasn't been called");return t}(t)}function h(t,n,e){return(h="undefined"!=typeof Reflect&&Reflect.get?Reflect.get:function(t,n,e){var r=function(t,n){for(;!Object.prototype.hasOwnProperty.call(t,n)&&null!==(t=a(t)););return t}(t,n);if(r){var i=Object.getOwnPropertyDescriptor(r,n);return i.get?i.get.call(e):i.value}})(t,n,e||t)}function v(t){return function(t){if(Array.isArray(t))return y(t)}(t)||function(t){if("undefined"!=typeof Symbol&&null!=t[Symbol.iterator]||null!=t["@@iterator"])return Array.from(t)}(t)||function(t,n){if(!t)return;if("string"==typeof t)return y(t,n);var e=Object.prototype.toString.call(t).slice(8,-1);"Object"===e&&t.constructor&&(e=t.constructor.name);if("Map"===e||"Set"===e)return Array.from(t);if("Arguments"===e||/^(?:Ui|I)nt(?:8|16|32)(?:Clamped)?Array$/.test(e))return y(t,n)}(t)||function(){throw new TypeError("Invalid attempt to spread non-iterable instance.\nIn order to be iterable, non-array objects must have a [Symbol.iterator]() method.")}()}function y(t,n){(null==n||n>t.length)&&(n=t.length);for(var e=0,r=new Array(n);e<n;e++)r[e]=t[e];return r}Number.isInteger||(Number.isInteger=function(t){return"number"==typeof t&&isFinite(t)&&Math.floor(t)===t}),Number.EPSILON||(Number.EPSILON=2220446049250313e-31);var g=p(Math.pow(10,-6));function p(t){var n=arguments.length>1&&void 0!==arguments[1]?arguments[1]:6;if(Number.isInteger(t))return t;var e=Math.pow(10,n);return Math.round((+t+Number.EPSILON)*e)/e}function d(t,n){var e=arguments.length>2&&void 0!==arguments[2]?arguments[2]:g;return Math.abs(t-n)<e}var m=Math.PI/180;function b(t){return t}function w(t,n,e){var r=1-e;return 3*e*r*(t*r+n*e)+e*e*e}function A(){var t=arguments.length>0&&void 0!==arguments[0]?arguments[0]:0,n=arguments.length>1&&void 0!==arguments[1]?arguments[1]:0,e=arguments.length>2&&void 0!==arguments[2]?arguments[2]:1,r=arguments.length>3&&void 0!==arguments[3]?arguments[3]:1;return t<0||t>1||e<0||e>1?null:d(t,n)&&d(e,r)?b:function(i){if(i<=0)return t>0?i*n/t:0===n&&e>0?i*r/e:0;if(i>=1)return e<1?1+(i-1)*(r-1)/(e-1):1===e&&t<1?1+(i-1)*(n-1)/(t-1):1;for(var u,o=0,a=1;o<a;){var l=w(t,e,u=(o+a)/2);if(d(i,l))break;l<i?o=u:a=u}return w(n,r,u)}}function _(){return 1}function x(t){return 1===t?1:0}function k(){var t=arguments.length>0&&void 0!==arguments[0]?arguments[0]:1,n=arguments.length>1&&void 0!==arguments[1]?arguments[1]:0;if(1===t){if(0===n)return x;if(1===n)return _}var e=1/t;return function(t){return t>=1?1:(t+=n*e)-t%e}}var S=Math.sin,O=Math.cos,j=Math.acos,E=Math.asin,M=Math.tan,P=Math.atan2,I=Math.PI/180,R=180/Math.PI,F=Math.sqrt,N=function(){function t(){var n=arguments.length>0&&void 0!==arguments[0]?arguments[0]:1,e=arguments.length>1&&void 0!==arguments[1]?arguments[1]:0,i=arguments.length>2&&void 0!==arguments[2]?arguments[2]:0,u=arguments.length>3&&void 0!==arguments[3]?arguments[3]:1,o=arguments.length>4&&void 0!==arguments[4]?arguments[4]:0,a=arguments.length>5&&void 0!==arguments[5]?arguments[5]:0;r(this,t),this.m=[n,e,i,u,o,a],this.i=null,this.w=null,this.s=null}return u(t,[{key:"determinant",get:function(){var t=this.m;return t[0]*t[3]-t[1]*t[2]}},{key:"isIdentity",get:function(){if(null===this.i){var t=this.m;this.i=1===t[0]&&0===t[1]&&0===t[2]&&1===t[3]&&0===t[4]&&0===t[5]}return this.i}},{key:"point",value:function(t,n){var e=this.m;return{x:e[0]*t+e[2]*n+e[4],y:e[1]*t+e[3]*n+e[5]}}},{key:"translateSelf",value:function(){var t=arguments.length>0&&void 0!==arguments[0]?arguments[0]:0,n=arguments.length>1&&void 0!==arguments[1]?arguments[1]:0;if(!t&&!n)return this;var e=this.m;return e[4]+=e[0]*t+e[2]*n,e[5]+=e[1]*t+e[3]*n,this.w=this.s=this.i=null,this}},{key:"rotateSelf",value:function(){var t=arguments.length>0&&void 0!==arguments[0]?arguments[0]:0;if(t%=360){var n=S(t*=I),e=O(t),r=this.m,i=r[0],u=r[1];r[0]=i*e+r[2]*n,r[1]=u*e+r[3]*n,r[2]=r[2]*e-i*n,r[3]=r[3]*e-u*n,this.w=this.s=this.i=null}return this}},{key:"scaleSelf",value:function(){var t=arguments.length>0&&void 0!==arguments[0]?arguments[0]:1,n=arguments.length>1&&void 0!==arguments[1]?arguments[1]:1;if(1!==t||1!==n){var e=this.m;e[0]*=t,e[1]*=t,e[2]*=n,e[3]*=n,this.w=this.s=this.i=null}return this}},{key:"skewSelf",value:function(t,n){if(n%=360,(t%=360)||n){var e=this.m,r=e[0],i=e[1],u=e[2],o=e[3];t&&(t=M(t*I),e[2]+=r*t,e[3]+=i*t),n&&(n=M(n*I),e[0]+=u*n,e[1]+=o*n),this.w=this.s=this.i=null}return this}},{key:"resetSelf",value:function(){var t=arguments.length>0&&void 0!==arguments[0]?arguments[0]:1,n=arguments.length>1&&void 0!==arguments[1]?arguments[1]:0,e=arguments.length>2&&void 0!==arguments[2]?arguments[2]:0,r=arguments.length>3&&void 0!==arguments[3]?arguments[3]:1,i=arguments.length>4&&void 0!==arguments[4]?arguments[4]:0,u=arguments.length>5&&void 0!==arguments[5]?arguments[5]:0,o=this.m;return o[0]=t,o[1]=n,o[2]=e,o[3]=r,o[4]=i,o[5]=u,this.w=this.s=this.i=null,this}},{key:"recomposeSelf",value:function(){var t=arguments.length>0&&void 0!==arguments[0]?arguments[0]:null,n=arguments.length>1&&void 0!==arguments[1]?arguments[1]:null,e=arguments.length>2&&void 0!==arguments[2]?arguments[2]:null,r=arguments.length>3&&void 0!==arguments[3]?arguments[3]:null,i=arguments.length>4&&void 0!==arguments[4]?arguments[4]:null;return this.isIdentity||this.resetSelf(),t&&(t.x||t.y)&&this.translateSelf(t.x,t.y),n&&this.rotateSelf(n),e&&(e.x&&this.skewSelf(e.x,0),e.y&&this.skewSelf(0,e.y)),!r||1===r.x&&1===r.y||this.scaleSelf(r.x,r.y),i&&(i.x||i.y)&&this.translateSelf(i.x,i.y),this}},{key:"decompose",value:function(){var t=arguments.length>0&&void 0!==arguments[0]?arguments[0]:0,n=arguments.length>1&&void 0!==arguments[1]?arguments[1]:0,e=this.m,r=e[0]*e[0]+e[1]*e[1],i=[[e[0],e[1]],[e[2],e[3]]],u=F(r);if(0===u)return{origin:{x:p(e[4]),y:p(e[5])},translate:{x:p(t),y:p(n)},scale:{x:0,y:0},skew:{x:0,y:0},rotate:0};i[0][0]/=u,i[0][1]/=u;var o=e[0]*e[3]-e[1]*e[2]<0;o&&(u=-u);var a=i[0][0]*i[1][0]+i[0][1]*i[1][1];i[1][0]-=i[0][0]*a,i[1][1]-=i[0][1]*a;var l=F(i[1][0]*i[1][0]+i[1][1]*i[1][1]);if(0===l)return{origin:{x:p(e[4]),y:p(e[5])},translate:{x:p(t),y:p(n)},scale:{x:p(u),y:0},skew:{x:0,y:0},rotate:0};i[1][0]/=l,i[1][1]/=l,a/=l;var s=0;return i[1][1]<0?(s=j(i[1][1])*R,i[0][1]<0&&(s=360-s)):s=E(i[0][1])*R,o&&(s=-s),a=P(a,F(i[0][0]*i[0][0]+i[0][1]*i[0][1]))*R,o&&(a=-a),{origin:{x:p(e[4]),y:p(e[5])},translate:{x:p(t),y:p(n)},scale:{x:p(u),y:p(l)},skew:{x:p(a),y:0},rotate:p(s)}}},{key:"clone",value:function(){var t=this.m;return new this.constructor(t[0],t[1],t[2],t[3],t[4],t[5])}},{key:"toString",value:function(){var t=arguments.length>0&&void 0!==arguments[0]?arguments[0]:" ";if(null===this.s){var n=this.m.map((function(t){return p(t)}));1===n[0]&&0===n[1]&&0===n[2]&&1===n[3]?this.s="translate("+n[4]+t+n[5]+")":this.s="matrix("+n.join(t)+")"}return this.s}}],[{key:"create",value:function(t){return t?Array.isArray(t)?f(this,v(t)):t instanceof this?t.clone():(new this).recomposeSelf(t.origin,t.rotate,t.skew,t.scale,t.translate):new this}}]),t}();function T(t,n,e){return t>=.5?e:n}function q(t,n,e){return 0===t||n===e?n:t*(e-n)+n}function B(t,n,e){var r=q(t,n,e);return r<=0?0:r}function D(t,n,e){var r=q(t,n,e);return r<=0?0:r>=1?1:r}function L(t,n,e){return 0===t?n:1===t?e:{x:q(t,n.x,e.x),y:q(t,n.y,e.y)}}function C(t,n,e){var r=function(t,n,e){return Math.round(q(t,n,e))}(t,n,e);return r<=0?0:r>=255?255:r}function V(t,n,e){return 0===t?n:1===t?e:{r:C(t,n.r,e.r),g:C(t,n.g,e.g),b:C(t,n.b,e.b),a:q(t,null==n.a?1:n.a,null==e.a?1:e.a)}}function G(t,n){for(var e=[],r=0;r<t;r++)e.push(n);return e}function z(t,n){if(--n<=0)return t;var e=(t=Object.assign([],t)).length;do{for(var r=0;r<e;r++)t.push(t[r])}while(--n>0);return t}var Y,$=function(){function t(n){r(this,t),this.list=n,this.length=n.length}return u(t,[{key:"setAttribute",value:function(t,n){for(var e=this.list,r=0;r<this.length;r++)e[r].setAttribute(t,n)}},{key:"removeAttribute",value:function(t){for(var n=this.list,e=0;e<this.length;e++)n[e].removeAttribute(t)}},{key:"style",value:function(t,n){for(var e=this.list,r=0;r<this.length;r++)e[r].style[t]=n}}]),t}(),U=/-./g,Q=function(t,n){return n.toUpperCase()};function H(t){return"function"==typeof t?t:T}function J(t){return t?"function"==typeof t?t:Array.isArray(t)?function(t){var n=arguments.length>1&&void 0!==arguments[1]?arguments[1]:b;if(!Array.isArray(t))return n;switch(t.length){case 1:return k(t[0])||n;case 2:return k(t[0],t[1])||n;case 4:return A(t[0],t[1],t[2],t[3])||n}return n}(t,null):function(t,n){var e=arguments.length>2&&void 0!==arguments[2]?arguments[2]:b;switch(t){case"linear":return b;case"steps":return k(n.steps||1,n.jump||0)||e;case"bezier":case"cubic-bezier":return A(n.x1||0,n.y1||0,n.x2||0,n.y2||0)||e}return e}(t.type,t.value,null):null}function Z(t,n,e){var r=arguments.length>3&&void 0!==arguments[3]&&arguments[3],i=n.length-1;if(t<=n[0].t)return r?[0,0,n[0].v]:n[0].v;if(t>=n[i].t)return r?[i,1,n[i].v]:n[i].v;var u,o=n[0],a=null;for(u=1;u<=i;u++){if(!(t>n[u].t)){a=n[u];break}o=n[u]}return null==a?r?[i,1,n[i].v]:n[i].v:o.t===a.t?r?[u,1,a.v]:a.v:(t=(t-o.t)/(a.t-o.t),o.e&&(t=o.e(t)),r?[u,t,e(t,o.v,a.v)]:e(t,o.v,a.v))}function K(t,n){var e=arguments.length>2&&void 0!==arguments[2]?arguments[2]:null;return t&&t.length?"function"!=typeof n?null:("function"!=typeof e&&(e=null),function(r){var i=Z(r,t,n);return null!=i&&e&&(i=e(i)),i}):null}function W(t,n){return t.t-n.t}function X(t,n,r,i,u){var o,a="@"===r[0],l="#"===r[0],s=Y[r],f=T;switch(a?(o=r.substr(1),r=o.replace(U,Q)):l&&(r=r.substr(1)),e(s)){case"function":if(f=s(i,u,Z,J,r,a,n,t),l)return f;break;case"string":f=K(i,H(s));break;case"object":if((f=K(i,H(s.i),s.f))&&"function"==typeof s.u)return s.u(n,f,r,a,t)}return f?function(t,n,e){if(arguments.length>3&&void 0!==arguments[3]&&arguments[3])return t instanceof $?function(r){return t.style(n,e(r))}:function(r){return t.style[n]=e(r)};if(Array.isArray(n)){var r=n.length;return function(i){var u=e(i);if(null==u)for(var o=0;o<r;o++)t[o].removeAttribute(n);else for(var a=0;a<r;a++)t[a].setAttribute(n,u)}}return function(r){var i=e(r);null==i?t.removeAttribute(n):t.setAttribute(n,i)}}(n,r,f,a):null}function tt(t,n,r,i){if(!i||"object"!==e(i))return null;var u=null,o=null;return Array.isArray(i)?o=function(t){if(!t||!t.length)return null;for(var n=0;n<t.length;n++)t[n].e&&(t[n].e=J(t[n].e));return t.sort(W)}(i):(o=i.keys,u=i.data||null),o?X(t,n,r,o,u):null}function nt(t,n,e){if(!e)return null;var r=[];for(var i in e)if(e.hasOwnProperty(i)){var u=tt(t,n,i,e[i]);u&&r.push(u)}return r.length?r:null}function et(t,n){if(!n.settings.duration||n.settings.duration<0)return null;var e,r,i,u,o,a=function(t,n){if(!n)return null;var e=[];if(Array.isArray(n))for(var r=n.length,i=0;i<r;i++){var u=n[i];if(2===u.length){var o=null;if("string"==typeof u[0])o=t.getElementById(u[0]);else if(Array.isArray(u[0])){o=[];for(var a=0;a<u[0].length;a++)if("string"==typeof u[0][a]){var l=t.getElementById(u[0][a]);l&&o.push(l)}o=o.length?1===o.length?o[0]:new $(o):null}if(o){var s=nt(t,o,u[1]);s&&(e=e.concat(s))}}}else for(var f in n)if(n.hasOwnProperty(f)){var c=t.getElementById(f);if(c){var h=nt(t,c,n[f]);h&&(e=e.concat(h))}}return e.length?e:null}(t,n.elements);return a?(e=a,r=n.settings,i=r.duration,u=e.length,o=null,function(t,n){var a=r.iterations||1/0,l=(r.alternate&&a%2==0)^r.direction>0?i:0,s=t%i,f=1+(t-s)/i;n*=r.direction,r.alternate&&f%2==0&&(n=-n);var c=!1;if(f>a)s=l,c=!0,-1===r.fill&&(s=r.direction>0?0:i);else if(n<0&&(s=i-s),s===o)return!1;o=s;for(var h=0;h<u;h++)e[h](s);return c}):null}function rt(t,n){if(Y=n,!t||!t.root||!Array.isArray(t.animations))return null;var e=function(t){for(var n=document.getElementsByTagName("svg"),e=0;e<n.length;e++)if(n[e].id===t.root&&!n[e].svgatorAnimation)return n[e].svgatorAnimation=!0,n[e];return null}(t);if(!e)return null;var r=t.animations.map((function(t){return et(e,t)})).filter((function(t){return!!t}));return r.length?{svg:e,animations:r,animationSettings:t.animationSettings,options:t.options||void 0}:null}function it(t){return+("0x"+(t.replace(/[^0-9a-fA-F]+/g,"")||27))}function ut(t,n,e){return!t||!e||n>t.length?t:t.substring(0,n)+ut(t.substring(n+1),e,e)}function ot(t){var n=arguments.length>1&&void 0!==arguments[1]?arguments[1]:27;return!t||t%n?t%n:ot(t/n,n)}function at(t,n,e){if(t&&t.length){var r=it(e),i=it(n),u=ot(r)+5,o=ut(t,ot(r,5),u);return o=o.replace(/\x7c$/g,"==").replace(/\x2f$/g,"="),o=function(t,n,e){var r=+("0x"+t.substring(0,4));t=t.substring(4);for(var i=n%r+e%27,u=[],o=0;o<t.length;o+=2)if("|"!==t[o]){var a=+("0x"+t[o]+t[o+1])-i;u.push(a)}else{var l=+("0x"+t.substring(o+1,o+1+4))-i;o+=3,u.push(l)}return String.fromCharCode.apply(String,u)}(o=(o=atob(o)).replace(/[\x41-\x5A]/g,""),i,r),o=JSON.parse(o)}}var lt=[{key:"alternate",def:!1},{key:"fill",def:1},{key:"iterations",def:0},{key:"direction",def:1},{key:"speed",def:1},{key:"fps",def:100}],st=function(){function t(n,e){var i=this,u=arguments.length>2&&void 0!==arguments[2]?arguments[2]:null;r(this,t),this._id=0,this._running=!1,this._rollingBack=!1,this._animations=n,this._settings=e,(!u||u<"2022-05-02")&&delete this._settings.speed,lt.forEach((function(t){i._settings[t.key]=i._settings[t.key]||t.def})),this.duration=e.duration,this.offset=e.offset||0,this.rollbackStartOffset=0}return u(t,[{key:"alternate",get:function(){return this._settings.alternate}},{key:"fill",get:function(){return this._settings.fill}},{key:"iterations",get:function(){return this._settings.iterations}},{key:"direction",get:function(){return this._settings.direction}},{key:"speed",get:function(){return this._settings.speed}},{key:"fps",get:function(){return this._settings.fps}},{key:"maxFiniteDuration",get:function(){return this.iterations>0?this.iterations*this.duration:this.duration}},{key:"_apply",value:function(t){for(var n=arguments.length>1&&void 0!==arguments[1]?arguments[1]:{},e=this._animations,r=e.length,i=0,u=0;u<r;u++)n[u]?i++:(n[u]=e[u](t,1),n[u]&&i++);return i}},{key:"_rollback",value:function(t){var n=this,e=1/0,r=null;this.rollbackStartOffset=t,this._rollingBack=!0,this._running=!0;this._id=window.requestAnimationFrame((function i(u){if(n._rollingBack){null==r&&(r=u);var o=Math.round(t-(u-r)*n.speed);if(o>n.duration&&e!==1/0){var a=!!n.alternate&&o/n.duration%2>1,l=o%n.duration;o=(l+=a?n.duration:0)||n.duration}var s=(n.fps?1e3/n.fps:0)*n.speed,f=Math.max(0,o);f<=e-s&&(n.offset=f,e=f,n._apply(f));var c=n.iterations>0&&-1===n.fill&&o>=n.maxFiniteDuration;(o<=0||n.offset<o||c)&&n.stop(),n._id=window.requestAnimationFrame(i)}}))}},{key:"_start",value:function(){var t=this,n=arguments.length>0&&void 0!==arguments[0]?arguments[0]:0,e=-1/0,r=null,i={};this._running=!0;var u=function u(o){null==r&&(r=o);var a=Math.round((o-r)*t.speed+n),l=(t.fps?1e3/t.fps:0)*t.speed;if(a>=e+l&&!t._rollingBack&&(t.offset=a,e=a,t._apply(a,i)===t._animations.length))return void t.pause(!0);t._id=window.requestAnimationFrame(u)};this._id=window.requestAnimationFrame(u)}},{key:"_pause",value:function(){this._id&&window.cancelAnimationFrame(this._id),this._running=!1}},{key:"play",value:function(){if(!this._running)return this._rollingBack?this._rollback(this.offset):this._start(this.offset)}},{key:"stop",value:function(){this._pause(),this.offset=0,this.rollbackStartOffset=0,this._rollingBack=!1,this._apply(0)}},{key:"reachedToEnd",value:function(){return this.iterations>0&&this.offset>=this.iterations*this.duration}},{key:"restart",value:function(){var t=arguments.length>0&&void 0!==arguments[0]&&arguments[0];this.stop(t),this.play(t)}},{key:"pause",value:function(){this._pause()}},{key:"reverse",value:function(){this.direction=-this.direction}}],[{key:"build",value:function(t,n){delete t.animationSettings,t.options=at(t.options,t.root,"5c7f360c"),t.animations.map((function(n){n.settings=at(n.s,t.root,"5c7f360c"),delete n.s,t.animationSettings||(t.animationSettings=n.settings)}));var e=t.version;if(!(t=rt(t,n)))return null;var r=t.options||{},i=new this(t.animations,t.animationSettings,e);return{el:t.svg,options:r,player:i}}},{key:"push",value:function(t){return this.build(t)}},{key:"init",value:function(){var t=this,n=window.__SVGATOR_PLAYER__&&window.__SVGATOR_PLAYER__["5c7f360c"];Array.isArray(n)&&n.splice(0).forEach((function(n){return t.build(n)}))}}]),t}();function ft(t){return p(t)+""}function ct(t){var n=arguments.length>1&&void 0!==arguments[1]?arguments[1]:" ";return t&&t.length?t.map(ft).join(n):""}function ht(t){if(!t)return"transparent";if(null==t.a||t.a>=1){var n=function(t){return 1===(t=parseInt(t).toString(16)).length?"0"+t:t},e=function(t){return t.charAt(0)===t.charAt(1)},r=n(t.r),i=n(t.g),u=n(t.b);return e(r)&&e(i)&&e(u)&&(r=r.charAt(0),i=i.charAt(0),u=u.charAt(0)),"#"+r+i+u}return"rgba("+t.r+","+t.g+","+t.b+","+t.a+")"}function vt(t){return t?"url(#"+t+")":"none"}!function(){for(var t=0,n=["ms","moz","webkit","o"],e=0;e<n.length&&!window.requestAnimationFrame;++e)window.requestAnimationFrame=window[n[e]+"RequestAnimationFrame"],window.cancelAnimationFrame=window[n[e]+"CancelAnimationFrame"]||window[n[e]+"CancelRequestAnimationFrame"];window.requestAnimationFrame||(window.requestAnimationFrame=function(n){var e=Date.now(),r=Math.max(0,16-(e-t)),i=window.setTimeout((function(){n(e+r)}),r);return t=e+r,i},window.cancelAnimationFrame=window.clearTimeout)}();var yt={f:null,i:function(t,n,e){return 0===t?n:1===t?e:{x:B(t,n.x,e.x),y:B(t,n.y,e.y)}},u:function(t,n){return function(e){var r=n(e);t.setAttribute("rx",ft(r.x)),t.setAttribute("ry",ft(r.y))}}},gt={f:null,i:function(t,n,e){return 0===t?n:1===t?e:{width:B(t,n.width,e.width),height:B(t,n.height,e.height)}},u:function(t,n){return function(e){var r=n(e);t.setAttribute("width",ft(r.width)),t.setAttribute("height",ft(r.height))}}};Object.freeze({M:2,L:2,Z:0,H:1,V:1,C:6,Q:4,T:2,S:4,A:7});var pt={},dt=null;function mt(t){var n=function(){if(dt)return dt;if("object"!==("undefined"==typeof document?"undefined":e(document))||!document.createElementNS)return{};var t=document.createElementNS("http://www.w3.org/2000/svg","svg");return t&&t.style?(t.style.position="absolute",t.style.opacity="0.01",t.style.zIndex="-9999",t.style.left="-9999px",t.style.width="1px",t.style.height="1px",dt={svg:t}):{}}().svg;if(!n)return function(t){return null};var r=document.createElementNS(n.namespaceURI,"path");r.setAttributeNS(null,"d",t),r.setAttributeNS(null,"fill","none"),r.setAttributeNS(null,"stroke","none"),n.appendChild(r);var i=r.getTotalLength();return function(t){var n=r.getPointAtLength(i*t);return{x:n.x,y:n.y}}}function bt(t){return pt[t]?pt[t]:pt[t]=mt(t)}function wt(t,n,e,r){if(!t||!r)return!1;var i=["M",t.x,t.y];if(n&&e&&(i.push("C"),i.push(n.x),i.push(n.y),i.push(e.x),i.push(e.y)),n?!e:e){var u=n||e;i.push("Q"),i.push(u.x),i.push(u.y)}return n||e||i.push("L"),i.push(r.x),i.push(r.y),i.join(" ")}function At(t,n,e,r){var i=arguments.length>4&&void 0!==arguments[4]?arguments[4]:1,u=wt(t,n,e,r),o=bt(u);try{return o(i)}catch(t){return null}}function _t(t,n,e){return t+(n-t)*e}function xt(t,n,e){var r=arguments.length>3&&void 0!==arguments[3]&&arguments[3],i={x:_t(t.x,n.x,e),y:_t(t.y,n.y,e)};return r&&(i.a=kt(t,n)),i}function kt(t,n){return Math.atan2(n.y-t.y,n.x-t.x)}function St(t,n,e,r){var i=1-r;return i*i*t+2*i*r*n+r*r*e}function Ot(t,n,e,r){return 2*(1-r)*(n-t)+2*r*(e-n)}function jt(t,n,e,r){var i=arguments.length>4&&void 0!==arguments[4]&&arguments[4],u=At(t,n,null,e,r);return u||(u={x:St(t.x,n.x,e.x,r),y:St(t.y,n.y,e.y,r)}),i&&(u.a=Et(t,n,e,r)),u}function Et(t,n,e,r){return Math.atan2(Ot(t.y,n.y,e.y,r),Ot(t.x,n.x,e.x,r))}function Mt(t,n,e,r,i){var u=i*i;return i*u*(r-t+3*(n-e))+3*u*(t+e-2*n)+3*i*(n-t)+t}function Pt(t,n,e,r,i){var u=1-i;return 3*(u*u*(n-t)+2*u*i*(e-n)+i*i*(r-e))}function It(t,n,e,r,i){var u=arguments.length>5&&void 0!==arguments[5]&&arguments[5],o=At(t,n,e,r,i);return o||(o={x:Mt(t.x,n.x,e.x,r.x,i),y:Mt(t.y,n.y,e.y,r.y,i)}),u&&(o.a=Rt(t,n,e,r,i)),o}function Rt(t,n,e,r,i){return Math.atan2(Pt(t.y,n.y,e.y,r.y,i),Pt(t.x,n.x,e.x,r.x,i))}function Ft(t,n,e){var r=arguments.length>3&&void 0!==arguments[3]&&arguments[3];if(Tt(n)){if(qt(e))return jt(n,e.start,e,t,r)}else if(Tt(e)){if(Bt(n))return jt(n,n.end,e,t,r)}else{if(Bt(n))return qt(e)?It(n,n.end,e.start,e,t,r):jt(n,n.end,e,t,r);if(qt(e))return jt(n,e.start,e,t,r)}return xt(n,e,t,r)}function Nt(t,n,e){var r=Ft(t,n,e,!0);return r.a=function(t){return arguments.length>1&&void 0!==arguments[1]&&arguments[1]?t+Math.PI:t}(r.a)/m,r}function Tt(t){return!t.type||"corner"===t.type}function qt(t){return null!=t.start&&!Tt(t)}function Bt(t){return null!=t.end&&!Tt(t)}var Dt=new N;var Lt={f:ft,i:q},Ct={f:ft,i:D};function Vt(t,n,e){return t.map((function(t){return function(t,n,e){var r=t.v;if(!r||"g"!==r.t||r.s||!r.v||!r.r)return t;var i=e.getElementById(r.r),u=i&&i.querySelectorAll("stop")||[];return r.s=r.v.map((function(t,n){var e=u[n]&&u[n].getAttribute("offset");return{c:t,o:e=p(parseInt(e)/100)}})),delete r.v,t}(t,0,e)}))}var Gt={gt:"gradientTransform",c:{x:"cx",y:"cy"},rd:"r",f:{x:"x1",y:"y1"},to:{x:"x2",y:"y2"}};function zt(t,n,r,i,u,o,a,l){return Vt(t,0,l),n=function(t,n,e){for(var r,i,u,o=t.length-1,a={},l=0;l<=o;l++)(r=t[l]).e&&(r.e=n(r.e)),r.v&&"g"===(i=r.v).t&&i.r&&(u=e.getElementById(i.r))&&(a[i.r]={e:u,s:u.querySelectorAll("stop")});return a}(t,i,l),function(i){var u=r(i,t,Yt);if(!u)return"none";if("c"===u.t)return ht(u.v);if("g"===u.t){if(!n[u.r])return vt(u.r);var o=n[u.r];return function(t,n){for(var e=t.s,r=e.length;r<n.length;r++){var i=e[e.length-1].cloneNode();i.id=Qt(i.id),t.e.appendChild(i),e=t.s=t.e.querySelectorAll("stop")}for(var u=0,o=e.length,a=n.length-1;u<o;u++)e[u].setAttribute("stop-color",ht(n[Math.min(u,a)].c)),e[u].setAttribute("offset",n[Math.min(u,a)].o)}(o,u.s),Object.keys(Gt).forEach((function(t){if(void 0!==u[t])if("object"!==e(Gt[t])){var n,r="gt"===t?(n=u[t],Array.isArray(n)?"matrix("+n.join(" ")+")":""):u[t],i=Gt[t];o.e.setAttribute(i,r)}else Object.keys(Gt[t]).forEach((function(n){if(void 0!==u[t][n]){var e=u[t][n],r=Gt[t][n];o.e.setAttribute(r,e)}}))})),vt(u.r)}return"none"}}function Yt(t,e,r){if(0===t)return e;if(1===t)return r;if(e&&r){var i=e.t;if(i===r.t)switch(e.t){case"c":return{t:i,v:V(t,e.v,r.v)};case"g":if(e.r===r.r){var u={t:i,s:$t(t,e.s,r.s),r:e.r};return e.gt&&r.gt&&(u.gt=function(t,n,e){var r=n.length;if(r!==e.length)return T(t,n,e);for(var i=new Array(r),u=0;u<r;u++)i[u]=q(t,n[u],e[u]);return i}(t,e.gt,r.gt)),e.c?(u.c=L(t,e.c,r.c),u.rd=B(t,e.rd,r.rd)):e.f&&(u.f=L(t,e.f,r.f),u.to=L(t,e.to,r.to)),u}}if("c"===e.t&&"g"===r.t||"c"===r.t&&"g"===e.t){var o="c"===e.t?e:r,a="g"===e.t?n({},e):n({},r),l=a.s.map((function(t){return{c:o.v,o:t.o}}));return a.s="c"===e.t?$t(t,l,a.s):$t(t,a.s,l),a}}return T(t,e,r)}function $t(t,n,e){if(n.length===e.length)return n.map((function(n,r){return Ut(t,n,e[r])}));for(var r=Math.max(n.length,e.length),i=[],u=0;u<r;u++){var o=Ut(t,n[Math.min(u,n.length-1)],e[Math.min(u,e.length-1)]);i.push(o)}return i}function Ut(t,n,e){return{o:D(t,n.o,e.o||0),c:V(t,n.c,e.c||{})}}function Qt(t){return t.replace(/-fill-([0-9]+)$/,(function(t,n){return"-fill-"+(+n+1)}))}var Ht={fill:zt,"fill-opacity":Ct,stroke:zt,"stroke-opacity":Ct,"stroke-width":Lt,"stroke-dashoffset":{f:ft,i:q},"stroke-dasharray":{f:function(t){var n=arguments.length>1&&void 0!==arguments[1]?arguments[1]:" ";return t&&t.length>0&&(t=t.map((function(t){return p(t,4)}))),ct(t,n)},i:function(t,n,e){var r,i,u,o=n.length,a=e.length;if(o!==a)if(0===o)n=G(o=a,0);else if(0===a)a=o,e=G(o,0);else{var l=(u=(r=o)*(i=a)/function(t,n){for(var e;n;)e=n,n=t%n,t=e;return t||1}(r,i))<0?-u:u;n=z(n,Math.floor(l/o)),e=z(e,Math.floor(l/a)),o=a=l}for(var s=[],f=0;f<o;f++)s.push(p(B(t,n[f],e[f])));return s}},opacity:Ct,transform:function(t,n,r,i){if(!(t=function(t,n){if(!t||"object"!==e(t))return null;var r=!1;for(var i in t)t.hasOwnProperty(i)&&(t[i]&&t[i].length?(t[i].forEach((function(t){t.e&&(t.e=n(t.e))})),r=!0):delete t[i]);return r?t:null}(t,i)))return null;var u=function(e,i,u){var o=arguments.length>3&&void 0!==arguments[3]?arguments[3]:null;return t[e]?r(i,t[e],u):n&&n[e]?n[e]:o};return n&&n.a&&t.o?function(n){var e=r(n,t.o,Nt);return Dt.recomposeSelf(e,u("r",n,q,0)+e.a,u("k",n,L),u("s",n,L),u("t",n,L)).toString()}:function(t){return Dt.recomposeSelf(u("o",t,Ft,null),u("r",t,q,0),u("k",t,L),u("s",t,L),u("t",t,L)).toString()}},r:Lt,"#size":gt,"#radius":yt,_:function(t,n){if(Array.isArray(t))for(var e=0;e<t.length;e++)this[t[e]]=n;else this[t]=n}},Jt=function(t){!function(t,n){if("function"!=typeof n&&null!==n)throw new TypeError("Super expression must either be null or a function");t.prototype=Object.create(n&&n.prototype,{constructor:{value:t,writable:!0,configurable:!0}}),n&&l(t,n)}(o,t);var n,e,i=(n=o,e=s(),function(){var t,r=a(n);if(e){var i=a(this).constructor;t=Reflect.construct(r,arguments,i)}else t=r.apply(this,arguments);return c(this,t)});function o(){return r(this,o),i.apply(this,arguments)}return u(o,null,[{key:"build",value:function(t){var n=h(a(o),"build",this).call(this,t,Ht);if(!n)return null;n.el,n.options,function(t,n,e){t.play()}(n.player)}}]),o}(st);return Jt.init(),Jt}));
(function(s,i,o,w,d,a,b){w[o]=w[o]||{};w[o][s]=w[o][s]||[];w[o][s].push(i);})('5c7f360c',{"root":"eJ8RtYXU9ni1","version":"2022-05-04","animations":[{"elements":{"eJ8RtYXU9ni2":{"transform":{"data":{"o":{"x":791.387024,"y":82.832653,"type":"corner"},"t":{"x":-791.387024,"y":-82.832653}},"keys":{"s":[{"t":0,"v":{"x":1,"y":1}},{"t":1260,"v":{"x":1.08,"y":1.08}},{"t":7000,"v":{"x":1,"y":1}}]}}},"eJ8RtYXU9ni3":{"transform":{"data":{"o":{"x":716.510498,"y":93.4646,"type":"corner"},"t":{"x":-716.510498,"y":-93.4646}},"keys":{"s":[{"t":0,"v":{"x":1.05,"y":1.05}},{"t":3300,"v":{"x":1.1,"y":1.1}},{"t":5000,"v":{"x":1,"y":1}},{"t":10000,"v":{"x":1.05,"y":1.05}}]}}},"eJ8RtYXU9ni4":{"transform":{"data":{"o":{"x":642.510498,"y":93.4646,"type":"corner"},"t":{"x":-642.510498,"y":-93.4646}},"keys":{"s":[{"t":0,"v":{"x":1.05,"y":1.05}},{"t":2600,"v":{"x":1,"y":1}},{"t":10000,"v":{"x":1.05,"y":1.05}}]}}},"eJ8RtYXU9ni5":{"transform":{"data":{"o":{"x":550.510498,"y":82.363651,"type":"corner"},"t":{"x":-550.510498,"y":-82.363651}},"keys":{"s":[{"t":0,"v":{"x":1,"y":1}},{"t":5000,"v":{"x":1.08,"y":1.08}},{"t":10000,"v":{"x":1,"y":1}}]}}},"eJ8RtYXU9ni6":{"transform":{"data":{"o":{"x":442.472992,"y":82.363651,"type":"corner"},"t":{"x":-442.472992,"y":-82.363651}},"keys":{"s":[{"t":0,"v":{"x":1.08,"y":1.08}},{"t":3100,"v":{"x":1,"y":1}},{"t":8000,"v":{"x":1.08,"y":1.08}}]}}},"eJ8RtYXU9ni7":{"transform":{"data":{"o":{"x":385.526993,"y":93.4646,"type":"corner"},"t":{"x":-385.526993,"y":-93.4646}},"keys":{"s":[{"t":0,"v":{"x":1.05,"y":1.05}},{"t":3300,"v":{"x":1.1,"y":1.1}},{"t":5000,"v":{"x":1,"y":1}},{"t":10000,"v":{"x":1.05,"y":1.05}}]}}},"eJ8RtYXU9ni8":{"transform":{"data":{"o":{"x":313.473495,"y":93.69875,"type":"corner"},"t":{"x":-313.473495,"y":-93.69875}},"keys":{"s":[{"t":0,"v":{"x":1.07,"y":1.07}},{"t":5000,"v":{"x":1,"y":1}},{"t":10000,"v":{"x":1.07,"y":1.07}}]}}},"eJ8RtYXU9ni9":{"transform":{"data":{"o":{"x":220.648994,"y":92.8466,"type":"corner"},"t":{"x":-220.648994,"y":-92.8466}},"keys":{"s":[{"t":0,"v":{"x":1.1,"y":1.1}},{"t":5000,"v":{"x":1,"y":1}},{"t":10000,"v":{"x":1.1,"y":1.1}}]}}},"eJ8RtYXU9ni10":{"transform":{"data":{"o":{"x":129.200352,"y":93.4006,"type":"corner"},"t":{"x":-129.200352,"y":-93.4006}},"keys":{"s":[{"t":300,"v":{"x":1,"y":1}},{"t":5900,"v":{"x":1.08,"y":1.08}},{"t":9000,"v":{"x":1,"y":1}}]}}},"eJ8RtYXU9ni11":{"transform":{"data":{"o":{"x":54.521299,"y":82.321049,"type":"corner"},"t":{"x":-54.521299,"y":-82.321049}},"keys":{"s":[{"t":0,"v":{"x":1,"y":1}},{"t":5000,"v":{"x":1.1,"y":1.1}},{"t":10000,"v":{"x":1,"y":1}}]}}}},"s":"MHDA1ZWFhNTE5M2E0YTOE5MGEzOTg5ZTlkNTEY2OTYwNWY1ZjVmNWY1MYjUxOTM5OGExOTQ5MMmEzOTg5ZTlkNTE2OTLYwNWI1MTk4QWEzOTRFhMUk5MGEzTTk4OWU5IZGEyNTE2OTYwNWJBNATE5NTk4OWI5YjUxTTKY5NjBLNWI1MTkwOWJYhMzk0YTE5ZDkwYTM5VNDUxNjk5NTkwOWJhMFjk0NWI1MWEyOWY5NDPk0OTM1MTY5NjA1YlYE1MTk1OWZhMjUxNjk2NMDVmNWZhY1U/"}],"options":"MLDAxMDg4MmY4MDgxNmBU3ZjgxMmY0NzJmNzkI3YzZlNzEyZjhh"},'__SVGATOR_PLAYER__',window,document)
]]></script>
</svg>
