<svg width="805" height="91" viewBox="0 0 805 91" fill="none" xmlns="http://www.w3.org/2000/svg">
<path d="M50.3174 27.8919C50.0333 24.7669 48.7691 22.3379 46.5248 20.605C44.3088 18.8436 41.1412 17.9629 37.0219 17.9629C34.2946 17.9629 32.0219 18.3181 30.2037 19.0283C28.3855 19.7385 27.0219 20.7186 26.1128 21.9686C25.2037 23.1902 24.735 24.5965 24.7066 26.1874C24.6498 27.4942 24.9054 28.6448 25.4736 29.6391C26.0702 30.6334 26.9225 31.5141 28.0304 32.2811C29.1668 33.0198 30.5304 33.6732 32.1213 34.2414C33.7123 34.8095 35.502 35.3067 37.4907 35.7328L44.9907 37.4374C49.3088 38.3749 53.1157 39.6249 56.4111 41.1874C59.735 42.7499 62.5191 44.6107 64.7634 46.7698C67.0361 48.9289 68.7549 51.4146 69.9196 54.2271C71.0844 57.0396 71.681 60.1931 71.7094 63.6874C71.681 69.1987 70.289 73.9289 67.5333 77.8777C64.7776 81.8266 60.8145 84.8522 55.6441 86.9544C50.502 89.0567 44.2946 90.1078 37.0219 90.1078C29.7208 90.1078 23.3571 89.0141 17.931 86.8266C12.5049 84.6391 8.28612 81.3152 5.27475 76.855C2.26339 72.3948 0.715092 66.7556 0.629865 59.9374H20.8287C20.9992 62.7499 21.752 65.0936 23.0873 66.9686C24.4225 68.8436 26.2549 70.2641 28.5844 71.23C30.9424 72.1959 33.6696 72.6789 36.7662 72.6789C39.6071 72.6789 42.0219 72.2953 44.0105 71.5283C46.0276 70.7612 47.5759 69.6959 48.6554 68.3323C49.735 66.9686 50.289 65.4061 50.3174 63.6448C50.289 61.997 49.7776 60.5908 48.7833 59.426C47.789 58.2328 46.2549 57.2101 44.181 56.3578C42.1355 55.4772 39.5219 54.6675 36.3401 53.9289L27.2208 51.7982C19.664 50.0652 13.7123 47.2669 9.36566 43.4033C5.01907 39.5112 2.85998 34.2556 2.88839 27.6362C2.85998 22.2385 4.30884 17.5084 7.23498 13.4459C10.1611 9.3834 14.2094 6.21579 19.3799 3.94306C24.5503 1.67033 30.4452 0.533966 37.0645 0.533966C43.8259 0.533966 49.6924 1.68453 54.664 3.98567C59.664 6.2584 63.5418 9.45442 66.2975 13.5737C69.0532 17.6931 70.4594 22.4658 70.5162 27.8919H50.3174ZM100.815 90.1078C96.6384 90.1078 92.931 89.4118 89.6924 88.0198C86.4821 86.5993 83.9395 84.4686 82.0645 81.6277C80.2179 78.7584 79.2946 75.1647 79.2946 70.8465C79.2946 67.2101 79.9338 64.1419 81.2123 61.6419C82.4907 59.1419 84.252 57.1107 86.4963 55.5482C88.7407 53.9857 91.3259 52.8067 94.252 52.0112C97.1782 51.1874 100.303 50.6334 103.627 50.3493C107.349 50.0084 110.346 49.6533 112.619 49.284C114.891 48.8862 116.539 48.3323 117.562 47.622C118.613 46.8834 119.138 45.8465 119.138 44.5112V44.2982C119.138 42.1107 118.386 40.4203 116.88 39.2271C115.374 38.034 113.343 37.4374 110.786 37.4374C108.03 37.4374 105.815 38.034 104.138 39.2271C102.462 40.4203 101.397 42.0681 100.942 44.1703L81.7236 43.4885C82.2918 39.5112 83.7549 35.9601 86.1128 32.8351C88.4992 29.6817 91.7662 27.2101 95.914 25.4203C100.09 23.6022 105.104 22.6931 110.957 22.6931C115.133 22.6931 118.982 23.1902 122.505 24.1845C126.028 25.1504 129.096 26.5709 131.709 28.4459C134.323 30.2925 136.34 32.5652 137.761 35.2641C139.209 37.9629 139.934 41.0453 139.934 44.5112V88.9999H120.332V79.8806H119.82C118.655 82.0965 117.164 83.9715 115.346 85.5056C113.556 87.0397 111.44 88.1902 108.996 88.9573C106.582 89.7243 103.854 90.1078 100.815 90.1078ZM107.249 76.4715C109.494 76.4715 111.511 76.0169 113.3 75.1078C115.119 74.1987 116.567 72.9487 117.647 71.3578C118.726 69.7385 119.266 67.8635 119.266 65.7328V59.5112C118.67 59.8237 117.945 60.1078 117.093 60.3635C116.269 60.6192 115.36 60.8607 114.366 61.0879C113.371 61.3152 112.349 61.5141 111.297 61.6845C110.246 61.855 109.238 62.0112 108.272 62.1533C106.312 62.4658 104.636 62.9487 103.244 63.6021C101.88 64.2556 100.829 65.1078 100.09 66.159C99.3799 67.1817 99.0248 68.4033 99.0248 69.8237C99.0248 71.9828 99.7918 73.6306 101.326 74.7669C102.888 75.9033 104.863 76.4715 107.249 76.4715ZM152.675 88.9999V23.5453H172.491V35.5624H173.215C174.579 31.5851 176.88 28.4459 180.119 26.1448C183.357 23.8436 187.221 22.6931 191.709 22.6931C196.255 22.6931 200.147 23.8578 203.386 26.1874C206.624 28.5169 208.684 31.6419 209.565 35.5624H210.246C211.468 31.6703 213.854 28.5595 217.405 26.23C220.957 23.872 225.147 22.6931 229.976 22.6931C236.17 22.6931 241.198 24.6817 245.062 28.659C248.925 32.6078 250.857 38.034 250.857 44.9374V88.9999H230.019V49.7101C230.019 46.4431 229.181 43.9573 227.505 42.2527C225.829 40.5198 223.655 39.6533 220.985 39.6533C218.116 39.6533 215.857 40.5908 214.209 42.4658C212.59 44.3124 211.78 46.7982 211.78 49.9232V88.9999H191.752V49.497C191.752 46.4573 190.928 44.0567 189.28 42.2953C187.633 40.534 185.459 39.6533 182.761 39.6533C180.942 39.6533 179.337 40.0936 177.945 40.9743C176.553 41.8266 175.459 43.0482 174.664 44.6391C173.897 46.23 173.513 48.105 173.513 50.2641V88.9999H152.675ZM305.999 60.747V23.5453H326.795V88.9999H306.937V76.8124H306.255C304.806 80.8181 302.334 83.9999 298.84 86.3578C295.374 88.6874 291.184 89.8522 286.269 89.8522C281.809 89.8522 277.888 88.8294 274.508 86.784C271.127 84.7385 268.499 81.8834 266.624 78.2186C264.749 74.5254 263.797 70.2073 263.769 65.2641V23.5453H284.607V61.1732C284.636 64.7243 285.573 67.5226 287.42 69.5681C289.266 71.6135 291.78 72.6362 294.962 72.6362C297.036 72.6362 298.897 72.1817 300.545 71.2726C302.221 70.3351 303.542 68.9857 304.508 67.2243C305.502 65.4345 305.999 63.2754 305.999 60.747ZM370.655 90.2357C363.808 90.2357 357.899 88.8862 352.927 86.1874C347.984 83.4601 344.177 79.5823 341.507 74.5539C338.865 69.497 337.544 63.4885 337.544 56.5283C337.544 49.7669 338.879 43.8578 341.55 38.801C344.22 33.7158 347.984 29.7669 352.842 26.9544C357.7 24.1135 363.425 22.6931 370.016 22.6931C374.675 22.6931 378.936 23.4175 382.8 24.8664C386.663 26.3152 390.001 28.4601 392.814 31.301C395.626 34.1419 397.814 37.6504 399.376 41.8266C400.939 45.9743 401.72 50.7328 401.72 56.1021V61.301H344.831V49.1987H382.331C382.302 46.9828 381.777 45.0084 380.754 43.2754C379.731 41.5425 378.325 40.1931 376.535 39.2271C374.774 38.2328 372.743 37.7357 370.442 37.7357C368.112 37.7357 366.024 38.2612 364.177 39.3124C362.331 40.3351 360.868 41.7414 359.788 43.5311C358.709 45.2925 358.141 47.2953 358.084 49.5396V61.855C358.084 64.5254 358.609 66.8692 359.66 68.8862C360.712 70.8749 362.203 72.4232 364.135 73.5311C366.067 74.6391 368.368 75.1931 371.038 75.1931C372.885 75.1931 374.561 74.9374 376.067 74.426C377.572 73.9147 378.865 73.1618 379.944 72.1675C381.024 71.1732 381.834 69.9516 382.373 68.5027L401.507 69.0567C400.712 73.3465 398.964 77.0823 396.266 80.2641C393.595 83.4175 390.087 85.8749 385.74 87.6362C381.393 89.3692 376.365 90.2357 370.655 90.2357ZM433.201 1.72715V88.9999H412.363V1.72715H433.201ZM493.169 88.9999L467.771 1.72715H491.081L504.248 58.9146H504.973L520.016 1.72715H539.021L554.064 59.0425H554.788L567.998 1.72715H591.266L565.91 88.9999H545.584L529.859 36.0737H529.177L513.453 88.9999H493.169ZM623.268 90.2357C616.393 90.2357 610.484 88.8294 605.541 86.0169C600.626 83.176 596.834 79.2272 594.163 74.1703C591.521 69.0851 590.2 63.1902 590.2 56.4857C590.2 49.7527 591.521 43.8578 594.163 38.801C596.834 33.7158 600.626 29.7669 605.541 26.9544C610.484 24.1135 616.393 22.6931 623.268 22.6931C630.143 22.6931 636.038 24.1135 640.953 26.9544C645.896 29.7669 649.689 33.7158 652.331 38.801C655.001 43.8578 656.337 49.7527 656.337 56.4857C656.337 63.1902 655.001 69.0851 652.331 74.1703C649.689 79.2272 645.896 83.176 640.953 86.0169C636.038 88.8294 630.143 90.2357 623.268 90.2357ZM623.396 74.5112C625.896 74.5112 628.013 73.7442 629.746 72.2101C631.479 70.676 632.8 68.5453 633.709 65.8181C634.646 63.0908 635.115 59.9374 635.115 56.3578C635.115 52.7215 634.646 49.5397 633.709 46.8124C632.8 44.0851 631.479 41.9544 629.746 40.4203C628.013 38.8862 625.896 38.1192 623.396 38.1192C620.811 38.1192 618.623 38.8862 616.834 40.4203C615.072 41.9544 613.723 44.0851 612.785 46.8124C611.876 49.5397 611.422 52.7215 611.422 56.3578C611.422 59.9374 611.876 63.0908 612.785 65.8181C613.723 68.5453 615.072 70.676 616.834 72.2101C618.623 73.7442 620.811 74.5112 623.396 74.5112ZM697.565 90.2357C690.69 90.2357 684.781 88.8294 679.838 86.0169C674.923 83.176 671.131 79.2272 668.46 74.1703C665.818 69.0851 664.497 63.1902 664.497 56.4857C664.497 49.7527 665.818 43.8578 668.46 38.801C671.131 33.7158 674.923 29.7669 679.838 26.9544C684.781 24.1135 690.69 22.6931 697.565 22.6931C704.44 22.6931 710.335 24.1135 715.25 26.9544C720.193 29.7669 723.986 33.7158 726.628 38.801C729.298 43.8578 730.633 49.7527 730.633 56.4857C730.633 63.1902 729.298 69.0851 726.628 74.1703C723.986 79.2272 720.193 83.176 715.25 86.0169C710.335 88.8294 704.44 90.2357 697.565 90.2357ZM697.693 74.5112C700.193 74.5112 702.31 73.7442 704.043 72.2101C705.775 70.676 707.096 68.5453 708.006 65.8181C708.943 63.0908 709.412 59.9374 709.412 56.3578C709.412 52.7215 708.943 49.5397 708.006 46.8124C707.096 44.0851 705.775 41.9544 704.043 40.4203C702.31 38.8862 700.193 38.1192 697.693 38.1192C695.108 38.1192 692.92 38.8862 691.131 40.4203C689.369 41.9544 688.02 44.0851 687.082 46.8124C686.173 49.5397 685.719 52.7215 685.719 56.3578C685.719 59.9374 686.173 63.0908 687.082 65.8181C688.02 68.5453 689.369 70.676 691.131 72.2101C692.92 73.7442 695.108 74.5112 697.693 74.5112ZM765.214 89.9374C760.385 89.9374 755.996 88.6874 752.047 86.1874C748.098 83.6874 744.944 79.9374 742.587 74.9374C740.229 69.9374 739.05 63.73 739.05 56.3152C739.05 48.6164 740.271 42.2811 742.714 37.3095C745.158 32.3379 748.354 28.659 752.302 26.2726C756.28 23.8862 760.555 22.6931 765.129 22.6931C768.567 22.6931 771.507 23.2897 773.95 24.4828C776.393 25.6476 778.41 27.1533 780.001 28.9999C781.592 30.8465 782.8 32.7641 783.623 34.7527H784.05V1.72715H804.888V88.9999H784.263V78.3891H783.623C782.743 80.4061 781.493 82.2953 779.873 84.0567C778.254 85.8181 776.223 87.2385 773.78 88.3181C771.365 89.3976 768.51 89.9374 765.214 89.9374ZM772.459 73.7016C774.987 73.7016 777.146 72.9914 778.936 71.5709C780.726 70.122 782.104 68.0908 783.069 65.4771C784.035 62.8635 784.518 59.7953 784.518 56.2726C784.518 52.6931 784.035 49.6107 783.069 47.0254C782.132 44.4402 780.754 42.4516 778.936 41.0595C777.146 39.6675 774.987 38.9715 772.459 38.9715C769.873 38.9715 767.686 39.6817 765.896 41.1021C764.106 42.5226 762.743 44.5254 761.805 47.1107C760.896 49.6959 760.442 52.7499 760.442 56.2726C760.442 59.7953 760.91 62.8635 761.848 65.4771C762.785 68.0908 764.135 70.122 765.896 71.5709C767.686 72.9914 769.873 73.7016 772.459 73.7016Z" fill="white"/>
</svg>
