<svg id="visual" viewBox="0 0 900 600" width="900" height="600" xmlns="http://www.w3.org/2000/svg"
    xmlns:xlink="http://www.w3.org/1999/xlink" version="1.1">
    <rect x="0" y="0" width="900" height="600" fill="#002233"></rect>
    <path
        d="M0 363L12.5 354C25 345 50 327 75 333.5C100 340 125 371 150 384C175 397 200 392 225 402.3C250 412.7 275 438.3 300 441.3C325 444.3 350 424.7 375 413.8C400 403 425 401 450 399.2C475 397.3 500 395.7 525 399C550 402.3 575 410.7 600 396.5C625 382.3 650 345.7 675 338.5C700 331.3 725 353.7 750 353.7C775 353.7 800 331.3 825 342.3C850 353.3 875 397.7 887.5 419.8L900 442L900 601L887.5 601C875 601 850 601 825 601C800 601 775 601 750 601C725 601 700 601 675 601C650 601 625 601 600 601C575 601 550 601 525 601C500 601 475 601 450 601C425 601 400 601 375 601C350 601 325 601 300 601C275 601 250 601 225 601C200 601 175 601 150 601C125 601 100 601 75 601C50 601 25 601 12.5 601L0 601Z"
        fill="#0066FF" stroke-linecap="round" stroke-linejoin="miter"></path>
</svg>