<svg id="visual" viewBox="0 0 900 600" width="900" height="600" xmlns="http://www.w3.org/2000/svg"
    xmlns:xlink="http://www.w3.org/1999/xlink" version="1.1">
    <rect x="0" y="0" width="900" height="600" fill="#002233"></rect>
    <path
        d="M0 457L13.7 464.3C27.3 471.7 54.7 486.3 82 481.2C109.3 476 136.7 451 163.8 448.3C191 445.7 218 465.3 245.2 461.2C272.3 457 299.7 429 327 414.3C354.3 399.7 381.7 398.3 409 414.5C436.3 430.7 463.7 464.3 491 474.3C518.3 484.3 545.7 470.7 573 460.3C600.3 450 627.7 443 654.8 432.2C682 421.3 709 406.7 736.2 402C763.3 397.3 790.7 402.7 818 412.2C845.3 421.7 872.7 435.3 886.3 442.2L900 449L900 601L886.3 601C872.7 601 845.3 601 818 601C790.7 601 763.3 601 736.2 601C709 601 682 601 654.8 601C627.7 601 600.3 601 573 601C545.7 601 518.3 601 491 601C463.7 601 436.3 601 409 601C381.7 601 354.3 601 327 601C299.7 601 272.3 601 245.2 601C218 601 191 601 163.8 601C136.7 601 109.3 601 82 601C54.7 601 27.3 601 13.7 601L0 601Z"
        fill="#0066FF" stroke-linecap="round" stroke-linejoin="miter"></path>
</svg>