<svg id="visual" viewBox="0 0 900 600" width="900" height="600" xmlns="http://www.w3.org/2000/svg"
    xmlns:xlink="http://www.w3.org/1999/xlink" version="1.1">
    <rect x="0" y="0" width="900" height="600" fill="#002233"></rect>
    <path
        d="M0 363L7.5 362.8C15 362.7 30 362.3 45 363.7C60 365 75 368 90 369.7C105 371.3 120 371.7 135 367C150 362.3 165 352.7 180 351.3C195 350 210 357 225 360.7C240 364.3 255 364.7 270 362.2C285 359.7 300 354.3 315 351.5C330 348.7 345 348.3 360 353.8C375 359.3 390 370.7 405 372.8C420 375 435 368 450 363C465 358 480 355 495 354C510 353 525 354 540 352.7C555 351.3 570 347.7 585 346.7C600 345.7 615 347.3 630 353.5C645 359.7 660 370.3 675 370C690 369.7 705 358.3 720 354.5C735 350.7 750 354.3 765 355.5C780 356.7 795 355.3 810 354.3C825 353.3 840 352.7 855 357.2C870 361.7 885 371.3 892.5 376.2L900 381L900 601L892.5 601C885 601 870 601 855 601C840 601 825 601 810 601C795 601 780 601 765 601C750 601 735 601 720 601C705 601 690 601 675 601C660 601 645 601 630 601C615 601 600 601 585 601C570 601 555 601 540 601C525 601 510 601 495 601C480 601 465 601 450 601C435 601 420 601 405 601C390 601 375 601 360 601C345 601 330 601 315 601C300 601 285 601 270 601C255 601 240 601 225 601C210 601 195 601 180 601C165 601 150 601 135 601C120 601 105 601 90 601C75 601 60 601 45 601C30 601 15 601 7.5 601L0 601Z"
        fill="#0066FF" stroke-linecap="round" stroke-linejoin="miter"></path>
</svg>