<svg id="visual" viewBox="0 0 450 300" width="450" height="300" xmlns="http://www.w3.org/2000/svg"
    xmlns:xlink="http://www.w3.org/1999/xlink" version="1.1">
    <rect x="0" y="0" width="450" height="300" fill="#002233"></rect>
    <path
        d="M0 228L6.8 231.7C13.7 235.3 27.3 242.7 41 240.2C54.7 237.7 68.3 225.3 82 224C95.7 222.7 109.3 232.3 123 230.2C136.7 228 150.3 214 164 206.7C177.7 199.3 191.3 198.7 204.8 206.8C218.3 215 231.7 232 245.2 237C258.7 242 272.3 235 286 229.7C299.7 224.3 313.3 220.7 327 215.2C340.7 209.7 354.3 202.3 368 200C381.7 197.7 395.3 200.3 409 205.2C422.7 210 436.3 217 443.2 220.5L450 224L450 301L443.2 301C436.3 301 422.7 301 409 301C395.3 301 381.7 301 368 301C354.3 301 340.7 301 327 301C313.3 301 299.7 301 286 301C272.3 301 258.7 301 245.2 301C231.7 301 218.3 301 204.8 301C191.3 301 177.7 301 164 301C150.3 301 136.7 301 123 301C109.3 301 95.7 301 82 301C68.3 301 54.7 301 41 301C27.3 301 13.7 301 6.8 301L0 301Z"
        fill="#0066FF" stroke-linecap="round" stroke-linejoin="miter"></path>
</svg>