<svg id="visual" viewBox="0 0 900 600" width="900" height="600" xmlns="http://www.w3.org/2000/svg"
    xmlns:xlink="http://www.w3.org/1999/xlink" version="1.1">
    <rect x="0" y="0" width="900" height="600" fill="#002233"></rect>
    <path
        d="M0 327L7.5 318.3C15 309.7 30 292.3 45 294.3C60 296.3 75 317.7 90 323.2C105 328.7 120 318.3 135 319.2C150 320 165 332 180 324.7C195 317.3 210 290.7 225 279.2C240 267.7 255 271.3 270 279.3C285 287.3 300 299.7 315 298.2C330 296.7 345 281.3 360 271C375 260.7 390 255.3 405 257.3C420 259.3 435 268.7 450 268.3C465 268 480 258 495 252.8C510 247.7 525 247.3 540 263C555 278.7 570 310.3 585 311.3C600 312.3 615 282.7 630 283.3C645 284 660 315 675 323.8C690 332.7 705 319.3 720 302.8C735 286.3 750 266.7 765 260.3C780 254 795 261 810 274.3C825 287.7 840 307.3 855 315C870 322.7 885 318.3 892.5 316.2L900 314L900 601L892.5 601C885 601 870 601 855 601C840 601 825 601 810 601C795 601 780 601 765 601C750 601 735 601 720 601C705 601 690 601 675 601C660 601 645 601 630 601C615 601 600 601 585 601C570 601 555 601 540 601C525 601 510 601 495 601C480 601 465 601 450 601C435 601 420 601 405 601C390 601 375 601 360 601C345 601 330 601 315 601C300 601 285 601 270 601C255 601 240 601 225 601C210 601 195 601 180 601C165 601 150 601 135 601C120 601 105 601 90 601C75 601 60 601 45 601C30 601 15 601 7.5 601L0 601Z"
        fill="#0066FF" stroke-linecap="round" stroke-linejoin="miter"></path>
</svg>