<svg id="visual" viewBox="0 0 900 600" width="900" height="600" xmlns="http://www.w3.org/2000/svg"
    xmlns:xlink="http://www.w3.org/1999/xlink" version="1.1">
    <rect x="0" y="0" width="900" height="600" fill="#002233"></rect>
    <path
        d="M0 507L30 494.5C60 482 120 457 180 438.7C240 420.3 300 408.7 360 410.3C420 412 480 427 540 435.7C600 444.3 660 446.7 720 459C780 471.3 840 493.7 870 504.8L900 516L900 601L870 601C840 601 780 601 720 601C660 601 600 601 540 601C480 601 420 601 360 601C300 601 240 601 180 601C120 601 60 601 30 601L0 601Z"
        fill="#0066FF" stroke-linecap="round" stroke-linejoin="miter"></path>
</svg>