<svg id="visual" viewBox="0 0 900 600" width="900" height="600" xmlns="http://www.w3.org/2000/svg"
    xmlns:xlink="http://www.w3.org/1999/xlink" version="1.1">
    <rect x="0" y="0" width="900" height="600" fill="#002233"></rect>
    <path
        d="M0 448L7.2 450.5C14.3 453 28.7 458 43 457.8C57.3 457.7 71.7 452.3 86 451.5C100.3 450.7 114.7 454.3 128.8 454.2C143 454 157 450 171.2 450.7C185.3 451.3 199.7 456.7 214 459.2C228.3 461.7 242.7 461.3 257 458.3C271.3 455.3 285.7 449.7 300 447C314.3 444.3 328.7 444.7 343 444.7C357.3 444.7 371.7 444.3 386 446.3C400.3 448.3 414.7 452.7 428.8 453.2C443 453.7 457 450.3 471.2 448.5C485.3 446.7 499.7 446.3 514 448.8C528.3 451.3 542.7 456.7 557 458.2C571.3 459.7 585.7 457.3 600 457.5C614.3 457.7 628.7 460.3 643 457.8C657.3 455.3 671.7 447.7 686 445C700.3 442.3 714.7 444.7 728.8 448.2C743 451.7 757 456.3 771.2 457.5C785.3 458.7 799.7 456.3 814 452.8C828.3 449.3 842.7 444.7 857 444.5C871.3 444.3 885.7 448.7 892.8 450.8L900 453L900 601L892.8 601C885.7 601 871.3 601 857 601C842.7 601 828.3 601 814 601C799.7 601 785.3 601 771.2 601C757 601 743 601 728.8 601C714.7 601 700.3 601 686 601C671.7 601 657.3 601 643 601C628.7 601 614.3 601 600 601C585.7 601 571.3 601 557 601C542.7 601 528.3 601 514 601C499.7 601 485.3 601 471.2 601C457 601 443 601 428.8 601C414.7 601 400.3 601 386 601C371.7 601 357.3 601 343 601C328.7 601 314.3 601 300 601C285.7 601 271.3 601 257 601C242.7 601 228.3 601 214 601C199.7 601 185.3 601 171.2 601C157 601 143 601 128.8 601C114.7 601 100.3 601 86 601C71.7 601 57.3 601 43 601C28.7 601 14.3 601 7.2 601L0 601Z"
        fill="#0066FF" stroke-linecap="round" stroke-linejoin="miter"></path>
</svg>