<svg id="visual" viewBox="0 0 900 600" width="900" height="600" xmlns="http://www.w3.org/2000/svg"
    xmlns:xlink="http://www.w3.org/1999/xlink" version="1.1">
    <rect x="0" y="0" width="900" height="600" fill="#001220"></rect>
    <path
        d="M0 316L12.5 325.8C25 335.7 50 355.3 75 370.3C100 385.3 125 395.7 150 392.8C175 390 200 374 225 356.8C250 339.7 275 321.3 300 313C325 304.7 350 306.3 375 316.8C400 327.3 425 346.7 450 345.3C475 344 500 322 525 315.3C550 308.7 575 317.3 600 326.3C625 335.3 650 344.7 675 344C700 343.3 725 332.7 750 337.7C775 342.7 800 363.3 825 360.5C850 357.7 875 331.3 887.5 318.2L900 305L900 601L887.5 601C875 601 850 601 825 601C800 601 775 601 750 601C725 601 700 601 675 601C650 601 625 601 600 601C575 601 550 601 525 601C500 601 475 601 450 601C425 601 400 601 375 601C350 601 325 601 300 601C275 601 250 601 225 601C200 601 175 601 150 601C125 601 100 601 75 601C50 601 25 601 12.5 601L0 601Z"
        fill="#fa7268"></path>
    <path
        d="M0 419L12.5 418C25 417 50 415 75 412.5C100 410 125 407 150 409.2C175 411.3 200 418.7 225 416.8C250 415 275 404 300 400.7C325 397.3 350 401.7 375 394.2C400 386.7 425 367.3 450 370C475 372.7 500 397.3 525 397.7C550 398 575 374 600 373.5C625 373 650 396 675 395.7C700 395.3 725 371.7 750 372.7C775 373.7 800 399.3 825 401C850 402.7 875 380.3 887.5 369.2L900 358L900 601L887.5 601C875 601 850 601 825 601C800 601 775 601 750 601C725 601 700 601 675 601C650 601 625 601 600 601C575 601 550 601 525 601C500 601 475 601 450 601C425 601 400 601 375 601C350 601 325 601 300 601C275 601 250 601 225 601C200 601 175 601 150 601C125 601 100 601 75 601C50 601 25 601 12.5 601L0 601Z"
        fill="#f16367"></path>
    <path
        d="M0 466L12.5 466.5C25 467 50 468 75 462.8C100 457.7 125 446.3 150 445.8C175 445.3 200 455.7 225 456.8C250 458 275 450 300 442.3C325 434.7 350 427.3 375 425.5C400 423.7 425 427.3 450 428.8C475 430.3 500 429.7 525 426.5C550 423.3 575 417.7 600 424.3C625 431 650 450 675 459.3C700 468.7 725 468.3 750 469.5C775 470.7 800 473.3 825 464.2C850 455 875 434 887.5 423.5L900 413L900 601L887.5 601C875 601 850 601 825 601C800 601 775 601 750 601C725 601 700 601 675 601C650 601 625 601 600 601C575 601 550 601 525 601C500 601 475 601 450 601C425 601 400 601 375 601C350 601 325 601 300 601C275 601 250 601 225 601C200 601 175 601 150 601C125 601 100 601 75 601C50 601 25 601 12.5 601L0 601Z"
        fill="#e85467"></path>
    <path
        d="M0 452L12.5 451.5C25 451 50 450 75 450.2C100 450.3 125 451.7 150 459.8C175 468 200 483 225 480.3C250 477.7 275 457.3 300 449.3C325 441.3 350 445.7 375 457.2C400 468.7 425 487.3 450 491.7C475 496 500 486 525 481.7C550 477.3 575 478.7 600 480.5C625 482.3 650 484.7 675 483.2C700 481.7 725 476.3 750 474.8C775 473.3 800 475.7 825 482C850 488.3 875 498.7 887.5 503.8L900 509L900 601L887.5 601C875 601 850 601 825 601C800 601 775 601 750 601C725 601 700 601 675 601C650 601 625 601 600 601C575 601 550 601 525 601C500 601 475 601 450 601C425 601 400 601 375 601C350 601 325 601 300 601C275 601 250 601 225 601C200 601 175 601 150 601C125 601 100 601 75 601C50 601 25 601 12.5 601L0 601Z"
        fill="#de4467"></path>
    <path
        d="M0 521L12.5 524C25 527 50 533 75 525.7C100 518.3 125 497.7 150 487.8C175 478 200 479 225 488.7C250 498.3 275 516.7 300 517.7C325 518.7 350 502.3 375 492.8C400 483.3 425 480.7 450 487.3C475 494 500 510 525 511C550 512 575 498 600 491.5C625 485 650 486 675 492.8C700 499.7 725 512.3 750 519.7C775 527 800 529 825 529.7C850 530.3 875 529.7 887.5 529.3L900 529L900 601L887.5 601C875 601 850 601 825 601C800 601 775 601 750 601C725 601 700 601 675 601C650 601 625 601 600 601C575 601 550 601 525 601C500 601 475 601 450 601C425 601 400 601 375 601C350 601 325 601 300 601C275 601 250 601 225 601C200 601 175 601 150 601C125 601 100 601 75 601C50 601 25 601 12.5 601L0 601Z"
        fill="#d23467"></path>
    <path
        d="M0 571L12.5 570C25 569 50 567 75 560.7C100 554.3 125 543.7 150 540.3C175 537 200 541 225 542.3C250 543.7 275 542.3 300 541.7C325 541 350 541 375 538.7C400 536.3 425 531.7 450 535.3C475 539 500 551 525 557.5C550 564 575 565 600 561.8C625 558.7 650 551.3 675 549.8C700 548.3 725 552.7 750 552.2C775 551.7 800 546.3 825 542.7C850 539 875 537 887.5 536L900 535L900 601L887.5 601C875 601 850 601 825 601C800 601 775 601 750 601C725 601 700 601 675 601C650 601 625 601 600 601C575 601 550 601 525 601C500 601 475 601 450 601C425 601 400 601 375 601C350 601 325 601 300 601C275 601 250 601 225 601C200 601 175 601 150 601C125 601 100 601 75 601C50 601 25 601 12.5 601L0 601Z"
        fill="#c62368"></path>
</svg>