<svg id="visual" viewBox="0 0 900 600" width="900" height="600" xmlns="http://www.w3.org/2000/svg"
    xmlns:xlink="http://www.w3.org/1999/xlink" version="1.1">
    <rect x="0" y="0" width="900" height="600" fill="#001220"></rect>
    <path
        d="M0 381L12.5 386C25 391 50 401 75 391.8C100 382.7 125 354.3 150 345.2C175 336 200 346 225 355.7C250 365.3 275 374.7 300 369.5C325 364.3 350 344.7 375 337.8C400 331 425 337 450 350.7C475 364.3 500 385.7 525 393.2C550 400.7 575 394.3 600 383.8C625 373.3 650 358.7 675 349C700 339.3 725 334.7 750 345.3C775 356 800 382 825 391C850 400 875 392 887.5 388L900 384L900 601L887.5 601C875 601 850 601 825 601C800 601 775 601 750 601C725 601 700 601 675 601C650 601 625 601 600 601C575 601 550 601 525 601C500 601 475 601 450 601C425 601 400 601 375 601C350 601 325 601 300 601C275 601 250 601 225 601C200 601 175 601 150 601C125 601 100 601 75 601C50 601 25 601 12.5 601L0 601Z"
        fill="#fa7268"></path>
    <path
        d="M0 365L12.5 375.8C25 386.7 50 408.3 75 414.3C100 420.3 125 410.7 150 410.8C175 411 200 421 225 426C250 431 275 431 300 420.5C325 410 350 389 375 374.8C400 360.7 425 353.3 450 360.7C475 368 500 390 525 403.2C550 416.3 575 420.7 600 418.8C625 417 650 409 675 407.8C700 406.7 725 412.3 750 409.2C775 406 800 394 825 381.7C850 369.3 875 356.7 887.5 350.3L900 344L900 601L887.5 601C875 601 850 601 825 601C800 601 775 601 750 601C725 601 700 601 675 601C650 601 625 601 600 601C575 601 550 601 525 601C500 601 475 601 450 601C425 601 400 601 375 601C350 601 325 601 300 601C275 601 250 601 225 601C200 601 175 601 150 601C125 601 100 601 75 601C50 601 25 601 12.5 601L0 601Z"
        fill="#f16367"></path>
    <path
        d="M0 420L12.5 427.3C25 434.7 50 449.3 75 451.3C100 453.3 125 442.7 150 435.5C175 428.3 200 424.7 225 418.7C250 412.7 275 404.3 300 400.3C325 396.3 350 396.7 375 408C400 419.3 425 441.7 450 448.8C475 456 500 448 525 448.5C550 449 575 458 600 449.3C625 440.7 650 414.3 675 402.5C700 390.7 725 393.3 750 399C775 404.7 800 413.3 825 420.8C850 428.3 875 434.7 887.5 437.8L900 441L900 601L887.5 601C875 601 850 601 825 601C800 601 775 601 750 601C725 601 700 601 675 601C650 601 625 601 600 601C575 601 550 601 525 601C500 601 475 601 450 601C425 601 400 601 375 601C350 601 325 601 300 601C275 601 250 601 225 601C200 601 175 601 150 601C125 601 100 601 75 601C50 601 25 601 12.5 601L0 601Z"
        fill="#e85467"></path>
    <path
        d="M0 476L12.5 469.8C25 463.7 50 451.3 75 447.8C100 444.3 125 449.7 150 449.8C175 450 200 445 225 446.8C250 448.7 275 457.3 300 468.2C325 479 350 492 375 491.3C400 490.7 425 476.3 450 473.5C475 470.7 500 479.3 525 482.5C550 485.7 575 483.3 600 483.2C625 483 650 485 675 488.5C700 492 725 497 750 492.5C775 488 800 474 825 466.8C850 459.7 875 459.3 887.5 459.2L900 459L900 601L887.5 601C875 601 850 601 825 601C800 601 775 601 750 601C725 601 700 601 675 601C650 601 625 601 600 601C575 601 550 601 525 601C500 601 475 601 450 601C425 601 400 601 375 601C350 601 325 601 300 601C275 601 250 601 225 601C200 601 175 601 150 601C125 601 100 601 75 601C50 601 25 601 12.5 601L0 601Z"
        fill="#de4467"></path>
    <path
        d="M0 484L12.5 484.7C25 485.3 50 486.7 75 489C100 491.3 125 494.7 150 502.5C175 510.3 200 522.7 225 519.5C250 516.3 275 497.7 300 498.3C325 499 350 519 375 528.2C400 537.3 425 535.7 450 529.3C475 523 500 512 525 509.2C550 506.3 575 511.7 600 515.7C625 519.7 650 522.3 675 521C700 519.7 725 514.3 750 515.8C775 517.3 800 525.7 825 529.2C850 532.7 875 531.3 887.5 530.7L900 530L900 601L887.5 601C875 601 850 601 825 601C800 601 775 601 750 601C725 601 700 601 675 601C650 601 625 601 600 601C575 601 550 601 525 601C500 601 475 601 450 601C425 601 400 601 375 601C350 601 325 601 300 601C275 601 250 601 225 601C200 601 175 601 150 601C125 601 100 601 75 601C50 601 25 601 12.5 601L0 601Z"
        fill="#d23467"></path>
    <path
        d="M0 543L12.5 542.2C25 541.3 50 539.7 75 543.5C100 547.3 125 556.7 150 557.7C175 558.7 200 551.3 225 548.7C250 546 275 548 300 548.8C325 549.7 350 549.3 375 550.5C400 551.7 425 554.3 450 552.8C475 551.3 500 545.7 525 547.3C550 549 575 558 600 556.8C625 555.7 650 544.3 675 541.2C700 538 725 543 750 542C775 541 800 534 825 537.8C850 541.7 875 556.3 887.5 563.7L900 571L900 601L887.5 601C875 601 850 601 825 601C800 601 775 601 750 601C725 601 700 601 675 601C650 601 625 601 600 601C575 601 550 601 525 601C500 601 475 601 450 601C425 601 400 601 375 601C350 601 325 601 300 601C275 601 250 601 225 601C200 601 175 601 150 601C125 601 100 601 75 601C50 601 25 601 12.5 601L0 601Z"
        fill="#c62368"></path>
</svg>