<svg id="visual" viewBox="0 0 900 600" width="900" height="600" xmlns="http://www.w3.org/2000/svg"
    xmlns:xlink="http://www.w3.org/1999/xlink" version="1.1">
    <rect x="0" y="0" width="900" height="600" fill="#001220"></rect>
    <path
        d="M0 298L12.5 302.2C25 306.3 50 314.7 75 319.8C100 325 125 327 150 328.8C175 330.7 200 332.3 225 323.7C250 315 275 296 300 289.3C325 282.7 350 288.3 375 287.7C400 287 425 280 450 280.7C475 281.3 500 289.7 525 289.5C550 289.3 575 280.7 600 285.5C625 290.3 650 308.7 675 311C700 313.3 725 299.7 750 291.3C775 283 800 280 825 284.7C850 289.3 875 301.7 887.5 307.8L900 314L900 601L887.5 601C875 601 850 601 825 601C800 601 775 601 750 601C725 601 700 601 675 601C650 601 625 601 600 601C575 601 550 601 525 601C500 601 475 601 450 601C425 601 400 601 375 601C350 601 325 601 300 601C275 601 250 601 225 601C200 601 175 601 150 601C125 601 100 601 75 601C50 601 25 601 12.5 601L0 601Z"
        fill="#fa7268"></path>
    <path
        d="M0 344L12.5 346.3C25 348.7 50 353.3 75 350.2C100 347 125 336 150 331.8C175 327.7 200 330.3 225 338.3C250 346.3 275 359.7 300 366.5C325 373.3 350 373.7 375 374.5C400 375.3 425 376.7 450 372.5C475 368.3 500 358.7 525 358C550 357.3 575 365.7 600 368.7C625 371.7 650 369.3 675 364.2C700 359 725 351 750 348.2C775 345.3 800 347.7 825 351.5C850 355.3 875 360.7 887.5 363.3L900 366L900 601L887.5 601C875 601 850 601 825 601C800 601 775 601 750 601C725 601 700 601 675 601C650 601 625 601 600 601C575 601 550 601 525 601C500 601 475 601 450 601C425 601 400 601 375 601C350 601 325 601 300 601C275 601 250 601 225 601C200 601 175 601 150 601C125 601 100 601 75 601C50 601 25 601 12.5 601L0 601Z"
        fill="#f16367"></path>
    <path
        d="M0 381L12.5 380.7C25 380.3 50 379.7 75 378.2C100 376.7 125 374.3 150 382.8C175 391.3 200 410.7 225 413C250 415.3 275 400.7 300 391.8C325 383 350 380 375 383.3C400 386.7 425 396.3 450 396.2C475 396 500 386 525 387C550 388 575 400 600 405.7C625 411.3 650 410.7 675 413.7C700 416.7 725 423.3 750 422.7C775 422 800 414 825 409.2C850 404.3 875 402.7 887.5 401.8L900 401L900 601L887.5 601C875 601 850 601 825 601C800 601 775 601 750 601C725 601 700 601 675 601C650 601 625 601 600 601C575 601 550 601 525 601C500 601 475 601 450 601C425 601 400 601 375 601C350 601 325 601 300 601C275 601 250 601 225 601C200 601 175 601 150 601C125 601 100 601 75 601C50 601 25 601 12.5 601L0 601Z"
        fill="#e85467"></path>
    <path
        d="M0 457L12.5 454.3C25 451.7 50 446.3 75 449.7C100 453 125 465 150 467.2C175 469.3 200 461.7 225 459.2C250 456.7 275 459.3 300 458.8C325 458.3 350 454.7 375 455.8C400 457 425 463 450 464.8C475 466.7 500 464.3 525 464.2C550 464 575 466 600 465.5C625 465 650 462 675 458.3C700 454.7 725 450.3 750 451.7C775 453 800 460 825 460.8C850 461.7 875 456.3 887.5 453.7L900 451L900 601L887.5 601C875 601 850 601 825 601C800 601 775 601 750 601C725 601 700 601 675 601C650 601 625 601 600 601C575 601 550 601 525 601C500 601 475 601 450 601C425 601 400 601 375 601C350 601 325 601 300 601C275 601 250 601 225 601C200 601 175 601 150 601C125 601 100 601 75 601C50 601 25 601 12.5 601L0 601Z"
        fill="#de4467"></path>
    <path
        d="M0 525L12.5 518.2C25 511.3 50 497.7 75 495.3C100 493 125 502 150 500.2C175 498.3 200 485.7 225 484.7C250 483.7 275 494.3 300 495C325 495.7 350 486.3 375 489.5C400 492.7 425 508.3 450 509.7C475 511 500 498 525 493.5C550 489 575 493 600 493.3C625 493.7 650 490.3 675 489.2C700 488 725 489 750 489.2C775 489.3 800 488.7 825 489.5C850 490.3 875 492.7 887.5 493.8L900 495L900 601L887.5 601C875 601 850 601 825 601C800 601 775 601 750 601C725 601 700 601 675 601C650 601 625 601 600 601C575 601 550 601 525 601C500 601 475 601 450 601C425 601 400 601 375 601C350 601 325 601 300 601C275 601 250 601 225 601C200 601 175 601 150 601C125 601 100 601 75 601C50 601 25 601 12.5 601L0 601Z"
        fill="#d23467"></path>
    <path
        d="M0 552L12.5 553.2C25 554.3 50 556.7 75 556.8C100 557 125 555 150 553.3C175 551.7 200 550.3 225 550.7C250 551 275 553 300 552.8C325 552.7 350 550.3 375 552.7C400 555 425 562 450 562.2C475 562.3 500 555.7 525 551C550 546.3 575 543.7 600 542.5C625 541.3 650 541.7 675 539C700 536.3 725 530.7 750 534.3C775 538 800 551 825 558.3C850 565.7 875 567.3 887.5 568.2L900 569L900 601L887.5 601C875 601 850 601 825 601C800 601 775 601 750 601C725 601 700 601 675 601C650 601 625 601 600 601C575 601 550 601 525 601C500 601 475 601 450 601C425 601 400 601 375 601C350 601 325 601 300 601C275 601 250 601 225 601C200 601 175 601 150 601C125 601 100 601 75 601C50 601 25 601 12.5 601L0 601Z"
        fill="#c62368"></path>
</svg>