<svg id="visual" viewBox="0 0 900 600" width="900" height="600" xmlns="http://www.w3.org/2000/svg"
    xmlns:xlink="http://www.w3.org/1999/xlink" version="1.1">
    <rect x="0" y="0" width="900" height="600" fill="#002233"></rect>
    <path
        d="M0 427L8.8 423.5C17.7 420 35.3 413 53 422.2C70.7 431.3 88.3 456.7 106 461.3C123.7 466 141.3 450 159 440.8C176.7 431.7 194.3 429.3 212 432.5C229.7 435.7 247.3 444.3 265 454.3C282.7 464.3 300.3 475.7 318 468.8C335.7 462 353.3 437 371 424.3C388.7 411.7 406.3 411.3 423.8 424.8C441.3 438.3 458.7 465.7 476.2 473C493.7 480.3 511.3 467.7 529 455.5C546.7 443.3 564.3 431.7 582 432.3C599.7 433 617.3 446 635 456.5C652.7 467 670.3 475 688 479.5C705.7 484 723.3 485 741 481.3C758.7 477.7 776.3 469.3 794 457.7C811.7 446 829.3 431 847 429.7C864.7 428.3 882.3 440.7 891.2 446.8L900 453L900 601L891.2 601C882.3 601 864.7 601 847 601C829.3 601 811.7 601 794 601C776.3 601 758.7 601 741 601C723.3 601 705.7 601 688 601C670.3 601 652.7 601 635 601C617.3 601 599.7 601 582 601C564.3 601 546.7 601 529 601C511.3 601 493.7 601 476.2 601C458.7 601 441.3 601 423.8 601C406.3 601 388.7 601 371 601C353.3 601 335.7 601 318 601C300.3 601 282.7 601 265 601C247.3 601 229.7 601 212 601C194.3 601 176.7 601 159 601C141.3 601 123.7 601 106 601C88.3 601 70.7 601 53 601C35.3 601 17.7 601 8.8 601L0 601Z"
        fill="#0066FF" stroke-linecap="round" stroke-linejoin="miter"></path>
</svg>