<svg viewBox="-52.05 0 684.34 684.34" id="Layer_1" version="1.1" xml:space="preserve"
    xmlns="http://www.w3.org/2000/svg" xmlns:xlink="http://www.w3.org/1999/xlink"
    fill="#000000"><g id="SVGRepo_bgCarrier" stroke-width="0"></g>
    <g id="SVGRepo_tracerCarrier" stroke-linecap="round" stroke-linejoin="round"></g>
    <g id="SVGRepo_iconCarrier"> <style type="text/css"> .st0{clip-path:url(#SVGID_2_);} .st1{clip-path:url(#SVGID_4_);} .st2{clip-path:url(#SVGID_6_);} .st3{clip-path:url(#SVGID_8_);} .st4{clip-path:url(#SVGID_10_);} .st5{clip-path:url(#SVGID_12_);} .st6{clip-path:url(#SVGID_14_);} .st7{clip-path:url(#SVGID_16_);} .st8{clip-path:url(#SVGID_18_);} .st9{clip-path:url(#SVGID_20_);} .st10{clip-path:url(#SVGID_22_);} .st11{clip-path:url(#SVGID_24_);} .st12{clip-path:url(#SVGID_26_);} .st13{clip-path:url(#SVGID_28_);} .st14{clip-path:url(#SVGID_30_);} .st15{clip-path:url(#SVGID_32_);} .st16{clip-path:url(#SVGID_34_);} .st17{clip-path:url(#SVGID_36_);} .st18{clip-path:url(#SVGID_38_);} .st19{clip-path:url(#SVGID_40_);} </style> <g> <defs> <rect height="684.34" id="SVGID_29_" width="580.24" y="0"></rect> </defs> <clipPath id="SVGID_2_"> <use style="overflow:visible;" xlink:href="#SVGID_29_"></use> </clipPath> <g class="st0">
    
     <path d="M438.01,493.03c0.9,0.32,1.79,0.65,3.25,1.18c-2.06-18.8-4.1-37.47-6.15-56.14c0.27-0.06,0.54-0.11,0.81-0.17 c3.37,15.82,6.73,31.63,9.93,46.63c0.04-0.39,0.19-1.75,0.42-3.9c0.36,1.5,0.54,2.26,0.74,3.07c0.3-5.59,0.6-11.05,0.9-16.51 c0.4,0.03,0.81,0.05,1.21,0.08c-0.55,8.14-1.1,16.27-1.73,25.59c2.78-4.69,4.99-8.43,7.2-12.17c0.32,0.13,0.63,0.26,0.95,0.39 c-2.94,7.78-5.87,15.56-8.81,23.35c0.42,0.17,0.84,0.33,1.25,0.5c2.81-4.12,5.62-8.24,8.43-12.37c0.21,0.1,0.42,0.21,0.64,0.31 c-1.76,4.69-3.39,9.44-5.34,14.05c-1.35,3.2-1.21,6.14-0.11,9.4c3.02,8.95,5.74,17.99,8.7,27.38c2.52-8.06,5.62-16.05,7.43-24.33 c1.82-8.36,2.35-17,4.05-25.46c-0.47,5.66-0.94,11.32-1.42,16.98c0.17,0.04,0.35,0.08,0.52,0.12c1.8-4.11,3.71-8.18,5.31-12.37 c0.46-1.2,0.1-2.77-0.04-4.15c-1.24-12.45-2.52-24.9-3.79-37.35c0.33-0.05,0.65-0.1,0.98-0.15c2.17,10.88,4.34,21.76,6.56,32.88 c2.21-3.21,4.31-6.26,6.41-9.3c0.21,0.11,0.43,0.23,0.64,0.34c-1.17,2.67-1.95,5.61-3.59,7.96c-4.46,6.41-2.59,13.26-1.85,20 c1.14,10.36,2.58,20.68,3.9,31.02c0.18,1.41,0.4,2.82,0.62,4.4c3.69-7.42,7.27-14.62,10.85-21.82c0.28,0.12,0.57,0.24,0.85,0.35 c-0.9,2.4-1.86,4.78-2.68,7.21c-2.71,8.12-6.07,16.1-7.78,24.43c-1.09,5.34,0.48,11.18,0.53,16.79 c0.12,14.14,0.05,28.28,0.06,42.42c0,2.59,0,5.18,0,8.78c6.16-27.72,14.52-53.58,28.1-77.56c-2.44,6.5-4.85,13-7.33,19.49 c-7.73,20.24-13.67,40.97-16.84,62.42c-1.43,9.69-2.27,19.47-3.43,29.21c-0.22,1.8-0.19,3.94-1.16,5.27 c-1.17,1.6-3.35,3.54-4.98,3.44c-1.63-0.1-3.75-2.26-4.51-4.01c-0.94-2.17-0.89-4.86-0.96-7.33c-0.4-15.98-0.71-31.97-1.05-47.95 c-0.01-0.69-0.09-1.38-0.14-2.07c-0.36-0.03-0.72-0.06-1.08-0.08c-0.6,4.81-1.47,9.6-1.75,14.42 c-0.73,12.41-1.17,24.84-1.84,37.26c-0.12,2.19-0.22,4.73-1.35,6.41c-1.11,1.64-3.74,3.51-5.32,3.22 c-1.59-0.29-3.62-3.01-3.86-4.86c-0.5-3.98,0.12-8.1,0.13-12.16c0.04-16.48,0.01-32.96-0.88-49.46 c-2.44,21.17-2.3,42.44-2.72,64.85c-2.04,0.61-4.98,2.5-6.47,1.7c-2.19-1.18-3.34-4.28-4.93-6.57c0.44-0.15,0.88-0.3,1.32-0.44 c-1.07,2.13-1.63,5.1-3.35,6.17c-1.72,1.07-4.62,0.23-7.03-0.24c-6.64,2.99-9.95,0.98-9.57-6.54c0.93-18.3,2.08-36.58,2.91-54.89 c0.33-7.23,0.05-14.49,0.05-21.74c-0.45-0.01-0.9-0.01-1.35-0.02c-0.19,3.96-0.41,7.92-0.58,11.89 c-0.83,19.09-1.63,38.18-2.48,57.26c-0.12,2.74-0.5,5.46-0.76,8.2c-0.44,4.66-2.31,6.57-6.48,6.82c-4.23,0.26-5.76-2.08-6.24-5.87 c-0.35-2.81-1.09-5.57-2.08-8.31c0,3.72,0,7.45,0,10.97c-4.21,4.19-6.37,4.3-9.96,1.81c-4.38,0.47-7.67,1.7-10.32,0.88 c-3.3-1.02-3.54-4.79-3.54-8.05c0.01-9.03,0.01-18.06-0.65-27.11c0,3.62,0.05,7.24-0.01,10.86c-0.1,6.16-0.3,12.31-0.39,18.47 c-0.06,4.39-1.64,6.33-5.52,6.52c-3.7,0.18-4.92-1.23-5.26-6.03c-0.05-0.65-0.09-1.3-0.15-2.09c-0.15,0.28-0.29,0.43-0.3,0.59 c-0.36,5.37-2.06,7.72-5.7,7.85c-3.64,0.13-6.2-2.47-6.47-7.59c-0.49-9.42-0.36-18.87-0.91-28.28c-0.4-6.88-1.47-13.73-2.29-20.59 c-0.08-0.69-0.51-1.35-0.84-2.16c-0.41,15.55-0.77,30.82-1.28,46.09c-0.08,2.43-0.85,4.85-1.34,7.26 c-0.82,4.01-3.92,5.06-7.34,5.09c-3.48,0.02-5.43-2.12-5.87-5.83c-0.91,4.39-2.97,6.15-6.93,6c-3.83-0.15-5.72-2.67-5.99-6.05 c-0.61-7.82-0.85-15.68-1.23-23.52c-0.07-1.47-0.13-2.95-0.87-4.4c-0.63,6.21-1.06,12.45-1.97,18.62c-0.49,3.3-1.57,6.58-2.82,9.7 c-1.49,3.71-5.56,6.09-8.97,5.79c-4.48-0.39-6.25-1.98-7.59-7.05c-0.82-3.13-1.48-6.3-2.49-9.5c0,1.68,0.03,3.36-0.01,5.04 c-0.05,1.96,0.13,4-0.34,5.87c-0.42,1.7-1.57,3.22-2.27,4.57c-6.35,1.36-8.55,0.27-9.78-5.47c-1.42-6.63-2.33-13.36-3.47-20.05 c-0.28-1.64-0.59-3.27-1.49-4.85c0,8.3,0.18,16.6-0.07,24.88c-0.13,4.34-2.99,6.72-6.97,5.8c-1.79-0.41-3.61-2.24-4.65-3.9 c-0.96-1.53-0.89-3.7-1.41-6.21c-0.19,2.95,0.08,5.42-0.6,7.59c-0.83,2.63-3.39,2.84-5.89,2.69c-4.12-0.25-4.76-1.3-5.25-9.76 c-0.16,2.12-0.26,3.58-0.39,5.03c-0.29,3.07-1.94,4.68-5.06,4.88c-3.14,0.2-5.74-0.73-6.06-4.09c-0.76-7.8-1.16-15.63-1.66-23.44 c-0.11-1.68-0.02-3.38-0.57-5.07c0,8.28,0.01,16.56,0,24.84c-0.02,6.88-2.48,8.8-9.81,7.13c-0.52-1.48-1.13-3.26-1.62-4.66 c-0.65,1.08-1.22,2.92-2.47,3.88c-1.2,0.92-3.11,1.33-4.68,1.27c-3.53-0.13-5.48-2.6-5.82-7.09c-0.97-12.91-1.87-25.82-3.3-38.8 c-0.73,9.07-1.5,18.13-2.18,27.2c-0.33,4.31-0.39,8.63-0.79,12.93c-0.35,3.87-2.9,6.11-6.48,5.75c-3.53-0.36-5.21-2.59-5.35-6.07 c-0.07-1.68-0.16-3.36-0.33-5.04c-1.22,11.34-1.22,11.34-7.21,10.96c-0.86-0.77-1.82-1.63-2.68-2.4 c-0.85,0.88-1.63,1.69-2.95,3.06c-2.43-0.78-4.98-1.59-8-2.55c-1.24,2.11-3.9,3.03-7.04,1.86c-2.92-1.09-3.23-3.71-3.41-6.46 c-0.89-13.94-1.88-27.88-3.5-41.78c0,4.76-0.06,9.53,0.01,14.29c0.14,8.9,0.44,17.79,0.53,26.69c0.05,5.05-1.66,7.31-5.36,7.67 c-3.58,0.35-5.66-1.55-6.74-5.72c-1.1,1.37-2.11,3.57-3.81,4.56c-4.71,2.73-9.23,0.09-9.98-5.85c-0.79-6.23-0.96-12.53-1.71-18.76 c-1.94-16.19-4.06-32.36-6.1-48.54c-0.16-1.29-0.25-2.6-0.42-4.45c-4.02,4.02-4.12,8.49-3.57,13.3 c1.63,14.11,3.18,28.24,4.61,42.37c0.55,5.46,0.86,10.97,0.98,16.46c0.09,4.17-1.76,6.45-5.09,6.6c-3.72,0.17-5.88-1.88-6.41-5.48 c-0.51-3.48-0.99-7-1.13-10.51c-0.62-15.19-1.11-30.38-1.66-45.57c-0.05-1.5-0.22-2.99-0.33-4.48c-0.46-0.03-0.92-0.06-1.38-0.09 c-0.47,5.86-1.25,11.71-1.35,17.58c-0.22,13.24-0.06,26.48-0.12,39.72c-0.02,5.96-2.05,9.14-5.7,9.26 c-3.72,0.12-6.04-3.46-6.15-9.3c-0.24-12.84-0.39-25.68-0.86-38.51c-0.2-5.46-1.09-10.89-2.25-16.4 c-0.26,3.08-0.78,6.16-0.75,9.24c0.18,15.19,0.52,30.39,0.79,45.58c0.03,1.57,0.43,3.35-0.16,4.66c-0.71,1.58-2.14,3.58-3.57,3.88 c-1.42,0.3-4.18-0.91-4.69-2.14c-1.47-3.56-2.38-7.42-3-11.24C88.34,616.4,78,583.14,65.96,550.34c-0.57-1.56-1.13-3.12-1.7-4.67 c0.3-0.13,0.59-0.26,0.89-0.39c2.14,4.57,4.57,9.03,6.35,13.73c6.39,16.81,12.57,33.7,19.03,50.77c0.2,0.22,0.24,0.28,0.24,0.28 c1.52,7.57,3.04,15.13,4.56,22.7c1.58-60.17-5.04-119.75-12.22-179.36c1.73,6.98,3.52,13.95,5.16,20.95 c1.64,7.02,3.13,14.08,4.77,21.49c0.91-1.2,1.7-2.23,2.49-3.25c0.17,0.07,0.33,0.14,0.5,0.2c-0.72,2.66-1.43,5.31-2.22,8.22 c0.98,6.3,2.02,12.95,3.18,20.36c2.13-7.54,4.98-14.31,5.7-21.29c0.48-4.68-1.98-9.69-3.27-14.52c-1.17-4.37-2.55-8.68-3.79-13.03 c-0.25-0.89-0.29-1.84-0.43-2.76c0.4-0.13,0.79-0.26,1.19-0.39c2.75,5.5,5.51,11,8.39,16.74c-0.09-0.02,0.5,0.12,0.96,0.23 c2.95-10.05,5.94-20.22,8.93-30.39c0.28,0.07,0.56,0.14,0.85,0.21c-1.18,6.17-2.39,12.33-3.52,18.5 c-0.96,5.24-2.45,10.49-2.53,15.75c-0.06,3.78,1.83,7.59,2.85,11.38c0.52,0.07,1.05,0.15,1.57,0.22c1.92-3.22,3.84-6.44,6.04-9.35 c2.43,10.67,9.33,18.8,13.19,28.4c0.38-1.16,0.45-2.19,0.17-3.11c-1.68-5.68-3.44-11.35-5.01-17.17c0.59-0.58,1.02-1.01,1.45-1.44 c2.13,4.16,4.25,8.33,6.49,12.72c0.64-1.59,1.27-3.16,1.98-4.94c0,6.51,0,12.81,0,19.71c3.24-3.49,5.89-6.63,8.84-9.47 c3.68-3.53,1.93-7.75,1.29-11.44c-2.69-15.34-5.87-30.6-8.84-45.89c-0.25-1.27-0.26-2.58-0.38-3.88c0.34-0.09,0.67-0.19,1.01-0.28 c5.01,16.8,10.02,33.6,15.12,50.69c3.38-15.8,6.67-31.2,9.96-46.6c0.3,0.07,0.6,0.14,0.91,0.21c-2.75,27.07-5.49,54.14-8.24,81.2 c0.64,0.1,1.29,0.19,1.93,0.29c0.71-3.65,1.51-7.28,2.12-10.95c3.69-22.14,5.72-44.61,13.37-65.95c1.37-3.82,2.69-7.65,4.44-11.36 c-5.55,23.67-10.3,47.39-9.8,72.21c7.42-16.4,9.08-33.87,13.36-50.71c-0.62,5.51-1.25,11.01-1.87,16.52 c0.26,0.09,0.52,0.18,0.78,0.27c0.97-2.35,1.95-4.69,2.92-7.04c1.68,8.56-2.91,15.48-5.93,22.83c0.95,2.41,1.89,4.79,2.9,7.36 c1.41-3.09,2.35-6.47,4.29-9.14c8.25-11.35,9.29-24.84,11.75-37.92c0.55-2.94,0.99-5.9,2.36-9.11 c5.09,12.27,10.18,24.54,15.2,36.65c1.73-11.44,3.46-22.92,5.19-34.4c0.4,0.03,0.8,0.06,1.2,0.09 c-0.28,15.25-2.31,30.52-0.36,46.25c2.97-5.69,5.65-10.82,8.52-16.3c-0.16-1.28-0.39-3.02-0.62-4.77 c0.26-0.12,0.52-0.25,0.79-0.37c0.64,0.95,1.29,1.9,2.11,3.13c2.16-3.02,4.33-6.03,6.42-8.95c-0.3-1.3-0.58-2.52-0.94-4.07 c1.05,0.19,1.74,0.31,2.43,0.43c1.14-1.91,2.28-3.81,3.43-5.71c0.25,0.05,0.5,0.11,0.76,0.16c-0.5,2.78-0.99,5.56-1.54,8.61 c1.53,3.63,3.18,7.55,4.98,11.8c3.39-5.52,6.66-10.86,9.91-16.16c-24.98-29.8-91.26-58.4-157.28-20.84 c24.57-27.21,89.66-47.76,151.75-1.16c-1.09-3.28-2.03-6.11-3.19-9.6c1.57,1.77,2.72,3.06,3.86,4.34c0.21-0.15,0.41-0.3,0.62-0.45 c0.41,2.54,0.83,5.07,1.38,8.47c5.55,4.86,11.64,10.19,17.13,15c-20.05-39.29-51.89-67.73-91.55-88.33 c11.61,0.83,22.43,4.19,32.76,9.58c-23.22-18.14-48.78-32.63-72.77-49.51c28.17,1.23,49.92,16.17,70.94,32.84 c-20.32-25.02-47.22-42.8-70.81-64.18c0.16-0.33,0.33-0.67,0.49-1c4.75,1.44,9.58,2.65,14.22,4.37 c13.97,5.18,26.36,13.09,37.5,22.86c24.47,21.46,43.39,47.24,57.04,76.65c8.18,17.62,14.79,35.96,22.21,53.93 c1.86,4.5,3.53,9.28,6.35,13.16c6.45,8.85,10.34,18.99,15.48,28.29c6.28-4.43,3.56-10.84,2.98-16.41 c-2.62-25.42-10.49-49.27-22.76-71.64c-7.45-13.59-17.15-25.54-27.78-36.78c-7.29-7.71-14.41-15.57-21.68-23.3 c-1.59-1.69-3.5-3.07-5.26-4.59c0.17-0.34,0.34-0.68,0.52-1.02c4.59,2.23,9.28,4.28,13.76,6.71c23.68,12.84,38.36,33.54,49.3,57.3 c8.19,17.78,13.33,36.54,16.52,55.84c0.15,0.88,0.58,1.72,1.03,3.03c1.47-4.41,3.55-8.32,3.94-12.39 c0.42-4.3-0.33-8.86-1.32-13.13c-6.14-26.21-16.04-50.86-32.76-72.18c-9.37-11.95-22.3-19.37-36.41-24.79 c-7.68-2.95-15.25-6.23-22.86-9.35c0.08-0.42,0.16-0.85,0.24-1.27c8.45,0.92,16.9,1.83,25.36,2.75c0.12-0.19,0.25-0.38,0.37-0.57 c-11.47-5.34-22.94-10.68-34.41-16.02c0.06-0.32,0.12-0.64,0.17-0.96c7.68,1.2,15.36,2.41,24.17,3.79 c-17.44-13.62-35.86-24.44-50.37-40.42c10.89,0.7,28.75,8.1,39.2,16.79c11.14,9.25,21.6,19.31,32.57,29.04 c-9.57-11.64-15.83-25.1-21.54-39.49c15.01,13.55,24.24,30.94,36.13,45.47c-2.45-9.43-5.02-19.33-7.59-29.22 c0.52-0.24,1.05-0.47,1.57-0.71c2.08,3.46,4.55,6.75,6.16,10.41c3.3,7.48,5.93,15.25,9.22,22.73 c6.51,14.85,13.69,29.42,19.84,44.41c7.89,19.24,13.56,39.2,17.01,60.22c3.33-8.78-4.77-60.36-15.27-89.7 c-10.43-29.14-27.09-54.22-47.07-77.33c-0.37,0.21-0.73,0.42-1.1,0.63c5.08,9.57,10.16,19.14,15.24,28.71 c-0.22,0.2-0.44,0.41-0.66,0.61c-0.98-0.63-2.12-1.1-2.9-1.92c-14.6-15.28-31.97-26.62-50.51-36.55 c-9.69-5.19-18.65-11.74-27.62-18.25c17.79,1.58,32.87,9.57,47.32,19.12c0.24-0.27,0.47-0.54,0.71-0.82 c-5.06-4.81-10.04-9.71-15.22-14.39c-5.32-4.81-10.94-9.3-16.26-14.12c-5.24-4.75-10.42-9.58-15.33-14.65 c-4.95-5.12-9.54-10.58-13.96-16.28c12.12,3.36,23.04,9.03,33.07,16.16c9.92,7.07,19.28,14.93,29.8,23.16 c-8.83-11.79-17.45-22.56-23.15-36.13c15.34,9.96,25.46,23.66,35.18,36.24c-2.03-7-4.5-14.82-6.53-22.76 c-0.98-3.82-1.15-7.86-1.69-11.79c0.42-0.17,0.84-0.34,1.26-0.51c5.17,10.94,10.24,21.93,15.54,32.81 c5.32,10.91,10.88,21.7,17.03,32.28c-1.96-9.45-4.32-18.67-1.86-28.84c2.3,6.31,4.82,12.08,6.51,18.09 c5.69,20.29,13.09,39.84,22.07,58.94c7.74,16.45,13.34,33.78,15.9,51.93c0.19,1.33,0.8,2.6,1.35,4.32 c0.47-0.71,0.8-0.97,0.81-1.25c0.43-14.9,1.02-29.94-2.48-44.46c-4.05-16.82-9.07-33.46-14.46-49.91 c-7.48-22.84-18.57-44.06-30.61-64.81c-9.62-16.58-18.84-33.39-28.24-50.1c0.38-0.34,0.77-0.68,1.15-1.03 c6.34,6.24,13.16,12.07,18.93,18.8c19.75,23.04,32.93,49.88,44.04,77.86c7.63,19.21,12.5,39.09,15.06,59.57 c0.08,0.61,0.42,1.19,1.32,1.72c-0.76-18.86-1.53-37.72-2.29-56.58c0.43-0.06,0.85-0.12,1.28-0.18 c1.58,10.34,3.15,20.68,4.74,31.07c1.46-18.83,7.03-36.52,14.41-53.68c5.7-13.28,7.7-27.49,11.18-41.34 c1.92-7.65,5.32-14.93,8.06-22.38c0.58,0.17,1.16,0.34,1.74,0.5c-1.64,10.46-3.27,20.91-5.03,32.14 c9.16-18.46,15.35-37.83,30.84-51.93c-3.65,10.08-7.3,20.16-10.95,30.24c10.4-10.73,21.19-20.74,35.48-25.91 c0.27,0.27,0.54,0.53,0.81,0.8c-9,10.28-17.99,20.56-26.27,30.02c7.9-2.83,16.79-6.02,25.68-9.2c0.24,0.5,0.49,1.01,0.73,1.51 c-4.66,3.41-9.39,6.71-13.95,10.24c-8.87,6.85-18.25,13.19-26.35,20.86c-17.22,16.28-28.12,36.55-34.24,59.35 c-4.33,16.12-8.4,32.25-8.83,49.15c-0.3,11.72-1.96,23.41-3.06,35.11c-0.94,9.96-2.51,19.89-2.79,29.86 c-0.49,17.48-0.25,34.99-0.18,52.48c0.01,2.7,0.76,5.4,0.97,6.76c1.43-18.88,2.44-39.15,4.61-59.29 c3.08-28.53,10.54-55.83,27.35-79.66c13.64-19.33,30.5-35.01,53.31-43.07c4.26-1.51,8.79-2.24,13.43-2.62 c-7.47,5.36-14.95,10.71-22.42,16.08c-36.07,25.96-56.09,61.84-64.81,104.73c-3.67,18.07-6.12,36.28-7.01,54.73 c-0.82,16.98-2.07,33.94-3.22,50.91c-0.63,9.26-1.75,18.49-2.08,27.76c-0.26,7.43,0.57,14.89,0.53,22.33 c-0.1,17.03-0.44,34.06-0.67,51.09c-0.02,1.65,0,3.31,0,4.96c0.49,0,0.98,0,1.47,0c0-19.09,0-38.17,0-57.93 c1.39,0.68,1.73,0.85,2.68,1.31c0.75-11.97,1.56-23.68,2.17-35.4c0.25-4.83,1.78-9.08,3.69-13.52c2.58-6.01,3.52-12.71,5.67-18.93 c3.91-11.29,4.11-22.99,4.95-34.72c2.07-28.92,10.09-56.06,26.2-80.48c1.28-1.94,2.92-3.65,4.43-5.44 c0.21-0.25,0.59-0.35,1.02-0.59c-3.13,6.07-6.58,11.82-9.15,17.94c-7.1,16.87-15.56,33.35-17.81,51.84 c-1.13,9.25-1.34,18.62-2.03,28.99c4.21-6.7,7.21-12.85,11.47-17.94c8.98-10.7,18.53-20.94,28.03-31.19 c10.68-11.52,21.21-23.2,32.45-34.16c12.7-12.39,25.06-25.23,40.17-34.93c13.98-8.98,29.06-14.49,45.65-15.76 c0.99-0.08,1.99-0.01,3.84-0.01c-19.25,14.86-41.08,23.89-60.26,37.42c17.6-7.95,36.04-11.33,55.14-11.32 c0.11,0.33,0.22,0.66,0.33,0.99c-4.22,1.78-8.4,3.65-12.66,5.32c-15.81,6.18-31.84,11.85-47.44,18.54 c-23.62,10.13-44.95,23.79-61.82,43.6c-8.46,9.93-17,19.82-24.99,30.12c-2.97,3.83-4.49,8.79-6.93,13.49 c-0.81,0.49-1.74,0.6-1.84,0.96c-1.33,4.72-2.21,9.47,0.08,14.43c2.08-4.11,4-7.9,5.92-11.69c-0.78-0.99-1.4-1.8-2.03-2.6 c0.92,0.4,1.84,0.8,2.99,1.3c10.52-15.1,22.72-28.83,37.95-39.16c1.51-5.27,2.93-10.25,4.36-15.22c0.29,0.07,0.57,0.15,0.86,0.22 c-1.06,4.32-2.13,8.65-3.29,13.37c31.5-20,64.16-30.37,100.97-17.98c-44.07-0.9-82.01,13.88-114.5,44.1 c0.68,6.6,1.37,13.32,2.03,19.76c4.23-7.38,8.56-14.92,12.88-22.46c0.33,0.17,0.67,0.35,1,0.52 c-5.12,14.07-14.76,26.71-14.76,42.39c0.47,0.21,0.95,0.42,1.42,0.62c0.62-0.96,1.21-1.93,1.87-2.87 c4.83-6.92,8.44-15.44,14.82-20.35c8.37-6.44,8.51-15.49,11.81-23.6c0.38-0.94,0.67-1.93,1.42-2.79 c-0.89,6.21-1.78,12.43-2.68,18.73c2.78-1.07,5.4-2.08,8.01-3.09c0.32,0.31,0.63,0.62,0.95,0.93 c-9.69,2.06-10.29,9.47-11.13,16.87c-1.54,13.6-3.26,27.17-4.86,40.76c-0.25,2.15-0.44,4.34-0.26,6.48 c0.15,1.83,0.77,3.64,1.36,5.41c0.85,2.57,1.86,5.08,2.95,7.99c2.96-11.2,5.45-22.23,8.82-32.97c3.36-10.72,7.6-21.17,12.28-31.45 c-5.03,18.89-10.05,37.78-14.94,56.14c1.5,1.91,2.48,3.15,3.03,3.86c5.15-16.3,10.56-33.04,15.65-49.87 c0.78-2.59,0.11-5.61,0.11-9.14c1.34,1.62,2.39,2.9,3.73,4.53c0.94-3.65,1.76-6.86,2.67-10.43c0.5,1.07,0.86,1.84,1.41,3.02 c0.66-1.15,1.18-2.06,1.7-2.96c0.16,0.06,0.32,0.11,0.48,0.17c-0.8,2.48-1.61,4.96-2.3,7.08c0.59,2.21,1.08,4.07,1.31,6.29 c-0.58,0.8-1.17,1.24-1.16,1.66c0.15,5.72,0.38,11.43,0.61,17.14c0.04,1.04,0.21,2.08,0.32,3.12c0.25,0.01,0.5,0.03,0.74,0.04 c1.56-3.63,3.12-7.26,4.2-9.78C439.76,498.66,438.88,495.84,438.01,493.03z M348.55,552.8c0.64,1.41,1.28,2.82,1.99,4.39 c5.81-10.45,6.15-12.66,2.26-19.12c-1.73,5.29-3.22,9.84-4.99,14.99c-1.8,4.98-1.7,10.03-1.08,15.47 C350.51,563.09,349.58,557.78,348.55,552.8z M257.42,483.7c-2.35,4.19-4.9,8.29-6.95,12.62c-0.88,1.86-1.43,4.4-0.88,6.28 c0.74,2.54,2.66,4.74,4.25,7.37c0-5.47,0-10.65,0-16.03c1.08,0.58,1.71,0.92,2.94,1.58c0.41-4.32,0.77-8.15,1.65-11.54 c0.09,2.99,0.13,5.99,0.27,8.98c0.15,3.16,1.78,5.7,5.4,8.04c-1.28-8.03-2.47-15.56-3.67-23.09c-0.22-0.01-0.43-0.03-0.65-0.04 C259.18,479.79,258.58,481.71,257.42,483.7z M238.5,515.57c0.36-1.71,0.72-3.41,1.19-5.65c-0.42-1.12-1.05-2.79-1.74-4.63 c-7.27,15.78-10.36,27.26-7.58,33.54c1.89-5.25,4.11-11.42,6.86-17.25c-0.73,4.52-1.46,9.04-2.19,13.56 c0.18,0.07,0.36,0.15,0.54,0.22c2.36-4.2,4.72-8.4,7.31-13.02c-0.64-2.35-1.39-5.12-2.32-8.52 C239.77,514.86,239.4,515.32,238.5,515.57z M362.79,478.83c-0.39-0.47-0.78-0.95-1.35-1.64c-7.58,11.49-14.56,22.87-17.48,36.28 c1.9-2.98,3.8-5.96,5.89-9.23c1.6,2.89,2.76,4.98,4.06,7.33c1.21-1.83,2.09-3.17,2.97-4.51c0.34,0.07,0.68,0.14,1.02,0.21 c0,1.68,0,3.36,0,5.28c1.54,2.28,3.17,4.7,5.44,8.06c1.6-6.38,2.61-11.72,4.32-16.82c1.37-4.09,1.08-7.76-0.35-11.69 c-1.59-4.36-2.77-8.87-3.53-13.22c1.8,3.33,3.59,6.66,5.42,10.05c0.62-0.92,1.14-1.69,1.25-1.84c0.32,2.23,0.7,4.82,1.08,7.42 c0.5-0.05,1-0.09,1.49-0.14c0-10.31,0-20.63,0-31.4c-3.69,4.62-7.17,8.98-10.55,13.22C362.79,477.24,363.05,478.07,362.79,478.83z M202.73,537.5c1.35-1.66,3.27-3.12,3.94-5.02c2.85-8.03,5.32-16.19,8.33-25.54c-4.26-12.59-8.87-26.22-13.48-39.84 c-1.85,7.88-3.06,15.53-4.2,23.19c-1.68,11.33-3.22,22.68-4.99,34c-0.81,5.2,0.19,7.76,4.71,10.28c0.71-2.52,1.43-5.06,2.14-7.6 c0.1,3.33-0.36,6.53-0.73,9.73c-0.17,1.46-0.32,3.04,2.07,3.39c-1.16,3.13-2.44,6.21-3.44,9.39c-2.7,8.6-1.57,15.31,3.12,20.09 c1.96-10.76,3.93-21.6,5.94-32.61C204.79,537.41,203.77,537.75,202.73,537.5z M476.56,510.68c0-0.56,0-1.11,0-1.67 c-0.88,0.57-1.25,1.22-1.47,1.92c-4.3,14.09-8.82,28.12-12.74,42.32c-1.49,5.39-2.27,11.19-2.07,16.76 c0.2,5.61,2.02,11.16,3.12,16.73c1.4-1.12,1.8-2.18,2.2-3.24c2.17-5.69,4.43-11.34,6.46-17.07c0.97-2.75,1.87-5.63,2.13-8.51 c0.73-8.32,1.04-16.68,1.68-25.02c0.34-4.5,1.23-8.97,1.46-13.47C477.47,516.74,476.83,514.01,476.56,510.68z M440.96,633.99 c1.19-13.01,2.31-26.03,3.57-39.03c1.17-12.07,2.48-24.13,3.74-36.19c0.42-4.02,0.85-8.04,1.29-12.06 c1.02-9.34,2.95-18.77-3.25-28.57c-1.56,7.85-3.59,14.75-4.18,21.76c-0.85,10.14-0.7,20.37-0.89,30.57 c-0.27,14.39-0.29,28.78-0.76,43.16c-0.39,11.96-1.28,23.9-1.94,35.85c0.23,0.01,0.47,0.02,0.7,0.04 C439.8,644.59,440.36,639.66,440.96,633.99z M391.27,489.15c-1.09,1.62-2.28,3.18-3.23,4.87c-2.1,3.71-4.27,7.47-1.44,11.81 c1.19-2.8,2.39-5.65,3.6-8.51c0.17,0.06,0.35,0.13,0.52,0.19c-1.04,3.8-2.07,7.59-3.1,11.37c1.09,3.14,2.16,6.21,3.28,9.44 c3.75-3.36,10.27-33.17,8.71-39.57C396.83,482.25,394.24,485.49,391.27,489.15z M417.6,538.18c-0.51,6.21-1.3,12.41-1.48,18.63 c-0.26,8.84-0.06,17.69-0.06,27.29c1.25-6.83,2.42-12.82,3.43-18.84c1.03-6.15,2.06-12.31,2.8-18.49 c0.72-6.08,1.03-12.21,1.6-18.32c0.57-6.07,1.24-12.13,1.87-18.19c-0.53-0.09-1.06-0.17-1.59-0.26 C421.98,519.17,419.8,528.34,417.6,538.18z M398.68,592.55c-0.25-16.81,2.01-33.8-3.81-51.3c-0.64,2.32-1.4,3.74-1.37,5.15 c0.15,6.52,0.45,13.04,0.82,19.56c0.62,11.08,1.67,22.14,1.93,33.23c0.34,14.11,0.08,28.23,0.08,42.34 c0.04-0.01,0.09-0.01,0.13-0.02C397.21,625.45,397.95,609.39,398.68,592.55z M466.54,592.17c-0.31,1.12-0.91,2.25-0.88,3.35 c0.3,8.5,0.74,16.99,1.13,25.49c0.31-0.01,0.62-0.02,0.93-0.03c3.03-17.66,6.05-35.33,9.08-52.99c-0.41-0.11-0.81-0.22-1.22-0.33 C472.68,575.65,469.78,583.64,466.54,592.17z M235.92,502.95c-1.4-2.89-2.79-5.77-4.22-8.73c-9.52,15.81-10.05,18.83-6.15,34.55 C228.97,520.38,232.41,511.97,235.92,502.95z M368.88,576.24c0.11,14.26,0.22,28.51,0.34,42.77c0.37,0,0.75,0,1.12,0 c0.3-6.64,0.5-13.29,0.93-19.92c0.23-3.49,0.86-6.95,1.31-10.43c1.26-9.7,5.02-19.2,1.57-29.48 C372.39,564.63,370.63,570.07,368.88,576.24z M116.87,566.24c-0.28-1.47-0.57-2.93-0.95-4.94c-6.9,15.27-2.29,29.98,0.14,44.69 C117.62,592.98,120.65,580.01,116.87,566.24z M216.2,533.87c-1.82,2.96-4.5,5.71-5.29,8.92c-2.41,9.74-4.08,19.66-5.98,29.18 c1.81,1.64,2.98,2.7,4.39,3.98c1.33-8.61,2.08-16.67,3.94-24.46C214.61,545.84,217.1,540.48,216.2,533.87z M330.98,570.91 c0-7.39,0-14.78,0-21.78c-5.94,4.12-7.55,31.62-4.78,42.06C327.74,584.67,329.29,578.14,330.98,570.91z M147.06,540.69 c3.02-6.15,2.55-12.24-0.51-18.98c-2.49,3.41-4.73,6.49-6.68,9.18c1.56,6.42,2.96,12.19,4.39,18.05 C145.18,546.37,146.08,543.85,147.06,540.69z M153.37,556.13c-0.54-5.28-1.09-10.56-1.63-15.85c-0.29,6.74-4.82,12.65-3.28,19.74 c1.43,6.61,1.92,13.43,2.83,20.16c0.51-0.03,1.02-0.06,1.53-0.09C153.02,572.33,153.21,564.57,153.37,556.13z M178.26,539.62 c0.15,9.25,0.3,18.51,0.45,27.76c1.34-2.47,1.88-4.86,2.12-7.29c0.89-8.92,5.76-17.73,0.77-26.84c-0.37-0.68-0.14-1.68-0.19-2.53 c-0.22-0.05-0.44-0.09-0.66-0.14C179.99,533.39,179.22,536.19,178.26,539.62z M259.9,523.72c-1.33-2.03-2.65-4.05-4-6.11 c-5.7,8.63-0.24,16.71,0.97,25.05c1.31-2.37,2.33-4.82,3.35-7.27c1.03-2.47,2.05-4.93,2.99-7.2 C262.1,526.64,261.2,525.38,259.9,523.72z M248.5,552.36c0.45,4.67,0.9,9.35,1.35,14.02c4.68-13.55,5.6-15.87,0.46-34.92 c-0.58,3.56-1.28,6.74-1.56,9.96C248.46,544.79,248.56,548.2,248.5,552.36z M310.05,509.22c-0.13-4.63-0.26-9.26-0.39-13.89 c-0.34,0.02-0.68,0.05-1.03,0.07c0,1.15,0,2.31,0,3.46c0.01,4.23,0.66,8.58-0.14,12.65c-1.08,5.51-3.27,10.48-1.18,16.53 c1.94,5.65,2.01,11.94,2.9,17.95c0.27-3.68,0.31-7.34,0.26-11C310.35,526.64,310.19,518.27,310.05,509.22z M330.22,544.07 c4.23-7.81,7.79-15.8,6.88-25.17c-1.94,1.48-3.7,3.14-4.32,5.15c-1.31,4.28-2.06,8.73-2.95,13.12c-0.54,2.66-0.89,5.35-1.33,8.03 c0.21,0.03,0.42,0.06,0.63,0.09C329.37,544.98,329.6,544.66,330.22,544.07z M253.23,582.37c0,4.98,0,9.96,0,14.94 c4.84-13.06,4.66-26.34,2.69-40.84C254.94,565.58,254.09,573.59,253.23,582.37z M352.9,578.65c0-3.7,0-7.39,0-11.09 c-0.35-0.01-0.7-0.02-1.05-0.03c-4.23,9.64-6.33,19.69-6.06,30.18c0.34,0.09,0.67,0.17,1.01,0.26 C348.74,591.73,350.66,585.5,352.9,578.65z M239.87,500.58c0.88,1.39,1.76,2.77,2.71,4.26c5.12-7.65-1.3-13.86-1.49-21.78 c-2.43,3.49-4.17,5.99-5.97,8.58C236.59,494.5,238.05,497.33,239.87,500.58z M242.69,548.82c0.49-7.23,0.98-14.46,1.47-21.7 c-7.54,9.21-5.26,19.31-4.08,30.18C241.01,554.09,241.68,551.74,242.69,548.82z M306.47,475.96c-0.21-0.75-0.42-1.5-0.76-2.74 c-4.01,9.9-4.33,19.57-3.41,30.33c0.75-1.38,1.02-1.94,1.34-2.47C308.17,493.35,306.74,484.92,306.47,475.96z M432.45,527.42 c-3.51,9.2-0.76,18.27,0.18,26.88c5.34-9.23,2.78-19.08,0.85-29.38C433.08,525.78,432.83,526.31,432.45,527.42z M162.02,606.62 c0.7,8.3,1.41,16.59,2.11,24.89c-0.43-17.62,2.63-35.52-4.68-52.61C160.3,587.9,161.16,596.89,162.02,606.62z M165.32,575.19 c0.04-4.95,0.09-9.9,0.1-14.85c0.02-4.82,0-9.65,0-14.47c-6,11.25-4.08,22.46-0.58,34.47 C165.01,578.29,165.11,577.04,165.32,575.19z M359.8,533.99c-1.75,5.02,0.21,9.34,2.65,14.61c2.07-8.24,5.88-15.36,1.34-23.73 C362.4,528.11,361.25,530.78,359.8,533.99z M172.96,531.15c-0.37,3.82-0.74,7.64-1.11,11.46c0.4,0.05,0.8,0.11,1.2,0.16 c2.18-6.17,4.36-12.33,6.71-18.97c-0.74-2.16-1.63-4.79-2.53-7.42c-0.33-0.04-0.65-0.07-0.98-0.11 C175.17,521.01,174.08,525.73,172.96,531.15z M351.53,516.17c-0.58-2.06-1.16-4.12-1.88-6.66c-4.94,7.04-7.48,17.29-5.71,24.36 C346.71,527.55,349.05,522.17,351.53,516.17z M116.31,513.21c0.78,2.46,1.55,4.93,2.45,7.78c6.01-9.52,6.01-9.52-0.63-20.83 C117.78,504.53,113.36,507.94,116.31,513.21z M275.93,530.16c-0.6-3.4-1.2-6.81-1.8-10.21c-0.59,3.46-0.86,6.95-0.53,10.39 c0.68,7.03,1.57,14.05,2.63,21.04c0.2,1.31,1.57,2.45,2.39,3.67c0.56-0.2,1.12-0.4,1.68-0.6c-0.53-3.74-0.94-7.5-1.62-11.21 C277.92,539.06,276.9,534.93,275.93,530.16z M106.1,535.9c-0.36,6.39-0.72,12.78-1.08,19.18c0.34,0.04,0.68,0.08,1.02,0.12 c1.65-4.44,3.3-8.87,4.81-12.95c-0.98-4.76-1.86-9.07-2.75-13.39c-0.28,0-0.56,0.01-0.84,0.01 C106.88,530.98,106.5,533.09,106.1,535.9z M368.08,559.39c0,1.46,0,2.93,0,5.01c5.58-8.7,6.72-17.21,2.51-26.37 C369.77,544.92,368.94,551.8,368.08,559.39z M247.54,610.33c0.29-1.53,0.8-3.05,0.82-4.58c0.08-9.37,0.04-18.74,0.04-28.12 c-1.43,2.84-2.77,5.82-2.87,8.84c-0.3,9.08-0.11,18.17-0.11,27.25c0.42,0.04,0.84,0.08,1.26,0.11 C246.95,612.87,247.23,611.91,247.54,610.33z M263.46,509.23c-1.72-2.99-3.43-5.98-5.15-8.97c-0.24,0.17-0.48,0.33-0.72,0.5 c0,3.84,0,7.68,0,12.6c1.24,2.13,3.05,5.24,5.02,8.61C262.97,517.69,263.29,513.75,263.46,509.23z M356.69,517.43 c-0.57,0.05-1.52-0.09-1.66,0.18c-1.3,2.49-2.45,5.06-3.51,7.31c1.04,2.71,1.94,5.04,3.04,7.9c2.07-3.51,3.95-6.7,5.87-9.95 C359.21,521.05,358.13,519.46,356.69,517.43z M113.17,536.42c0.07,0.11,0.12,0.26,0.22,0.32c0.06,0.04,0.26-0.02,0.3-0.09 c2.12-3.4,3.98-6.71,2.15-11.05c-1.29-3.05-1.85-6.4-2.83-9.98C108.78,522.75,111.9,529.33,113.17,536.42z M386.15,520.77 c-1.21-4.98-2.41-9.96-3.62-14.94c-0.48,0.07-0.96,0.14-1.44,0.21c0.63,8.02,1.25,16.03,1.88,24.06 C385.3,527.5,388.73,525.44,386.15,520.77z M343.93,548.72c2.54-6.36,8.84-11.65,5.4-20.3c-1.87,3.38-4.15,6.2-5,9.4 C343.39,541.42,343.75,545.36,343.93,548.72z M276.4,504.9c-3.16,5.99,0.1,10.87,2.68,16.79c1.88-7.13,3.03-13.28-0.91-19.55 C277.58,503.12,277.18,503.78,276.4,504.9z M453.83,586.36c0.46-2.02,1.09-4.03,1.33-6.08c0.23-1.93,0.05-3.92,0.05-5.88 c-4.85,11.6-6.26,23.62-5.77,35.81C450.87,602.57,452.33,594.8,453.83,586.36z M438.09,514.89c-2.93,4.79-1.34,9.74-0.51,14.66 c4.04-7.38,5.46-14.97,3.87-21.17C440.34,510.46,439.31,512.38,438.09,514.89z M299.72,530.16c2.39,1.06,2.22-0.56,2-2.01 c-0.97-6.46-1.98-12.92-3.04-19.77c-1.5,1.78-2.69,3.2-3.62,4.3C296.66,518.6,298.15,524.07,299.72,530.16z M128.78,578.37 c0.48,3.29,0.97,6.58,1.57,10.72c1.59-2.32,2.61-3.8,3.63-5.28c-1-5.8-1.98-11.47-2.95-17.13c-0.25-0.03-0.51-0.05-0.76-0.08 C129.78,570.28,129.3,573.96,128.78,578.37z M191.84,502.09c-0.12-0.31-0.24-0.61-0.35-0.92c-0.11,0.07-0.28,0.11-0.32,0.21 c-1.61,4.36-3.53,8.64-4.72,13.12c-1.09,4.1-2.87,8.54,1.29,12.39C189.09,518.8,190.43,510.71,191.84,502.09z M284.41,533.1 c1.72,5.46,3.44,10.92,5.21,16.55c2.86-4.88-1.5-19.79-7.49-23.87C282.93,528.55,283.51,530.56,284.41,533.1z M326.39,609.13 c0,5.32,0,10.64,0,15.96c0.29,0.01,0.59,0.01,0.88,0.02c1-11.65,1.99-23.29,2.99-34.94c-0.36-0.05-0.71-0.09-1.07-0.14 C328.26,596.16,327.33,602.28,326.39,609.13z M303.84,563.46c-0.18-1.96-0.35-3.93-0.53-5.89c-0.42,0.02-0.85,0.05-1.27,0.07 c-0.14,12.88,0.89,25.73,1.93,38.58C303.97,585.5,303.97,574.77,303.84,563.46z M119.47,538.53c-0.35-1.33-0.69-2.65-1.21-4.61 c-1.37,3.42-2.54,6.32-3.57,8.88c1.05,3.32,1.95,6.19,2.66,8.43c1.21-0.82,2.69-1.81,3.77-2.53 C120.48,545,119.98,542.09,119.47,538.53z M139.94,555.52c-0.33-1.93-0.66-3.85-0.98-5.77c-4.73,6.32-2.44,13.03-1.42,19.69 C139.12,565.15,141.64,561.07,139.94,555.52z M227.57,582.44c0.11,1.48,0.23,2.96,0.43,5.48c3.84-7.71,5.6-14.65,4.68-22.1 c-0.39-0.09-0.78-0.19-1.17-0.28C230.26,570.97,229.01,576.4,227.57,582.44z M186.36,554.61c0,6.42,0,12.85,0,19.27 c0.4-0.01,0.79-0.02,1.19-0.02c1.84-7.49,3.55-14.98-0.24-22.64C186.98,552.27,186.7,553.13,186.36,554.61z M299.71,539.75 c-0.86-2.62-1.73-5.23-2.59-7.85c-0.33,0.1-0.66,0.21-0.98,0.31c1.36,8.34,2.72,16.68,4.05,24.89 C303.6,551.56,301.02,545.96,299.71,539.75z M125.88,519.77c1.38,5.04,2.76,10.09,4.35,15.92c1.27-1.91,2.2-3.31,3.28-4.94 c-2.15-4.52-4.2-8.84-6.43-13.53C126.49,518.28,126.25,518.73,125.88,519.77z M211.53,530.44c-0.28,1.98-0.55,3.95-0.83,5.93 c6-7.63,6.69-10.67,4.24-19.32C213.82,521.28,212.7,525.53,211.53,530.44z M375.07,518.57c-1,4.55-2,9.1-2.99,13.65 c5.81-6.16,5.81-6.16,4.16-18.06C375.76,515.81,375.45,516.89,375.07,518.57z M135.4,549.16c2.76-2.83,2.77-6.08,0.04-13.04 c-3.23,4.4-3.79,11.05-1.27,15.24C134.5,550.81,134.84,550.26,135.4,549.16z M477.54,535.16c0,6.98,0,13.96,0,20.94 c0.43,0.01,0.85,0.01,1.28,0.02c2.84-8.38-0.47-16.89-0.7-25.4C477.96,532.04,477.81,533.37,477.54,535.16z M248.43,506.46 c-0.1-0.08-0.2-0.18-0.31-0.23c-0.06-0.03-0.22,0.01-0.24,0.07c-2.73,5.4,0.41,9.88,2.23,15.43c1.14-3.05,1.99-5.34,2.76-7.38 C251.35,511.67,250.02,509.32,248.43,506.46z M379.06,533.16c-0.1-0.9-0.19-1.8-0.37-3.47c-1.91,2.52-3.28,4.35-4.64,6.15 c1.21,3.85,2.34,7.43,3.46,11c0.51-0.05,1.02-0.09,1.53-0.14C379.04,542.41,379.04,538.11,379.06,533.16z M193.19,548.54 c3.4-5.43,1.46-10.15-1.84-14.69c-0.39,0.03-0.78,0.06-1.17,0.1c0.4,5.36,0.8,10.71,1.2,16.07c0.33-0.02,0.65-0.03,0.98-0.05 C192.55,549.63,192.73,549.29,193.19,548.54z M355.66,561.54c0.24,0.6,0.43,1.22,0.72,1.79c0.3,0.57,0.69,1.09,1.14,1.78 c2.91-5.44,3.19-10.48-0.12-15.66c-0.5,1.81-1.07,3.39-1.34,5.01C355.71,556.61,355.6,558.81,355.66,561.54z M401.91,574.19 c0.03,6.52,0.06,13.04,0.1,19.55c4.46-7.57,2.65-14.86-0.09-22.83C401.92,572.27,401.92,572.92,401.91,574.19z M480.75,589.34 c0-9.85,0-19.69,0-29.54c-0.46,0.01-0.93,0.01-1.39,0.02c-1.24,13.87,0.58,27.7,1.4,41.55 C480.76,597.61,480.76,593.86,480.75,589.34z M411.83,556.18c-0.27-1.09-0.54-2.18-0.79-3.2c-3.19,7.54-1.11,14.84,0.98,22.9 C412.03,569.04,412.03,562.93,411.83,556.18z M194.17,585.5c0-6.55,0-13.11,0-19.66c-0.58,0-1.16,0-1.74,0.01 c0,9.16,0,18.32,0,27.48c0.08,0.01,0.16,0.02,0.24,0.03c0-3.79,0-7.57,0-11.36c0.17,0.01,0.34,0.01,0.51,0.02 c0.13,1.55,0.26,3.1,0.39,4.66c0.18-0.07,0.38-0.12,0.52-0.23C194.16,586.37,194.12,586.18,194.17,585.5z M379.5,614.99 c0,3.36,0,6.72,0,10.07c0.17,0.01,0.33,0.03,0.5,0.04c0.84-11.94,1.68-23.88,2.52-35.83c-0.43-0.04-0.86-0.07-1.29-0.11 C380.69,597.54,380.15,605.91,379.5,614.99z M251.31,626.43c0,5.15,0,10.29,0,15.44c0.18-0.01,0.36-0.01,0.55-0.02 c0.54-11.85,1.08-23.7,1.66-36.37C251.23,612.6,250.68,619.12,251.31,626.43z M126.54,559.08c0.1,0.6,0.21,1.2,0.49,2.87 c3.76-6.95,0.61-13.14,0.47-19.28c-1,1.95-1.81,4.02-1.82,6.09C125.67,551.99,126.2,555.22,126.54,559.08z M121.84,533.39 c0.85,2.22,1.7,4.44,2.61,6.82c1.78-2.33,1.78-2.33-1.55-17.02c-0.38,0-0.77,0-1.15-0.01 C121.75,526.37,121.75,529.56,121.84,533.39z M120.27,560.36c0.26,2.06,0.48,4.13,0.81,6.18c0.3,1.91,0.71,3.79,1.07,5.69 c0.43-0.05,0.86-0.09,1.29-0.14c-0.56-7.06-1.13-14.12-1.69-21.17c-0.64,0.04-1.27,0.07-1.91,0.11 C119.97,553.91,120.11,556.79,120.27,560.36z M108.36,566.66c1.81-7.25,7.73-13.55,4.8-22.16c-0.57,1.99-1.18,3.77-1.58,5.59 C110.32,555.7,109.13,561.32,108.36,566.66z M332.62,518.12c1.55-2.21,3.1-4.42,4.24-6.05c0-4.16,0-7.74,0-11.32 c-1.53,3.28-2.46,6.58-3.16,9.93C333.16,513.28,332.91,515.95,332.62,518.12z M262.57,610.66c0,4.09,0,8.17,0,12.26 c0.31,0,0.62,0,0.93,0c0-6.51,0-13.02,0-19.53c0.13,0,0.26,0,0.38,0c0.17,3.1,0.33,6.21,0.5,9.31c0.13,0,0.26-0.01,0.39-0.01 c0-5.86,0-11.71,0-17.57c-0.16-0.01-0.32-0.03-0.48-0.04c-0.14,1.36-0.28,2.72-0.35,3.4c0-1.61,0-3.9,0-6.18 c-0.46-0.01-0.91-0.03-1.37-0.04C262.57,598.12,262.57,604,262.57,610.66z M224.62,544.3c-0.21,2.89-0.42,5.78-0.63,8.67 c0.24,0.05,0.49,0.11,0.73,0.16c1.14-1.65,2.27-3.29,3.58-5.19c-0.52-3.6-1.06-7.36-1.61-11.12c-0.28,0.02-0.56,0.04-0.84,0.06 C225.49,539.13,225.14,541.38,224.62,544.3z M427.82,569.61c-0.36-6.08-0.72-12.16-1.07-18.24c-1.55,7.79-1.51,15.56-0.9,23.34 c0.45,0.02,0.91,0.04,1.36,0.06C427.4,573.29,427.6,571.8,427.82,569.61z M215.79,557.56c-0.47,3.28-0.94,6.56-1.41,9.83 c4.55-6.23,3.64-13.49,4.03-20.53C217.62,550.22,216.82,553.58,215.79,557.56z M427.24,508.08c0.82,1.13,1.64,2.25,3.08,4.23 c0-5.67,0-10.37,0-15.07c-0.35-0.03-0.7-0.06-1.05-0.09C428.46,500.65,427.65,504.15,427.24,508.08z M270.39,488.37 c-0.69,0.47-1.93,0.89-1.98,1.41c-0.39,4.62-0.57,9.26-0.8,13.9c0.53,0.03,1.07,0.06,1.6,0.09 C269.65,498.83,270.09,493.9,270.39,488.37z M283.99,520.64c2.01,3.03,4.02,6.06,6.25,9.43c-1.71-6.04-3.32-11.7-4.93-17.37 c-0.21,0.02-0.42,0.05-0.62,0.07C284.46,515.19,284.22,517.61,283.99,520.64z M274.47,569.7c0-2.55,0-5.1,0-7.65 c-1.77,5.7-4.26,11.29-2.35,17.29c0.38,0.05,0.76,0.1,1.14,0.15C273.67,576.47,274.07,573.45,274.47,569.7z M386.79,566.62 c0.15,0.68,0.31,1.35,0.46,2.03c0.11-0.02,0.23-0.03,0.34-0.05c0-5.83,0-11.66,0-18.23C383.99,559.36,383.98,559.57,386.79,566.62 z M265.03,524.39c0.84,1.39,1.68,2.79,2.52,4.18c0.3-0.12,0.59-0.24,0.89-0.36c-0.48-4.93-0.95-9.86-1.43-14.8 c-0.47,0.02-0.95,0.04-1.42,0.05C265.4,516.89,265.2,520.31,265.03,524.39z M350.83,597.53c0,2.91,0,5.82,0,8.73 c0.51,0.01,1.02,0.01,1.53,0.02c0.48-5.83,0.96-11.66,1.44-17.49c-0.42-0.06-0.84-0.11-1.27-0.17 C351.98,591.35,351.44,594.09,350.83,597.53z M226.47,564.92c0,1.43,0,2.87,0,5.19c3.71-6.08,4.1-10.56,1.46-16.6 C227.37,557.67,226.93,560.95,226.47,564.92z M209.18,590.95c-0.72,9.76-1.44,19.52-2.16,29.28c1.45-9.44,2.14-18.92,2.81-28.4 c0.04-0.5-0.05-1.02-0.08-1.53C209.58,590.35,209.42,590.39,209.18,590.95z M262.02,546.85c1.44-4.47,5.44-8.27,3.6-13.63 c-1.51,2.28-2.87,4.64-3.5,7.18C261.57,542.61,261.85,545.02,262.02,546.85z M101.42,527.94c0,1.4,0,2.81,0,5.3 c3.81-6.77,3.94-12.23,1.02-15.98C102.12,520.57,101.8,523.92,101.42,527.94z M306.22,507.81c0.54-3.22,1.07-6.44,1.61-9.66 c-0.53-0.1-1.07-0.2-1.6-0.3c-1.12,5.34-2.25,10.68-3.37,16.03c0.43,0.1,0.85,0.2,1.28,0.3 C304.75,512.25,305.36,510.33,306.22,507.81z M334.17,586.11c0,6.78,0,13.56,0,20.34c0.21,0,0.42,0,0.62-0.01 c0-12.49,0-24.97,0-37.46c-0.21,0-0.43,0-0.64,0C334.16,574.45,334.16,579.91,334.17,586.11z M380.37,585.79 c0.49-2.73,0.97-5.46,1.46-8.19c-0.59-0.12-1.18-0.24-1.78-0.36c-1.01,4.42-2.02,8.85-3.02,13.27c0.35,0.08,0.69,0.17,1.04,0.25 C378.73,589.24,379.39,587.72,380.37,585.79z M455.37,539.57c-0.16-0.29-0.31-0.59-0.28-0.54c0,5.91,0,12.1,0,18.29 C457.71,551.56,457,545.85,455.37,539.57z M207.56,585.13c-0.74-2.99,1.91-6.83-2.2-9.39c0,5.71,0,10.97,0,16.23 c0.12,0.02,0.25,0.03,0.37,0.05C206.31,589.95,206.88,587.88,207.56,585.13z M428.92,525.11c2.21-5.26,2.11-6.79-0.95-9.35 c-0.57,4.46-1.12,8.71-1.66,12.96c0.18,0.07,0.37,0.13,0.55,0.2C427.46,527.83,428.05,526.74,428.92,525.11z M407.64,553.48 c0.68-3.34,1.36-6.68,2.04-10.02c-0.68-0.13-1.35-0.25-2.03-0.38c-0.83,5.06-1.66,10.12-2.49,15.18c0.34,0.05,0.68,0.11,1.02,0.16 C406.59,556.96,407,555.5,407.64,553.48z M244.22,577.2c0-4.32,0-8.64,0-12.96c-2.71,3.85-2.17,12.26,0.34,16.1 C244.45,579.3,244.38,578.54,244.22,577.2z M284.88,575.86c-0.14-2.68-0.27-5.36-0.42-8.18c-3.1,4.58-3.6,9.01,0.01,13.83 C284.6,579.57,284.71,578.03,284.88,575.86z M336.65,541.53c0,2.24,0,4.48,0,6.73c0.44,0.02,0.87,0.03,1.31,0.05 c0.41-4.87,0.82-9.75,1.22-14.62c-0.45-0.07-0.9-0.13-1.35-0.19C337.44,535.93,337.04,538.37,336.65,541.53z M265.85,550.78 c1.56,1.6,2.7,1.48,2.94-0.67c0.36-3.3,0.09-6.66,0.09-9.99c-0.43,0-0.87-0.01-1.3-0.01 C267.02,543.45,266.47,546.78,265.85,550.78z M435.31,577.08c0.29-5.1,0.57-10.19,0.86-15.29c-0.35-0.02-0.7-0.04-1.05-0.06 c-0.39,6.68-0.78,13.36-1.17,20.04c0.25,0.02,0.49,0.04,0.74,0.07C434.83,580.47,434.99,579.1,435.31,577.08z M234.31,554.38 c0.1,0.48,0.2,0.97,0.3,1.45c0.28,0,0.56,0,0.83,0c0.22-4.06,0.43-8.11,0.69-12.88C233.02,546.73,232.69,550.15,234.31,554.38z M387.5,532.69c-0.05-0.33-0.1-0.65-0.15-0.98c-0.12,0.03-0.31,0.01-0.36,0.09c-2.29,3.1-4.23,6.33-3.9,10.36 c0.4,0.15,0.8,0.31,1.2,0.46C385.34,539.49,386.4,536.36,387.5,532.69z M174.18,562.17c0,3.24,0,6.47,0,9.71 c0.27-0.01,0.55-0.02,0.82-0.03c0-5.93,0-11.86,0-17.79c-0.24,0-0.47,0.01-0.71,0.01C174.3,556.54,174.3,559.01,174.18,562.17z M185.39,603.58c0-7.33,0-14.66,0-21.99c-0.44,0.01-0.87,0.01-1.31,0.02C184.42,589.03,184.76,596.46,185.39,603.58z M109.22,510.13c-0.63-2.89-1.25-5.78-1.88-8.67c-0.28,0.08-0.56,0.15-0.84,0.23c0.22,3.45,0.44,6.89,0.7,10.95 C108.18,511.61,108.6,511.15,109.22,510.13z M218.23,594.44c0.15-2.1,0.3-4.2,0.46-6.3c-0.31-0.02-0.61-0.05-0.92-0.07 c-0.6,5.89-1.19,11.77-1.79,17.66c0.24,0.02,0.48,0.05,0.72,0.07C217.19,602.21,217.68,598.63,218.23,594.44z M343.59,560.88 c-0.14-0.26-0.29-0.52-0.43-0.78c-0.07,0.11-0.19,0.22-0.19,0.33c-0.38,5.99-0.76,11.97-1.13,17.96c0.31,0.01,0.61,0.03,0.92,0.04 C343.03,572.76,343.31,567.09,343.59,560.88z M361.83,605.05c0.11,0.07,0.22,0.15,0.34,0.19c0.02,0.01,0.15-0.13,0.15-0.2 c0.01-5.86,0.01-11.73,0.01-17.59c-0.52,0.01-1.04,0.03-1.57,0.04C361.07,593.17,361.39,598.86,361.83,605.05z M265.92,483.21 c-0.73-0.77-1.45-1.54-2.6-2.76c0.65,3.58,1.18,6.5,1.71,9.43c0.43-0.01,0.86-0.03,1.29-0.04 C266.33,487.77,266.33,485.69,265.92,483.21z M336.38,626.38c-0.04-0.13-0.07-0.25-0.11-0.38c-0.09,0.2-0.27,0.41-0.27,0.61 c-0.01,6.49-0.01,12.98-0.01,19.48c0.14,0,0.29,0,0.43,0C336.41,639.68,336.41,633.27,336.38,626.38z M217.86,572.68 c-1.34,2.92-3.3,5.69-2.93,9.01c0.54,0.11,1.08,0.22,1.62,0.33C217.07,578.76,217.6,575.51,217.86,572.68z M338.29,502.5 c0.13,0.07,0.26,0.14,0.4,0.21c0.04-0.12,0.12-0.24,0.12-0.36c0.01-4.58,0.01-9.16,0.01-13.73c-0.18,0-0.37,0-0.55,0.01 C338.26,493.06,338.26,497.51,338.29,502.5z M318.5,493.38c0-3.73,0-7.47,0-11.2c-0.08-0.01-0.15-0.01-0.23-0.02 c0,5.89,0,11.77,0,17.66c0.07,0.01,0.14,0.02,0.22,0.04C318.49,497.95,318.49,496.04,318.5,493.38z"></path>
     
      <path d="M308.3,226.45c1.77,5.15,3.55,10.3,5.23,15.18c4.17-10.58,8.17-21.77,12.95-32.62c9.06-20.6,18.58-41.01,32.79-58.73 c7.21-8.99,15.67-16.69,25.31-23.05c0.51-0.33,1.13-0.5,2.54-1.1c-4.65,7.94-8.92,15.11-13.08,22.34 c-11.99,20.85-24.41,41.46-35.77,62.65c-10.59,19.76-17.49,41.06-22.73,62.85c-0.48,2.01-0.66,4.1-1.73,6.4 c-0.55-1.16-1.21-2.28-1.63-3.48c-6.28-17.85-11.94-35.95-18.94-53.51c-7.86-19.7-18.54-38.07-30.82-55.35 c-11.01-15.49-22.97-30.29-34.27-45.58c-5.37-7.26-10.17-14.94-15.23-22.43c0.36-0.41,0.72-0.82,1.08-1.23 c6.49,4.36,13.26,8.37,19.43,13.14c19.81,15.31,34.63,34.88,47.46,56.19c9.9,16.45,18.52,33.45,24.61,51.68 c0.23,0.7,0.77,1.29,1.48,2.25C307.62,223.75,307.96,225.1,308.3,226.45z"></path>
      
       <path d="M308.6,226.39c-0.64-1.29-0.97-2.64-1.33-4.18c-1.51-14.06-2.65-27.99-4.59-41.81c-1.98-14.1-4.43-28.15-7.27-42.1 c-2.04-10.03-4.76-19.95-7.68-29.77c-5.74-19.29-14.14-37.47-23.68-55.17c-7.87-14.6-15.47-29.35-23.18-44.03 c0.27-0.28,0.54-0.55,0.82-0.83c3,2.21,6.16,4.24,8.97,6.66c14.79,12.73,26.39,28.02,35.5,45.2c8.24,15.54,14.7,31.82,18.97,48.91 c2.01,8.02,3.66,16.13,5.68,25.13c4.41-25.41,8.17-50.21,19.86-72.86c0,8.68,0.49,17.13-0.09,25.5 c-1.77,25.54-7.38,50.48-12.3,75.53c-1.48,7.52-2.14,15.21-3.11,22.83c-1.42,11.12-2.71,22.25-4.22,33.35 C310.6,221.32,309.6,223.8,308.6,226.39z"></path> 
      
       <path d="M412.7,305.63c3.31-4.82,6.45-9.4,9.59-13.99c0.32,0.18,0.63,0.37,0.95,0.55c-4.03,12.8-8.03,25.62-15.52,37.13 c13.61-13.79,26.89-27.82,45.15-35.93c-8.61,10.09-17.22,20.17-25.72,30.14c17.41-11.08,35.72-20.96,57.31-23.27 c-4.78,3.77-9.3,7.94-14.38,11.24c-17.14,11.14-34.52,21.9-51.73,32.93c-14.93,9.57-29.64,19.48-42.75,31.54 c-1.15,1.05-2.19,2.25-3.1,3.52c-0.82,1.14-1.38,2.46-2.06,3.71c-0.62-0.53-1.24-1.05-1.86-1.58 C381.36,355.31,398.7,331.58,412.7,305.63z"></path> 
       <path d="M368.66,422.07c-6.24,6.5-12.45,12.66-18.25,19.18c-2.14,2.41-3.32,5.68-5.93,8.41c1.69-7.82,2.71-15.86,5.2-23.42 c7.11-21.56,20.16-39.1,37.52-53.67c17.83-14.97,37.71-25.82,60.32-31.54c0.86-0.22,1.73-0.42,2.82-0.28 c-29.07,20.16-59.88,38.21-80.93,69.36c4.89-2.82,9.05-5.12,13.11-7.57c4.34-2.63,8.64-5.33,12.88-8.13 c4.08-2.69,8.05-5.54,12.18-8.16C396.26,399.88,382.73,411.07,368.66,422.07z"></path>
        <path d="M274.87,150.38c-4.36-12.99-2.96-25.94-2.4-39.52c12.16,17.46,11.28,36.53,9.66,55.98 C279.76,161.44,277.4,156.04,274.87,150.38z"></path> 
        <path d="M321.14,675.14c-20.07,1.67-38.8,0.38-49.56-3.67c21.74-3.4,42.5-3.83,63.3-0.71c0.1,0.48,0.21,0.96,0.31,1.44 C330.63,673.16,326.06,674.13,321.14,675.14z"></path>
         <path d="M350.17,279.46c1.02-11.76,5.69-21.51,14.27-29.61c-2.82,9.38-5.26,18.9-8.55,28.12c-5.85,16.38-9.59,33.15-10.72,50.5 c-0.04,0.65-0.03,1.31-0.14,1.96c-0.26,1.5-0.57,2.98-0.86,4.47c-0.34-0.04-0.68-0.08-1.02-0.12c1.32-12.56,2.53-25.13,4.02-37.66 C347.86,291.3,349.11,285.55,350.17,279.46z"></path>
         <path d="M270.93,432.13c5.53,14.14,6.83,28.81,8.39,43.45c-4-14.96-6.81-30.37-12.33-44.74c-5.53-14.4-13.77-27.75-20.47-40.88 C257.09,401.81,264.56,416.46,270.93,432.13z"></path>
         <path d="M329.69,170.78c1.33-2.5,2.51-4.74,3.87-k7.3c4.45,11.74,3.64,21.65-7.1,34.84C326.37,188.75,324.76,179.57,329.69,170.78z "></path>
         <path d="M294.45,321.79c-0.16,2.39-0.29,4.45-0.45,7.16c-4.01-8.22-10.39-15.27-5.52-24.96 C293.27,306.31,295.51,312.92,294.45,321.79z"></path>
        
         <path d="M90.76,610.02c-0.43-7.34-0.88-14.72-1.33-22.09c0.46-0.01,0.93-0.02,1.39-0.03c0,7.13,0,14.26-0.02,21.77 C90.77,610.05,90.73,609.99,90.76,610.02z"></path>
          <path d="M128.29,500.77c-1.2-2.5-2.23-5.16-3.27-8.13c1.55,1.83,3.11,3.98,4.7,6.41C129.31,499.76,128.88,500.19,128.29,500.77z"></path> 
    </g> </g> </g></svg>