<svg id="visual" viewBox="0 0 900 600" width="900" height="600" xmlns="http://www.w3.org/2000/svg"
    xmlns:xlink="http://www.w3.org/1999/xlink" version="1.1">
    <rect x="0" y="0" width="900" height="600" fill="#002233"></rect>
    <path
        d="M0 433L21.5 425.5C43 418 86 403 128.8 396.7C171.7 390.3 214.3 392.7 257.2 394.2C300 395.7 343 396.3 385.8 394.7C428.7 393 471.3 389 514.2 368C557 347 600 309 642.8 281.5C685.7 254 728.3 237 771.2 241.3C814 245.7 857 271.3 878.5 284.2L900 297L900 601L878.5 601C857 601 814 601 771.2 601C728.3 601 685.7 601 642.8 601C600 601 557 601 514.2 601C471.3 601 428.7 601 385.8 601C343 601 300 601 257.2 601C214.3 601 171.7 601 128.8 601C86 601 43 601 21.5 601L0 601Z"
        fill="#0066FF" stroke-linecap="round" stroke-linejoin="miter"></path>
</svg>