<svg id="visual" viewBox="0 0 900 600" width="900" height="600" xmlns="http://www.w3.org/2000/svg"
    xmlns:xlink="http://www.w3.org/1999/xlink" version="1.1">
    <rect x="0" y="0" width="900" height="600" fill="#002233"></rect>
    <path
        d="M0 494L6 491.8C12 489.7 24 485.3 36 440C48 394.7 60 308.3 72 290.3C84 272.3 96 322.7 108 369.8C120 417 132 461 144 471.5C156 482 168 459 180 418.7C192 378.3 204 320.7 216 326C228 331.3 240 399.7 252 434.3C264 469 276 470 288 443.3C300 416.7 312 362.3 324 343.5C336 324.7 348 341.3 360 363.5C372 385.7 384 413.3 396 412C408 410.7 420 380.3 432 377.3C444 374.3 456 398.7 468 416.5C480 434.3 492 445.7 504 459C516 472.3 528 487.7 540 459C552 430.3 564 357.7 576 310.7C588 263.7 600 242.3 612 245.2C624 248 636 275 648 282.2C660 289.3 672 276.7 684 298.7C696 320.7 708 377.3 720 385.3C732 393.3 744 352.7 756 348.5C768 344.3 780 376.7 792 406C804 435.3 816 461.7 828 476.7C840 491.7 852 495.3 864 493.2C876 491 888 483 894 479L900 475L900 601L894 601C888 601 876 601 864 601C852 601 840 601 828 601C816 601 804 601 792 601C780 601 768 601 756 601C744 601 732 601 720 601C708 601 696 601 684 601C672 601 660 601 648 601C636 601 624 601 612 601C600 601 588 601 576 601C564 601 552 601 540 601C528 601 516 601 504 601C492 601 480 601 468 601C456 601 444 601 432 601C420 601 408 601 396 601C384 601 372 601 360 601C348 601 336 601 324 601C312 601 300 601 288 601C276 601 264 601 252 601C240 601 228 601 216 601C204 601 192 601 180 601C168 601 156 601 144 601C132 601 120 601 108 601C96 601 84 601 72 601C60 601 48 601 36 601C24 601 12 601 6 601L0 601Z"
        fill="#0066FF" stroke-linecap="round" stroke-linejoin="miter"></path>
</svg>