<svg id="visual" viewBox="0 0 900 600" width="900" height="600" xmlns="http://www.w3.org/2000/svg"
    xmlns:xlink="http://www.w3.org/1999/xlink" version="1.1">
    <rect x="0" y="0" width="900" height="600" fill="#002233"></rect>
    <path
        d="M0 414L21.5 381.8C43 349.7 86 285.3 128.8 242.2C171.7 199 214.3 177 257.2 214.3C300 251.7 343 348.3 385.8 393.7C428.7 439 471.3 433 514.2 405.2C557 377.3 600 327.7 642.8 309.3C685.7 291 728.3 304 771.2 327C814 350 857 383 878.5 399.5L900 416L900 601L878.5 601C857 601 814 601 771.2 601C728.3 601 685.7 601 642.8 601C600 601 557 601 514.2 601C471.3 601 428.7 601 385.8 601C343 601 300 601 257.2 601C214.3 601 171.7 601 128.8 601C86 601 43 601 21.5 601L0 601Z"
        fill="#0066FF" stroke-linecap="round" stroke-linejoin="miter"></path>
</svg>