<svg id="visual" viewBox="0 0 900 600" width="900" height="600" xmlns="http://www.w3.org/2000/svg"
    xmlns:xlink="http://www.w3.org/1999/xlink" version="1.1">
    <rect x="0" y="0" width="900" height="600" fill="#002233"></rect>
    <path
        d="M0 427L6 439.8C12 452.7 24 478.3 36 473.8C48 469.3 60 434.7 72 402.8C84 371 96 342 108 330.5C120 319 132 325 144 329C156 333 168 335 180 358.7C192 382.3 204 427.7 216 462.2C228 496.7 240 520.3 252 495.7C264 471 276 398 288 396.7C300 395.3 312 465.7 324 461.8C336 458 348 380 360 355.7C372 331.3 384 360.7 396 384.3C408 408 420 426 432 431.2C444 436.3 456 428.7 468 426.2C480 423.7 492 426.3 504 430.8C516 435.3 528 441.7 540 438.3C552 435 564 422 576 408C588 394 600 379 612 384.3C624 389.7 636 415.3 648 410.3C660 405.3 672 369.7 684 356.3C696 343 708 352 720 346.8C732 341.7 744 322.3 756 327.2C768 332 780 361 792 363C804 365 816 340 828 336C840 332 852 349 864 357.5C876 366 888 366 894 366L900 366L900 601L894 601C888 601 876 601 864 601C852 601 840 601 828 601C816 601 804 601 792 601C780 601 768 601 756 601C744 601 732 601 720 601C708 601 696 601 684 601C672 601 660 601 648 601C636 601 624 601 612 601C600 601 588 601 576 601C564 601 552 601 540 601C528 601 516 601 504 601C492 601 480 601 468 601C456 601 444 601 432 601C420 601 408 601 396 601C384 601 372 601 360 601C348 601 336 601 324 601C312 601 300 601 288 601C276 601 264 601 252 601C240 601 228 601 216 601C204 601 192 601 180 601C168 601 156 601 144 601C132 601 120 601 108 601C96 601 84 601 72 601C60 601 48 601 36 601C24 601 12 601 6 601L0 601Z"
        fill="#0066FF" stroke-linecap="round" stroke-linejoin="miter"></path>
</svg>