<svg id="visual" viewBox="0 0 900 600" width="900" height="600" xmlns="http://www.w3.org/2000/svg"
    xmlns:xlink="http://www.w3.org/1999/xlink" version="1.1">
    <rect x="0" y="0" width="900" height="600" fill="#002233"></rect>
    <path
        d="M0 211L6 223.5C12 236 24 261 36 277.7C48 294.3 60 302.7 72 336.8C84 371 96 431 108 459.2C120 487.3 132 483.7 144 489.3C156 495 168 510 180 497.7C192 485.3 204 445.7 216 425C228 404.3 240 402.7 252 408.3C264 414 276 427 288 416.2C300 405.3 312 370.7 324 338.3C336 306 348 276 360 276.5C372 277 384 308 396 307.5C408 307 420 275 432 286.5C444 298 456 353 468 374.7C480 396.3 492 384.7 504 349.3C516 314 528 255 540 267.3C552 279.7 564 363.3 576 404.2C588 445 600 443 612 455.5C624 468 636 495 648 507.2C660 519.3 672 516.7 684 475.2C696 433.7 708 353.3 720 341.2C732 329 744 385 756 412.8C768 440.7 780 440.3 792 411C804 381.7 816 323.3 828 315.5C840 307.7 852 350.3 864 345C876 339.7 888 286.3 894 259.7L900 233L900 601L894 601C888 601 876 601 864 601C852 601 840 601 828 601C816 601 804 601 792 601C780 601 768 601 756 601C744 601 732 601 720 601C708 601 696 601 684 601C672 601 660 601 648 601C636 601 624 601 612 601C600 601 588 601 576 601C564 601 552 601 540 601C528 601 516 601 504 601C492 601 480 601 468 601C456 601 444 601 432 601C420 601 408 601 396 601C384 601 372 601 360 601C348 601 336 601 324 601C312 601 300 601 288 601C276 601 264 601 252 601C240 601 228 601 216 601C204 601 192 601 180 601C168 601 156 601 144 601C132 601 120 601 108 601C96 601 84 601 72 601C60 601 48 601 36 601C24 601 12 601 6 601L0 601Z"
        fill="#0066FF" stroke-linecap="round" stroke-linejoin="miter"></path>
</svg>