<svg id="visual" viewBox="0 0 900 600" width="900" height="600" xmlns="http://www.w3.org/2000/svg"
    xmlns:xlink="http://www.w3.org/1999/xlink" version="1.1">
    <rect x="0" y="0" width="900" height="600" fill="#002233"></rect>
    <path
        d="M0 226L6 255C12 284 24 342 36 354C48 366 60 332 72 328.7C84 325.3 96 352.7 108 336C120 319.3 132 258.7 144 269C156 279.3 168 360.7 180 413.5C192 466.3 204 490.7 216 493C228 495.3 240 475.7 252 465.5C264 455.3 276 454.7 288 440.8C300 427 312 400 324 401.2C336 402.3 348 431.7 360 434.3C372 437 384 413 396 402.7C408 392.3 420 395.7 432 391.7C444 387.7 456 376.3 468 388C480 399.7 492 434.3 504 417C516 399.7 528 330.3 540 304.7C552 279 564 297 576 289.7C588 282.3 600 249.7 612 283.2C624 316.7 636 416.3 648 427.7C660 439 672 362 684 312.5C696 263 708 241 720 246.3C732 251.7 744 284.3 756 296.3C768 308.3 780 299.7 792 292.8C804 286 816 281 828 290.8C840 300.7 852 325.3 864 325.8C876 326.3 888 302.7 894 290.8L900 279L900 601L894 601C888 601 876 601 864 601C852 601 840 601 828 601C816 601 804 601 792 601C780 601 768 601 756 601C744 601 732 601 720 601C708 601 696 601 684 601C672 601 660 601 648 601C636 601 624 601 612 601C600 601 588 601 576 601C564 601 552 601 540 601C528 601 516 601 504 601C492 601 480 601 468 601C456 601 444 601 432 601C420 601 408 601 396 601C384 601 372 601 360 601C348 601 336 601 324 601C312 601 300 601 288 601C276 601 264 601 252 601C240 601 228 601 216 601C204 601 192 601 180 601C168 601 156 601 144 601C132 601 120 601 108 601C96 601 84 601 72 601C60 601 48 601 36 601C24 601 12 601 6 601L0 601Z"
        fill="#0066FF" stroke-linecap="round" stroke-linejoin="miter"></path>
</svg>